<svg width="70" height="66" viewBox="0 0 70 66" fill="none" xmlns="http://www.w3.org/2000/svg">
<path fill-rule="evenodd" clip-rule="evenodd" d="M7.29175 12.375C7.29175 9.33743 9.90342 6.875 13.1251 6.875H56.8751C60.0967 6.875 62.7084 9.33743 62.7084 12.375V53.625C62.7084 56.6625 60.0967 59.125 56.8751 59.125H13.1251C9.90342 59.125 7.29175 56.6625 7.29175 53.625V12.375ZM13.1251 9.625C11.5143 9.625 10.2084 10.8562 10.2084 12.375V53.625C10.2084 55.1438 11.5143 56.375 13.1251 56.375H56.8751C58.486 56.375 59.7917 55.1438 59.7917 53.625V12.375C59.7917 10.8562 58.486 9.625 56.8751 9.625H13.1251ZM32.8234 15.8583C32.8234 15.0989 33.4764 14.4833 34.2817 14.4833H40.1042C40.9097 14.4833 41.5626 15.0989 41.5626 15.8583V17.709C41.5909 17.7328 41.6199 17.7574 41.6495 17.783C41.9199 18.0163 42.2422 18.3256 42.586 18.7201C45.0435 18.3116 48.01 18.5433 51.5475 19.7764L52.8756 20.2393L52.424 21.5046C52.0986 22.4161 51.7406 23.14 51.4146 23.799L51.4059 23.8169C51.0757 24.4843 50.7788 25.087 50.5086 25.8444L49.9821 27.3191L48.8376 26.8004C53.5864 31.0211 52.3767 37.3817 49.4102 42.2192C47.8642 44.7402 45.7547 47.0322 43.4447 48.707C41.158 50.365 38.5342 51.5171 35.9734 51.5171C33.4041 51.5171 30.8424 50.3575 28.6356 48.7059C26.4082 47.0392 24.4046 44.7718 22.9321 42.3122C21.4637 39.8593 20.4732 37.1301 20.3804 34.5298C20.3262 33.0059 20.5827 31.5041 21.247 30.1448C21.2331 30.1286 21.2182 30.1114 21.2024 30.0934C21.0583 29.9296 20.8363 29.7004 20.5403 29.4592C19.944 28.973 19.092 28.4729 17.9985 28.3078C17.6096 28.249 17.2625 28.0445 17.036 27.7406C16.8096 27.4367 16.7231 27.0594 16.7963 26.6945C17.2838 24.2643 17.7241 22.8201 18.0649 21.9557C18.236 21.5221 18.3885 21.2178 18.5199 21.0001C18.5861 20.8905 18.6495 20.7987 18.7102 20.7212C18.7408 20.6822 18.7712 20.6463 18.8015 20.613C18.8167 20.5963 18.832 20.5803 18.8473 20.5648L18.8703 20.5419L18.8819 20.5308L18.8877 20.5253L18.8906 20.5226C18.8921 20.5213 18.8935 20.52 19.9161 21.5002C20.3284 20.1813 20.3287 20.1814 20.3291 20.1816L20.3322 20.1824L20.3386 20.1842L20.3591 20.19L20.4296 20.2104C20.4892 20.2279 20.574 20.2532 20.68 20.2863C20.8922 20.3523 21.1913 20.4494 21.55 20.5769C22.2639 20.8303 23.231 21.2099 24.2237 21.711C24.9895 22.0975 25.804 22.5728 26.5374 23.1404L25.027 20.9468C24.5968 20.322 24.7724 19.4879 25.4231 19.0655L30.1027 16.0277C30.7493 15.608 31.6321 15.7461 32.1003 16.3401L32.8234 17.2576V15.8583ZM25.6608 26.2219C25.5176 26.0285 25.3348 25.8274 25.1081 25.6197C24.5081 25.0695 23.703 24.5674 22.8472 24.1355C22.0721 23.7443 21.3006 23.4332 20.6879 23.21C20.4865 23.774 20.2256 24.6438 19.9279 25.9577C20.9924 26.3318 21.8344 26.8788 22.4481 27.379C22.5942 27.4981 22.7286 27.6156 22.8513 27.7288C22.9853 27.6464 23.1294 27.5594 23.2828 27.4689C23.3716 27.4165 23.4638 27.3628 23.559 27.308C24.1676 26.84 24.838 26.5068 25.5377 26.2787C25.5785 26.2597 25.6195 26.2408 25.6608 26.2219ZM25.2702 29.5464C25.685 29.3129 26.1506 29.0668 26.6485 28.8295C27.1636 28.6811 27.752 28.6072 28.4119 28.605C29.7473 28.6006 31.2366 28.8934 32.6749 29.32C34.1022 29.7432 35.4122 30.2778 36.3708 30.7102C36.45 30.746 36.5268 30.7809 36.6008 30.815L35.7155 33.8113L32.5289 35.17L28.7676 34.3344L28.0988 37.0112L30.7009 37.5892L29.8742 39.5596L32.5863 40.5712L33.8165 37.6391L34.6953 37.2644L34.6295 37.4874L35.9636 40.3946L36.2206 43.9454L39.1304 43.7583L38.951 41.28L41.7351 40.9753L41.3988 38.2436L38.3096 38.5817L37.7161 37.2882L39.4111 31.5509L39.5215 31.3808L39.7311 31.1475L39.7365 31.1415L39.7589 31.1168C39.7796 31.0941 39.8117 31.0593 39.8543 31.0139C39.9392 30.9229 40.0656 30.7898 40.2262 30.6263C40.5482 30.2984 41.003 29.853 41.534 29.3833C42.4452 28.5777 43.4596 27.8106 44.354 27.3735C44.7133 27.556 45.0161 27.6957 45.2656 27.8107C45.3757 27.8615 45.4754 27.9075 45.565 27.9503C45.9465 28.1324 46.2319 28.291 46.6455 28.6364C50.0775 31.5029 49.6897 36.2695 46.8852 40.8427C45.5193 43.07 43.6578 45.0835 41.6667 46.5271C39.6523 47.9876 37.6449 48.7671 35.9734 48.7671C34.3103 48.7671 32.3751 47.9935 30.4488 46.552C28.543 45.1258 26.7771 43.1402 25.4721 40.9604C24.1631 38.7736 23.3681 36.4767 23.2955 34.4374C23.2243 32.4397 23.8392 30.7582 25.2702 29.5464ZM21.3854 30.3175L21.3871 30.32C21.3874 30.3204 21.3877 30.3209 21.3871 30.32M21.3854 30.3175C21.3862 30.3188 21.3867 30.3194 21.3871 30.32C21.6085 30.6366 21.9582 30.8524 22.3546 30.9173C22.754 30.9827 23.1644 30.8884 23.487 30.657M38.1574 28.3709C38.1969 28.3222 38.2377 28.2723 38.2799 28.2215C38.8584 27.5224 39.706 26.6039 40.7655 25.7638C42.5559 24.3441 45.2312 22.9529 48.2781 23.6609C48.4392 23.3084 48.6001 22.9831 48.7538 22.6724L48.7624 22.6548C48.8875 22.4021 49.0077 22.1585 49.1235 21.9124C44.1546 20.5326 41.0465 21.64 39.1019 23.1562C37.4496 24.4448 36.4972 26.1401 36.032 27.2968C36.6814 27.6122 37.321 27.9373 37.8571 28.2147C37.9611 28.2686 38.0614 28.3209 38.1574 28.3709ZM39.2711 19.5012C38.8806 19.2451 38.6459 18.824 38.6459 18.3728V17.2333H35.74V18.8961C35.74 19.1762 35.6493 19.4496 35.48 19.6797L34.5223 20.9817C34.2547 21.3455 33.8175 21.5656 33.3479 21.5728C32.8782 21.5801 32.4337 21.3736 32.1536 21.0181L30.5982 19.0448L28.2461 20.5716L29.6608 22.6263C29.9656 23.0691 29.9677 23.6214 29.7043 24.0569C29.6973 24.0826 29.6881 24.1194 29.6776 24.1692C29.626 24.4156 29.5599 24.8907 29.5305 25.7399C29.7082 25.7638 29.8994 25.7665 30.2713 25.7665C30.9446 25.7665 31.8288 25.7696 33.3036 25.9999C33.9835 24.4064 35.0921 22.8601 36.3425 21.6325C37.1866 20.8038 38.1922 20.027 39.2711 19.5012ZM19.9161 21.5002L20.3291 20.1816C19.821 20.0403 19.2711 20.1697 18.8935 20.52L19.9161 21.5002Z" fill="#263667"/>
</svg>
