<svg width="70" height="66" viewBox="0 0 70 66" fill="none" xmlns="http://www.w3.org/2000/svg">
<path fill-rule="evenodd" clip-rule="evenodd" d="M56.875 11H13.125C12.3196 11 11.6667 11.6156 11.6667 12.375V53.625C11.6667 54.3844 12.3196 55 13.125 55H56.875C57.6804 55 58.3333 54.3844 58.3333 53.625V12.375C58.3333 11.6156 57.6804 11 56.875 11ZM13.125 8.25C10.7088 8.25 8.75 10.0968 8.75 12.375V53.625C8.75 55.9032 10.7088 57.75 13.125 57.75H56.875C59.2913 57.75 61.25 55.9032 61.25 53.625V12.375C61.25 10.0968 59.2913 8.25 56.875 8.25H13.125Z" fill="#263667"/>
<path fill-rule="evenodd" clip-rule="evenodd" d="M32.9629 45.0661C33.7708 45.0661 34.5229 45.3051 35.1523 45.7163L36.9726 13L37.9732 13.0557L38.9736 13L40.794 45.7163C41.4235 45.3051 42.1755 45.0661 42.9835 45.0661C45.1972 45.0661 46.9918 46.8607 46.9918 49.0744C46.9918 51.288 45.1972 53.0826 42.9835 53.0826C40.7799 53.0826 38.9916 51.3044 38.9753 49.1046L38.7513 45.0783H37.195L36.971 49.1046C36.9547 51.3044 35.1664 53.0826 32.9629 53.0826C30.7491 53.0826 28.9546 51.288 28.9546 49.0744C28.9546 46.8607 30.7491 45.0661 32.9629 45.0661ZM37.9732 31.0931L38.6398 43.0742H37.3065L37.9732 31.0931ZM37.9732 28.0659C38.5266 28.0659 38.9752 27.6178 38.9752 27.0652C38.9752 26.5126 38.5266 26.0645 37.9732 26.0645C37.4197 26.0645 36.9711 26.5126 36.9711 27.0652C36.9711 27.6178 37.4197 28.0659 37.9732 28.0659ZM32.9629 47.0702C31.856 47.0702 30.9587 47.9675 30.9587 49.0744C30.9587 50.1812 31.856 51.0785 32.9629 51.0785C34.0697 51.0785 34.967 50.1812 34.967 49.0744C34.967 47.9675 34.0697 47.0702 32.9629 47.0702ZM40.9794 49.0744C40.9794 47.9675 41.8766 47.0702 42.9835 47.0702C44.0904 47.0702 44.9876 47.9675 44.9876 49.0744C44.9876 50.1812 44.0904 51.0785 42.9835 51.0785C41.8766 51.0785 40.9794 50.1812 40.9794 49.0744Z" fill="#263667"/>
<path fill-rule="evenodd" clip-rule="evenodd" d="M28.9546 13.2344L27.4369 14.145L27.9525 15.0042C27.4369 14.145 27.4355 14.1458 27.4355 14.1458L27.434 14.1467L27.4308 14.1486L27.4234 14.1532L27.405 14.1648C27.391 14.1736 27.3739 14.1847 27.3538 14.1983C27.3136 14.2254 27.2614 14.2622 27.1987 14.3096C27.0736 14.4043 26.9071 14.5415 26.7124 14.7288C26.3224 15.1038 25.8221 15.677 25.3141 16.5078C24.2957 18.1736 23.268 20.8395 23.006 24.958C22.9261 26.2132 23.6522 27.271 24.6883 27.7525C24.2289 28.2066 23.9442 28.8371 23.9442 29.5342V50.5775C23.9442 51.9611 25.0658 53.0827 26.4494 53.0827C27.8329 53.0827 28.9546 51.9611 28.9546 50.5775V29.5342C28.9546 28.6387 28.4848 27.8531 27.7782 27.4101C28.4935 26.8606 28.9546 25.9966 28.9546 25.0249V13.2344ZM25.0061 25.0853C25.2429 21.3636 26.1406 19.0472 26.9504 17.6756V25.0249C26.9504 25.5783 26.5018 26.0269 25.9484 26.0269C25.3786 26.0269 24.9752 25.5721 25.0061 25.0853ZM26.9504 29.6201V29.5342C26.9504 29.2575 26.7261 29.0331 26.4494 29.0331C26.1726 29.0331 25.9484 29.2575 25.9484 29.5342V30.6222L26.9504 29.6201ZM26.9504 32.4544V33.6284L25.9484 34.6305V33.4564L26.9504 32.4544ZM26.9504 37.6367V36.4626L25.9484 37.4647V38.6387L26.9504 37.6367ZM26.9504 40.4709V50.5775C26.9504 50.8542 26.7261 51.0786 26.4494 51.0786C26.1726 51.0786 25.9484 50.8542 25.9484 50.5775V41.473L26.9504 40.4709Z" fill="#263667"/>
</svg>
