<svg width="70" height="66" viewBox="0 0 70 66" fill="none" xmlns="http://www.w3.org/2000/svg">
<path fill-rule="evenodd" clip-rule="evenodd" d="M56.875 11H13.125C12.3196 11 11.6667 11.6156 11.6667 12.375V53.625C11.6667 54.3844 12.3196 55 13.125 55H56.875C57.6804 55 58.3333 54.3844 58.3333 53.625V12.375C58.3333 11.6156 57.6804 11 56.875 11ZM13.125 8.25C10.7088 8.25 8.75 10.0968 8.75 12.375V53.625C8.75 55.9032 10.7088 57.75 13.125 57.75H56.875C59.2913 57.75 61.25 55.9032 61.25 53.625V12.375C61.25 10.0968 59.2913 8.25 56.875 8.25H13.125Z" fill="#263667"/>
<path d="M22.6716 43.0589C11.1487 37.8653 15.342 21.1267 23.2233 18.4932C26.4925 17.4007 30.1964 21.2925 30.218 23.6672C30.2394 26.0416 27.5705 28.2298 28.1781 31.1766C28.7855 34.1232 29.4974 39.0896 27.9483 41.4122C26.3991 43.735 24.8023 44.0194 22.6716 43.0589Z" fill="#263667"/>
<path fill-rule="evenodd" clip-rule="evenodd" d="M29.8522 35.7494C29.8522 35.7494 29.8544 35.7494 29.8957 34.3749C29.9371 33.0005 29.9393 33.0005 29.9393 33.0005L29.9416 33.0006L29.9463 33.0008L29.9563 33.0012L29.9794 33.0021C29.996 33.003 30.0148 33.0041 30.0361 33.0057C30.0784 33.0089 30.13 33.0138 30.1898 33.0217C30.3087 33.0371 30.4621 33.064 30.6387 33.1113C30.991 33.2056 31.4503 33.3852 31.9061 33.727C32.8761 34.4544 33.5592 35.703 33.5592 37.6234V57.7499H30.6425V37.6234C30.6425 36.3542 30.2231 35.9786 30.0905 35.8792C29.995 35.8075 29.903 35.773 29.8419 35.7567C29.8117 35.7486 29.7913 35.7458 29.7913 35.7458C29.7913 35.7458 29.7949 35.7464 29.805 35.7471L29.8247 35.7483L29.8382 35.7488L29.8459 35.7491L29.8502 35.7493L29.8522 35.7494Z" fill="#263667"/>
<path d="M47.614 43.0589C59.1368 37.8653 54.9435 21.1267 47.0623 18.4932C43.793 17.4007 40.0891 21.2925 40.0675 23.6672C40.0461 26.0416 42.715 28.2298 42.1074 31.1766C41.5 34.1232 40.7881 39.0896 42.3373 41.4122C43.8864 43.735 45.4832 44.0194 47.614 43.0589Z" fill="#263667"/>
<path fill-rule="evenodd" clip-rule="evenodd" d="M40.4331 35.7494C40.4331 35.7494 40.4311 35.7494 40.3897 34.3749C40.3482 33.0005 40.346 33.0005 40.346 33.0005L40.3439 33.0006L40.339 33.0008L40.329 33.0012L40.3059 33.0021C40.2895 33.003 40.2705 33.0041 40.2494 33.0057C40.2069 33.0089 40.1553 33.0138 40.0957 33.0217C39.9767 33.0371 39.8232 33.064 39.6466 33.1113C39.2943 33.2056 38.8351 33.3852 38.3793 33.727C37.4094 34.4544 36.7263 35.703 36.7263 37.6234V57.7499H39.643V37.6234C39.643 36.3542 40.0624 35.9786 40.195 35.8792C40.2905 35.8075 40.3825 35.773 40.4436 35.7567C40.4737 35.7486 40.4942 35.7458 40.4942 35.7458C40.4942 35.7458 40.4906 35.7464 40.4805 35.7471L40.4607 35.7483L40.4471 35.7488L40.4394 35.7491L40.4353 35.7493L40.4331 35.7494Z" fill="#263667"/>
</svg>
