<svg width="70" height="66" viewBox="0 0 70 66" fill="none" xmlns="http://www.w3.org/2000/svg">
<path fill-rule="evenodd" clip-rule="evenodd" d="M56.875 11H13.125C12.3196 11 11.6667 11.6156 11.6667 12.375V53.625C11.6667 54.3845 12.3196 55 13.125 55H56.875C57.6804 55 58.3333 54.3845 58.3333 53.625V12.375C58.3333 11.6156 57.6804 11 56.875 11ZM13.125 8.25C10.7088 8.25 8.75 10.0968 8.75 12.375V53.625C8.75 55.9031 10.7088 57.75 13.125 57.75H56.875C59.2913 57.75 61.25 55.9031 61.25 53.625V12.375C61.25 10.0968 59.2913 8.25 56.875 8.25H13.125Z" fill="#263667"/>
<path d="M25.8208 19.5803C31.8342 19.5758 31.294 27.2865 31.2968 30.3706C31.3002 34.307 32.3392 42.2501 29.1232 45.2791C25.8459 48.3658 19.2873 49.913 16.005 47.3453C12.7228 44.7777 18.1676 19.5862 25.8208 19.5803Z" fill="#263667"/>
<path d="M44.0948 19.5684C38.0814 19.573 38.6348 27.2829 38.6376 30.3671C38.641 34.3034 37.6158 42.248 40.8371 45.2721C44.1198 48.3537 50.681 49.8907 53.9587 47.3181C57.2365 44.7454 51.748 19.5624 44.0948 19.5684Z" fill="#263667"/>
<path fill-rule="evenodd" clip-rule="evenodd" d="M33.4945 8.25078C33.4945 8.25078 33.4945 8.2506 34.9529 8.2501C36.4112 8.24961 36.4112 8.24979 36.4112 8.24979L36.4162 16.4095C36.4188 20.6775 36.4218 25.3211 36.4233 26.825C36.4252 28.7533 35.5902 29.9696 34.5416 30.6435C34.0564 30.9552 33.5779 31.1172 33.2233 31.2024C33.044 31.2455 32.8899 31.2705 32.7729 31.2852C32.7142 31.2926 32.664 31.2974 32.6239 31.3006C32.6039 31.3022 32.5863 31.3035 32.5713 31.3043L32.5507 31.3054L32.5419 31.3058L32.536 31.3061C32.536 31.3061 32.5341 31.3061 32.473 29.9323C32.412 28.5586 32.4101 28.5586 32.4101 28.5586L32.4084 28.5587L32.405 28.5588L32.399 28.5591L32.3891 28.5597L32.3782 28.5604C32.3782 28.5604 32.3805 28.5601 32.3875 28.5593C32.4069 28.5568 32.4477 28.5507 32.5023 28.5377C32.6154 28.5104 32.7604 28.4598 32.8987 28.371C33.0967 28.2437 33.5077 27.907 33.5066 26.827C33.5052 25.3225 33.5021 20.6783 33.4995 16.4104L33.4945 8.25078Z" fill="#263667"/>
<path fill-rule="evenodd" clip-rule="evenodd" d="M36.4797 8.25078C36.4797 8.25078 36.4797 8.2506 35.0214 8.2501C33.563 8.24961 33.563 8.24979 33.563 8.24979L33.5581 16.4095C33.5553 20.6775 33.5524 25.3211 33.5508 26.825C33.549 28.7533 34.3839 29.9696 35.4326 30.6435C35.9177 30.9552 36.3963 31.1172 36.7508 31.2024C36.93 31.2455 37.0842 31.2705 37.2013 31.2852C37.2601 31.2926 37.3102 31.2974 37.3502 31.3006C37.3703 31.3022 37.388 31.3035 37.403 31.3043L37.4235 31.3054L37.4323 31.3058L37.4381 31.3061C37.4381 31.3061 37.44 31.3061 37.5011 29.9323C37.5622 28.5586 37.564 28.5586 37.564 28.5586L37.5657 28.5587L37.5691 28.5588L37.5752 28.5591L37.585 28.5597L37.5961 28.5604C37.5961 28.5604 37.5936 28.5601 37.5866 28.5593C37.5672 28.5568 37.5265 28.5507 37.4718 28.5377C37.3588 28.5104 37.2138 28.4598 37.0756 28.371C36.8774 28.2437 36.4664 27.907 36.4675 26.827C36.4691 25.3225 36.472 20.6783 36.4747 16.4104L36.4797 8.25078Z" fill="#263667"/>
</svg>
