<svg width="78" height="66" viewBox="0 0 78 66" fill="none" xmlns="http://www.w3.org/2000/svg">
<path fill-rule="evenodd" clip-rule="evenodd" d="M63.0625 11H14.9375C14.0515 11 13.3333 11.6156 13.3333 12.375V53.625C13.3333 54.3844 14.0516 55 14.9375 55H63.0625C63.9485 55 64.6667 54.3844 64.6667 53.625V12.375C64.6667 11.6156 63.9485 11 63.0625 11ZM14.9375 8.25C12.2796 8.25 10.125 10.0968 10.125 12.375V53.625C10.125 55.9032 12.2796 57.75 14.9375 57.75H63.0625C65.7204 57.75 67.875 55.9032 67.875 53.625V12.375C67.875 10.0968 65.7204 8.25 63.0625 8.25H14.9375Z" fill="#263667"/>
<path fill-rule="evenodd" clip-rule="evenodd" d="M32.5834 8.25C33.4694 8.25 34.1876 8.86561 34.1876 9.625V17.875V17.8811V21.5621C34.1876 22.7206 33.6383 23.8294 32.666 24.6341L31.9908 25.1928C30.3578 26.5444 30.3349 28.7811 31.9401 30.1569C33.1757 31.2161 35.0635 31.4787 36.6266 30.8088L36.9559 30.6676C38.2426 30.1161 39.7572 30.1161 41.0441 30.6676L41.3734 30.8088C42.9364 31.4787 44.8242 31.2161 46.0599 30.1569C47.665 28.7811 47.6422 26.5444 46.0092 25.1928L45.334 24.6341C44.3617 23.8294 43.8126 22.7206 43.8126 21.5621V9.625C43.8126 8.86561 44.5308 8.25 45.4167 8.25C46.3027 8.25 47.0209 8.86561 47.0209 9.625V15.014C55.4632 17.7816 61.4584 24.7907 61.4584 33C61.4584 41.2093 55.4632 48.2184 47.0209 50.9861V56.375C47.0209 57.1344 46.3027 57.75 45.4167 57.75C44.5308 57.75 43.8126 57.1344 43.8126 56.375V44.4375C43.8126 43.2791 44.3617 42.1703 45.334 41.3656L46.0092 40.8068C47.6422 39.4554 47.665 37.2186 46.0599 35.8428C44.8242 34.7836 42.9364 34.521 41.3734 35.1909L41.0441 35.332C39.7572 35.8835 38.2426 35.8835 36.9559 35.332L36.6266 35.1909C35.0635 34.521 33.1757 34.7836 31.9401 35.8427C30.3349 37.2186 30.3578 39.4554 31.9908 40.8068L32.666 41.3655C33.6383 42.1703 34.1876 43.2791 34.1876 44.4377V47.6607V47.6667V55.6875C34.1876 56.4469 33.4694 57.0625 32.5834 57.0625C31.6974 57.0625 30.9792 56.4469 30.9792 55.6875V50.9861C22.537 48.2184 16.5417 41.2093 16.5417 33C16.5417 24.7907 22.537 17.7816 30.9792 15.014V9.625C30.9792 8.86561 31.6974 8.25 32.5834 8.25Z" fill="#263667"/>
</svg>
