<svg width="70" height="66" viewBox="0 0 70 66" fill="none" xmlns="http://www.w3.org/2000/svg">
<path fill-rule="evenodd" clip-rule="evenodd" d="M56.875 11H13.125C12.3196 11 11.6667 11.6156 11.6667 12.375V53.625C11.6667 54.3844 12.3196 55 13.125 55H56.875C57.6804 55 58.3333 54.3844 58.3333 53.625V12.375C58.3333 11.6156 57.6804 11 56.875 11ZM13.125 8.25C10.7088 8.25 8.75 10.0968 8.75 12.375V53.625C8.75 55.9032 10.7088 57.75 13.125 57.75H56.875C59.2913 57.75 61.25 55.9032 61.25 53.625V12.375C61.25 10.0968 59.2913 8.25 56.875 8.25H13.125Z" fill="#263667"/>
<path fill-rule="evenodd" clip-rule="evenodd" d="M18.9583 17.875C18.1529 17.875 17.5 18.4906 17.5 19.25V41.1939C17.5 41.9533 18.1529 42.5689 18.9583 42.5689H51.0417C51.8471 42.5689 52.5 41.9533 52.5 41.1939V19.25C52.5 18.4906 51.8471 17.875 51.0417 17.875H18.9583ZM28.4433 29.8086H20.1924V32.5412H30.1567L32.5179 28.6258L35.2762 37.6302L41.7352 29.8845H48.3429C49.152 29.8845 49.8078 29.2728 49.8078 28.5183C49.8078 27.7637 49.152 27.152 48.3429 27.152H40.3022L36.5073 31.7028L33.4062 21.5793L28.4433 29.8086Z" fill="#263667"/>
<path fill-rule="evenodd" clip-rule="evenodd" d="M18.9583 28.4336H27.5949L33.1333 19.25H18.9583V28.4336ZM18.9583 33.9162V41.1939H51.0417V29.5747C50.5986 30.5694 49.5492 31.2595 48.3429 31.2595H42.4436L34.6644 40.5885L32.0763 32.1398L31.005 33.9162H18.9583ZM32.5179 28.6258L35.2762 37.6302L41.7352 29.8845H48.3429C49.152 29.8845 49.8078 29.2728 49.8078 28.5183C49.8078 27.7637 49.152 27.152 48.3429 27.152H40.3022L36.5073 31.7028L33.4062 21.5793L28.4433 29.8086H20.1924V32.5412H30.1567L32.5179 28.6258ZM37.1191 28.7446L39.5938 25.777H48.3429C49.5492 25.777 50.5986 26.4671 51.0417 27.4618V19.25H34.2107L37.1191 28.7446ZM17.5 19.25C17.5 18.4906 18.1529 17.875 18.9583 17.875H51.0417C51.8471 17.875 52.5 18.4906 52.5 19.25V41.1939C52.5 41.9533 51.8471 42.5689 51.0417 42.5689H18.9583C18.1529 42.5689 17.5 41.9533 17.5 41.1939V19.25Z" fill="#263667"/>
<path fill-rule="evenodd" clip-rule="evenodd" d="M43.0771 48.2651H26.9231V45.5151H43.0771V48.2651Z" fill="#263667"/>
<path fill-rule="evenodd" clip-rule="evenodd" d="M33.5417 48.1249V39.4819H36.4584V48.1249H33.5417Z" fill="#263667"/>
</svg>
