<svg width="70" height="66" viewBox="0 0 70 66" fill="none" xmlns="http://www.w3.org/2000/svg">
<path fill-rule="evenodd" clip-rule="evenodd" d="M56.875 11H13.125C12.3196 11 11.6667 11.6156 11.6667 12.375V53.625C11.6667 54.3844 12.3196 55 13.125 55H56.875C57.6804 55 58.3333 54.3844 58.3333 53.625V12.375C58.3333 11.6156 57.6804 11 56.875 11ZM13.125 8.25C10.7088 8.25 8.75 10.0968 8.75 12.375V53.625C8.75 55.9032 10.7088 57.75 13.125 57.75H56.875C59.2913 57.75 61.25 55.9032 61.25 53.625V12.375C61.25 10.0968 59.2913 8.25 56.875 8.25H13.125Z" fill="#263667"/>
<path fill-rule="evenodd" clip-rule="evenodd" d="M29.8794 22.4536C27.4835 22.8438 25.7375 24.7581 25.4529 27.0348L23.3333 44H46.6666L44.544 27.0119C44.2609 24.7464 42.5313 22.8354 40.1481 22.4425C36.5745 21.8534 33.5971 21.8479 29.8794 22.4536ZM31.6898 28.3907C31.7897 27.6372 31.2227 26.95 30.4235 26.8558C29.6244 26.7616 28.8955 27.2961 28.7956 28.0497L27.4762 38.0021C27.3762 38.7556 27.9432 39.4428 28.7424 39.537C29.5415 39.6312 30.2704 39.0967 30.3703 38.3431L31.6898 28.3907Z" fill="#263667"/>
<path fill-rule="evenodd" clip-rule="evenodd" d="M32.7751 24.8556C34.045 25.7068 34.7906 27.1719 34.5839 28.7318L33.2645 38.6842C33.1279 39.7149 32.5989 40.609 31.8366 41.25H43.3862L41.6474 27.3336C41.4981 26.1386 40.6208 25.3121 39.6459 25.1513C37.2089 24.7497 35.1108 24.6463 32.7751 24.8556ZM44.544 27.0119C44.2609 24.7464 42.5313 22.8354 40.1481 22.4425C36.5745 21.8534 33.5971 21.8479 29.8794 22.4536C27.4835 22.8438 25.7375 24.7581 25.4529 27.0348L23.3333 44H46.6666L44.544 27.0119ZM31.6898 28.3907L30.3703 38.3431C30.2704 39.0967 29.5415 39.6312 28.7424 39.537C27.9432 39.4428 27.3762 38.7556 27.4762 38.0021L28.7956 28.0497C28.8955 27.2961 29.6244 26.7616 30.4235 26.8558C31.2227 26.95 31.7897 27.6372 31.6898 28.3907Z" fill="#263667"/>
<path fill-rule="evenodd" clip-rule="evenodd" d="M48.125 49.5H21.875V46.75H48.125V49.5Z" fill="#263667"/>
<path d="M18.9583 33C18.9583 33.4635 18.9804 33.9221 19.0236 34.375H14.5833V31.625H19.0236C18.9804 32.0779 18.9583 32.5365 18.9583 33Z" fill="#263667"/>
<path d="M21.893 24.2775C21.3332 25.0238 20.8435 25.8201 20.4325 26.6579L16.5894 24.5658L18.0477 22.1843L21.893 24.2775Z" fill="#263667"/>
<path d="M28.2735 19.265C27.3849 19.6525 26.5404 20.1143 25.7488 20.6421L23.5288 17.0166L26.0546 15.6416L28.2735 19.265Z" fill="#263667"/>
<path d="M35.0001 17.875C34.5085 17.875 34.0221 17.8959 33.5417 17.9366V13.75H36.4584V17.9366C35.978 17.8959 35.4917 17.875 35.0001 17.875Z" fill="#263667"/>
<path d="M44.2512 20.6421C43.4596 20.1143 42.6151 19.6525 41.7266 19.265L43.9454 15.6416L46.4713 17.0166L44.2512 20.6421Z" fill="#263667"/>
<path d="M49.5675 26.6579C49.1565 25.8201 48.6668 25.0238 48.1069 24.2775L51.9523 22.1843L53.4106 24.5658L49.5675 26.6579Z" fill="#263667"/>
<path d="M51.0417 33C51.0417 32.5365 51.0195 32.0779 50.9763 31.625H55.4167V34.375H50.9763C51.0195 33.9221 51.0417 33.4635 51.0417 33Z" fill="#263667"/>
</svg>
