<svg width="70" height="66" viewBox="0 0 70 66" fill="none" xmlns="http://www.w3.org/2000/svg">
<path fill-rule="evenodd" clip-rule="evenodd" d="M56.875 11H13.125C12.3196 11 11.6667 11.6156 11.6667 12.375V53.625C11.6667 54.3844 12.3196 55 13.125 55H56.875C57.6804 55 58.3333 54.3844 58.3333 53.625V12.375C58.3333 11.6156 57.6804 11 56.875 11ZM13.125 8.25C10.7088 8.25 8.75 10.0968 8.75 12.375V53.625C8.75 55.9032 10.7088 57.75 13.125 57.75H56.875C59.2913 57.75 61.25 55.9032 61.25 53.625V12.375C61.25 10.0968 59.2913 8.25 56.875 8.25H13.125Z" fill="#263667"/>
<path fill-rule="evenodd" clip-rule="evenodd" d="M45.9815 38.6795C45.397 39.098 44.715 39.3921 43.9886 39.542C43.9765 39.5445 43.9644 39.5469 43.9523 39.5494C43.598 39.62 43.2335 39.6564 42.8646 39.6564H42.0833V41.2834H43.9523C44.8359 41.2998 45.7134 41.3948 46.5714 41.566C47.4084 41.7329 48.2269 41.9723 49.0153 42.2818C50.612 42.9087 52.0527 43.8103 53.254 44.9347C54.4553 46.0592 55.3933 47.384 56.0137 48.8325C56.6341 50.281 56.9244 51.8243 56.8681 53.3731V57.75H13.125V51.7461C13.206 48.9418 14.5202 46.277 16.7863 44.3218C19.0371 42.3797 22.0496 41.2909 25.1867 41.2834C25.2083 41.2833 25.2297 41.2833 25.2512 41.2834H27.5234V33.6241C25.4666 32.1991 23.9626 30.2393 23.2219 28.0187C22.4811 25.798 22.5404 23.4274 23.3915 21.2381C24.2428 19.0489 25.8433 17.1504 27.9694 15.8078C30.0955 14.4653 32.6411 13.7458 35.2504 13.75C37.9467 13.7686 40.566 14.5505 42.7268 15.9822C44.8876 17.4138 46.4771 19.4205 47.2637 21.7096C47.5176 22.5607 47.7996 25.0638 47.7996 25.0638C48.2509 26.14 48.7302 27.1913 49.2096 28.2427L49.8864 29.7695C50.1374 30.1802 50.3083 30.6255 50.3923 31.0867C50.3929 31.0897 50.3934 31.0929 50.394 31.0961C50.394 31.0966 50.394 31.0972 50.3942 31.0976C50.412 31.4056 50.3011 31.7085 50.0828 31.9483C49.8642 32.1886 49.5531 32.3487 49.2096 32.3976C49.1865 32.3976 49.1152 32.404 49.0162 32.4126C48.6309 32.4464 47.8278 32.5171 47.8278 32.3976V35.2761C47.8204 36.4401 47.2942 37.5543 46.3642 38.375C46.242 38.4827 46.1142 38.5843 45.9815 38.6795ZM44.9111 35.2656C44.9069 35.6461 44.7353 36.0458 44.371 36.3673C43.9988 36.6957 43.4599 36.9064 42.8645 36.9064H42.0833C40.4725 36.9064 39.1666 38.1377 39.1666 39.6564V41.2834C39.1666 42.8021 40.4725 44.0334 42.0833 44.0334H43.9221C45.2963 44.062 46.6465 44.3307 47.8943 44.8206C49.1501 45.3136 50.2718 46.0184 51.1992 46.8864C52.1261 47.754 52.8401 48.767 53.3092 49.8622C53.7781 50.957 53.9954 52.1176 53.9532 53.2788C53.9521 53.3101 53.9515 53.3416 53.9515 53.3731V55H16.0417V51.7865C16.1101 49.7666 17.061 47.8125 18.7553 46.3506C20.4651 44.8755 22.7916 44.0277 25.2439 44.0334H27.5234C29.1343 44.0334 30.4401 42.8021 30.4401 41.2834V33.6241C30.4401 32.7491 29.9984 31.9263 29.2505 31.408C27.6751 30.3167 26.5523 28.8368 26.0041 27.1935C25.4568 25.5529 25.5 23.8051 26.1301 22.1847C26.7611 20.5615 27.9598 19.1237 29.5924 18.0927C31.2248 17.062 33.1984 16.4982 35.2373 16.5C37.3511 16.5161 39.3873 17.1306 41.0499 18.2322C42.692 19.3203 43.8751 20.8188 44.4672 22.4945C44.5286 22.7293 44.6326 23.3307 44.7351 24.0649C44.7837 24.4126 44.8249 24.737 44.8543 24.9752C44.8687 25.0939 44.8802 25.1903 44.8879 25.2563L44.8967 25.3312L44.8992 25.3536C44.8992 25.3538 44.8992 25.3536 44.8992 25.3536C44.927 25.6007 44.9903 25.8437 45.0871 26.0746C45.5543 27.189 46.048 28.2718 46.5224 29.312L46.5242 29.316L46.7562 29.8392C45.6756 30.2419 44.9111 31.2356 44.9111 32.3976V35.2656Z" fill="#263667"/>
<path d="M34.9999 43.3125C34.9999 45.211 34.347 46.75 33.5416 46.75C32.7361 46.75 32.0833 45.211 32.0833 43.3125C32.0833 41.414 32.7361 39.875 33.5416 39.875C34.347 39.875 34.9999 41.414 34.9999 43.3125Z" fill="#263667"/>
<path fill-rule="evenodd" clip-rule="evenodd" d="M33.5416 46.75C34.347 46.75 34.9999 45.211 34.9999 43.3125C34.9999 41.414 34.347 39.875 33.5416 39.875C32.7361 39.875 32.0833 41.414 32.0833 43.3125C32.0833 45.211 32.7361 46.75 33.5416 46.75Z" fill="#263667"/>
<path d="M37.9167 43.3125C37.9167 45.211 37.2638 46.75 36.4583 46.75C35.6529 46.75 35 45.211 35 43.3125C35 41.414 35.6529 39.875 36.4583 39.875C37.2638 39.875 37.9167 41.414 37.9167 43.3125Z" fill="#263667"/>
<path fill-rule="evenodd" clip-rule="evenodd" d="M36.4583 46.75C37.2638 46.75 37.9167 45.211 37.9167 43.3125C37.9167 41.414 37.2638 39.875 36.4583 39.875C35.6529 39.875 35 41.414 35 43.3125C35 45.211 35.6529 46.75 36.4583 46.75Z" fill="#263667"/>
<path fill-rule="evenodd" clip-rule="evenodd" d="M35.0001 48.125C35.8055 48.125 36.4584 48.7406 36.4584 49.5V55.6875C36.4584 56.4469 35.8055 57.0625 35.0001 57.0625C34.1946 57.0625 33.5417 56.4469 33.5417 55.6875V49.5C33.5417 48.7406 34.1946 48.125 35.0001 48.125Z" fill="#263667"/>
</svg>
