<svg width="70" height="66" viewBox="0 0 70 66" fill="none" xmlns="http://www.w3.org/2000/svg">
<path fill-rule="evenodd" clip-rule="evenodd" d="M41.9117 31.1758C41.908 31.1795 41.9044 31.1833 41.9006 31.1871C41.9006 31.1872 41.8996 31.1882 41.9006 31.1871C41.901 31.1866 41.9021 31.1856 41.9026 31.185L41.9067 31.1809L41.9093 31.1781L41.9117 31.1758ZM40.8334 30.25C39.7544 29.325 39.7547 29.3246 39.7551 29.3242L39.7579 29.3213L39.7621 29.3171L39.7719 29.3072L39.798 29.2812C39.8181 29.2615 39.8439 29.2368 39.8754 29.2078C39.9381 29.1499 40.0236 29.0748 40.1312 28.9883C40.3459 28.816 40.6531 28.5952 41.0483 28.3766C41.8398 27.9388 43.0038 27.5 44.4792 27.5C47.1357 27.5 49.5834 29.5773 49.5834 33.0687C49.5834 36.0015 48.1892 38.0647 46.5941 39.3674C45.8076 40.0098 44.9726 40.4691 44.2256 40.7712C43.5129 41.0594 42.7674 41.25 42.1592 41.25C41.3537 41.25 40.7008 40.6344 40.7008 39.875C40.7008 39.1156 41.3537 38.5 42.1592 38.5C42.1587 38.5 42.1587 38.5 42.1592 38.5C42.1622 38.4999 42.1858 38.499 42.2325 38.4926C42.2843 38.4854 42.3534 38.4728 42.439 38.4524C42.6112 38.4115 42.8285 38.3439 43.0757 38.244C43.5716 38.0434 44.1451 37.7293 44.6844 37.2889C45.7408 36.4259 46.6667 35.086 46.6667 33.0687C46.6667 30.9226 45.3468 30.25 44.4792 30.25C43.6346 30.25 42.9757 30.4987 42.5242 30.7484C42.298 30.8736 42.1287 30.9965 42.0224 31.082C41.9694 31.1245 41.9333 31.1567 41.9145 31.174L41.9006 31.1871C41.3574 31.7373 40.444 31.7746 39.8524 31.2674C39.2565 30.7566 39.2133 29.886 39.7551 29.3242L40.8334 30.25Z" fill="#263667"/>
<path d="M29.8958 31.625C23.3333 31.625 18.9583 37.125 18.9583 39.875C19.5263 39.9129 20.4166 39.875 20.4166 39.875C20.4166 39.875 22.5532 36.4375 27.7083 36.4375C30.6838 36.4375 33.287 37.5911 34.4105 39.3232C34.9489 40.153 33.9464 40.8896 32.946 40.6513C30.3626 40.0361 25.7903 39.4042 21.8749 41.25V44C24.5883 42.5381 28.1259 42.8248 30.8447 43.4141C33.4414 43.9769 34.9999 46.3004 34.9999 48.8125V55H38.7645V42.1437C38.7645 38.4476 40.2043 37.5578 42.8589 35.6962C43.3788 35.3317 43.5406 34.668 43.2509 34.1216C42.8058 33.2822 41.5481 33.1588 40.7087 33.663C39.8948 34.1517 38.8189 34.5469 37.4757 34.5469C35.7291 34.5469 34.016 31.625 29.8958 31.625Z" fill="#263667"/>
<path fill-rule="evenodd" clip-rule="evenodd" d="M56.875 11H13.125C12.3196 11 11.6667 11.6156 11.6667 12.375V53.625C11.6667 54.3844 12.3196 55 13.125 55H56.875C57.6804 55 58.3333 54.3844 58.3333 53.625V12.375C58.3333 11.6156 57.6804 11 56.875 11ZM13.125 8.25C10.7088 8.25 8.75 10.0968 8.75 12.375V53.625C8.75 55.9032 10.7088 57.75 13.125 57.75H56.875C59.2913 57.75 61.25 55.9032 61.25 53.625V12.375C61.25 10.0968 59.2913 8.25 56.875 8.25H13.125Z" fill="#263667"/>
<path fill-rule="evenodd" clip-rule="evenodd" d="M30.6249 49.5C30.6249 47.9812 29.3191 46.75 27.7082 46.75H24.7916C24.3329 46.75 24.0881 46.663 23.9686 46.6048C23.8469 46.5457 23.7487 46.4643 23.6586 46.3463C23.5607 46.2183 23.4737 46.0466 23.4124 45.8442C23.35 45.6379 23.3332 45.4625 23.3332 45.375V41.25C23.3332 39.8545 22.2246 38.6803 20.7545 38.5186L20.4166 41.25V45.375C20.4166 46.75 21.2916 49.5 24.7916 49.5H27.7082V57.75H48.1249V46.8397C48.1249 44.1927 49.5803 41.7899 51.418 39.7887C52.8719 38.2052 54.001 36.3975 54.6568 34.4626C55.7492 31.2391 55.6617 27.7979 54.4065 24.62C53.1513 21.4419 50.791 18.686 47.6556 16.7371C44.5202 14.7883 40.7663 13.744 36.9183 13.75C32.942 13.7768 29.0794 14.912 25.8929 16.9904C22.7063 19.0685 20.3623 21.9813 19.2024 25.3044C18.828 26.5397 18.4121 30.1732 18.4121 30.1732C17.7468 31.7356 17.0398 33.2616 16.3328 34.7877L15.3347 37.004C14.9622 37.6044 14.7091 38.2554 14.5861 38.9297C14.5591 39.3776 14.7225 39.8181 15.0449 40.1669C15.3674 40.5158 15.8262 40.748 16.3328 40.8191C16.4992 40.8191 20.4166 41.25 20.4166 41.25C20.7545 38.5186 20.7546 38.5186 20.7545 38.5186L20.1374 38.4509C19.7667 38.4105 19.2702 38.3565 18.7681 38.3023C18.4924 38.2727 18.214 38.2429 17.9533 38.2153C17.9766 38.1703 17.9986 38.1248 18.0194 38.0789L19.0116 35.8753L19.0136 35.8712C19.7152 34.3565 20.437 32.7987 21.1187 31.198C21.2182 30.9642 21.2832 30.7188 21.312 30.4684L21.3121 30.4669L21.3161 30.4325L21.3292 30.3211C21.3409 30.2235 21.3579 30.0816 21.3796 29.907C21.4232 29.5569 21.4851 29.0794 21.5579 28.5666C21.7098 27.4952 21.8765 26.5217 21.9936 26.1047C22.9532 23.401 24.8827 20.9928 27.552 19.252C30.2415 17.498 33.5271 16.5245 36.9313 16.5C40.219 16.4963 43.4072 17.3903 46.0503 19.0332C48.6932 20.6758 50.644 22.9739 51.6732 25.5796C52.701 28.1816 52.7716 30.9902 51.8785 33.6255C51.357 35.1643 50.4412 36.6511 49.213 37.9887C47.1749 40.2081 45.2082 43.2357 45.2082 46.8397V55H30.6249V49.5Z" fill="#263667"/>
</svg>
