<svg width="70" height="66" viewBox="0 0 70 66" fill="none" xmlns="http://www.w3.org/2000/svg">
<path fill-rule="evenodd" clip-rule="evenodd" d="M56.875 11H13.125C12.3196 11 11.6667 11.6156 11.6667 12.375V53.625C11.6667 54.3844 12.3196 55 13.125 55H56.875C57.6804 55 58.3333 54.3844 58.3333 53.625V12.375C58.3333 11.6156 57.6804 11 56.875 11ZM13.125 8.25C10.7088 8.25 8.75 10.0968 8.75 12.375V53.625C8.75 55.9032 10.7088 57.75 13.125 57.75H56.875C59.2913 57.75 61.25 55.9032 61.25 53.625V12.375C61.25 10.0968 59.2913 8.25 56.875 8.25H13.125Z" fill="#263667"/>
<path fill-rule="evenodd" clip-rule="evenodd" d="M25.25 9.41211C25.25 9.63232 25.251 14.5708 25.253 14.7683C25.3022 19.7289 25.9832 22.1606 27.3208 23.4601C28.4956 24.6016 30.4762 25.1541 34.1955 25.2577C34.49 22.4585 35.674 20.225 37.4139 18.6337C39.4163 16.8023 42.0682 15.9022 44.6929 15.9022C47.3177 15.9022 49.9694 16.8023 51.972 18.6337C53.9917 20.4807 55.2622 23.1932 55.2622 26.6509V38.1077C55.2622 41.3454 54.692 44.7711 52.9255 47.4302C51.0929 50.1886 48.0615 51.981 43.5783 51.981C38.9651 51.981 35.7628 49.3923 32.9332 47.0904L32.8431 47.017C29.9621 44.6732 27.3717 42.5654 23.6983 42.0871C22.1557 42.1022 21.0835 42.4921 20.3129 43.0243C19.513 43.5767 18.9389 44.3517 18.5327 45.2479C17.7025 47.08 17.6751 49.191 17.7152 50.0981C17.7232 50.2779 17.7273 52.2267 17.7302 54.0581C17.7315 54.9899 17.7327 55.9127 17.7333 56.6024L17.7343 57.7479L14.8176 57.7509L14.8166 56.605C14.816 55.9154 14.8148 54.9932 14.8135 54.0621C14.8121 53.1308 14.8102 52.1912 14.808 51.4669C14.8068 51.1044 14.8057 50.797 14.8042 50.5716C14.8036 50.4587 14.8029 50.3679 14.8022 50.3016C14.8017 50.2568 14.8013 50.2312 14.8011 50.2191C14.801 50.2103 14.801 50.2088 14.8011 50.2126C14.7556 49.1843 14.7602 46.5734 15.8507 44.1673C16.4049 42.9445 17.2634 41.7216 18.5895 40.8057C19.9297 39.8802 21.6496 39.3365 23.7916 39.3365C24.3674 39.3365 24.8998 39.3487 25.4058 39.3603C26.3274 39.3813 27.1615 39.4004 28.012 39.3404C29.2535 39.2526 30.2293 39.0005 31.0229 38.4396C32.5199 37.3817 33.9418 34.7892 34.1077 28.0075C30.2463 27.9035 27.2345 27.3249 25.2276 25.3753C22.9965 23.2076 22.3851 19.7045 22.3365 14.794C22.3343 14.5794 22.3333 9.61784 22.3333 9.41211H25.25ZM30.4467 41.7231C31.9625 42.6644 33.2988 43.7534 34.5425 44.7671C34.6418 44.8479 34.7403 44.9285 34.8386 45.0082C37.7703 47.3933 40.1951 49.231 43.5783 49.231C47.0911 49.231 49.1723 47.8989 50.4536 45.9703C51.8008 43.9426 52.3455 41.1192 52.3455 38.1077V26.6509C52.3455 23.8596 51.3382 21.8851 49.9413 20.6076C48.5273 19.3144 46.6236 18.6522 44.6929 18.6522C42.7623 18.6522 40.8586 19.3144 39.4446 20.6076C38.0477 21.8851 37.0404 23.8596 37.0404 26.6509C37.0404 34.4742 35.6008 38.6412 32.7722 40.64C32.035 41.1611 31.2472 41.5014 30.4467 41.7231Z" fill="#263667"/>
<path d="M53.8037 34.4624C47.1759 39.8743 43.3095 29.0506 35.0248 34.4624L32.8154 38.6285L27.2922 41.2324C27.2922 41.2324 37.7864 50.606 43.862 50.606C49.9375 50.606 54.9084 45.3985 53.8037 34.4624Z" fill="#263667"/>
</svg>
