<svg width="70" height="66" viewBox="0 0 70 66" fill="none" xmlns="http://www.w3.org/2000/svg">
<path fill-rule="evenodd" clip-rule="evenodd" d="M56.875 11H13.125C12.3196 11 11.6667 11.6156 11.6667 12.375V53.625C11.6667 54.3844 12.3196 55 13.125 55H56.875C57.6804 55 58.3333 54.3844 58.3333 53.625V12.375C58.3333 11.6156 57.6804 11 56.875 11ZM13.125 8.25C10.7088 8.25 8.75 10.0968 8.75 12.375V53.625C8.75 55.9032 10.7088 57.75 13.125 57.75H56.875C59.2913 57.75 61.25 55.9032 61.25 53.625V12.375C61.25 10.0968 59.2913 8.25 56.875 8.25H13.125Z" fill="#263667"/>
<path fill-rule="evenodd" clip-rule="evenodd" d="M17.4724 25.1399C17.1693 24.6314 17.2958 24.0183 17.8709 23.4705C18.1502 23.2045 18.4457 23.0565 18.6452 23.0078C18.673 23.001 18.6953 22.9968 18.7128 22.994C20.1315 24.1747 21.1296 24.7433 22.221 24.7491C22.4708 24.7503 22.6852 24.7216 22.8337 24.6993C22.8971 24.6897 22.9445 24.6821 22.9836 24.6759C23.0534 24.6648 23.097 24.6579 23.1594 24.651C23.2694 24.6391 23.4085 24.6314 23.6755 24.7007L24.4493 22.0493C23.7877 21.8775 23.2694 21.8708 22.8246 21.9193C22.6814 21.9349 22.5255 21.9596 22.4322 21.9745L22.3738 21.9837C22.2751 21.9985 22.2468 21.9991 22.2373 21.9991L22.2331 21.9988C22.2322 21.9987 22.2252 21.9978 22.2107 21.9939C22.1806 21.9856 22.1074 21.9615 21.9779 21.8936C21.7046 21.7499 21.2697 21.4584 20.5718 20.873C19.7469 20.1809 18.713 20.1511 17.9159 20.3452C17.1196 20.5391 16.3782 20.9835 15.7984 21.5357C14.6553 22.6242 13.7751 24.5498 14.9296 26.4871C15.5913 27.597 16.3398 28.518 16.9888 29.2159C16.9694 28.604 17.1422 28.0539 17.5258 27.6561C17.8749 27.2939 18.3523 27.1061 18.8905 27.08C18.4225 26.5452 17.9207 25.892 17.4724 25.1399Z" fill="#263667"/>
<path d="M23.7898 29.483C25.4557 30.9876 25.9203 33.0437 24.8276 34.0757C23.7349 35.1078 21.4985 34.7247 19.8328 33.2202C18.1669 31.7156 17.7023 29.6595 18.795 28.6274C19.8878 27.5954 22.124 27.9785 23.7898 29.483Z" fill="#263667"/>
<path fill-rule="evenodd" clip-rule="evenodd" d="M52.8881 25.1399C53.1911 24.6313 53.0647 24.0183 52.4894 23.4705C52.2103 23.2046 51.9147 23.0564 51.7153 23.0078C51.6874 23.0011 51.6651 22.9968 51.6476 22.9941C50.2288 24.1748 49.2307 24.7432 48.1395 24.749C47.8897 24.7504 47.6753 24.7216 47.5267 24.6992C47.4632 24.6897 47.416 24.6822 47.3769 24.676C47.307 24.6648 47.2634 24.6578 47.201 24.6511C47.0911 24.6391 46.9518 24.6314 46.6848 24.7007L45.9111 22.0492C46.5728 21.8776 47.0911 21.8708 47.5359 21.9192C47.6791 21.9349 47.8348 21.9597 47.9282 21.9745L47.9866 21.9836C48.0852 21.9986 48.1137 21.9991 48.123 21.999L48.1272 21.9989C48.1282 21.9987 48.1352 21.9978 48.1498 21.9938C48.1797 21.9857 48.2529 21.9616 48.3824 21.8935C48.6557 21.75 49.0906 21.4585 49.7885 20.8729C50.6135 20.181 51.6475 20.1511 52.4446 20.3451C53.2409 20.5392 53.9823 20.9834 54.5621 21.5356C55.705 22.6242 56.5854 24.5499 55.4307 26.4871C54.7692 27.597 54.0205 28.5179 53.3717 29.216C53.3911 28.6039 53.2183 28.0539 52.8347 27.6562C52.4856 27.294 52.0081 27.1062 51.4699 27.0799C51.9378 26.5452 52.4398 25.8919 52.8881 25.1399Z" fill="#263667"/>
<path d="M46.5708 29.483C44.905 30.9874 44.4403 33.0437 45.5331 34.0757C46.6258 35.1076 48.862 34.7245 50.5279 33.2202C52.1937 31.7156 52.6583 29.6593 51.5656 28.6274C50.4729 27.5954 48.2367 27.9785 46.5708 29.483Z" fill="#263667"/>
<path d="M35.1606 19.25C19.3604 19.25 25.2855 30.3086 29.2355 30.3086C32.5127 30.3086 30.7034 42.5718 32.8125 46.75C33.2457 47.608 34.3754 46.75 35.1606 46.75C35.9456 46.75 36.7862 47.608 37.1875 46.75C39.1423 42.5718 37.1502 30.3086 40.4272 30.3086C44.3773 30.3086 50.9608 19.25 35.1606 19.25Z" fill="#263667"/>
</svg>
