<svg width="70" height="66" viewBox="0 0 70 66" fill="none" xmlns="http://www.w3.org/2000/svg">
<path fill-rule="evenodd" clip-rule="evenodd" d="M56.875 11H13.125C12.3196 11 11.6667 11.6156 11.6667 12.375V53.625C11.6667 54.3844 12.3196 55 13.125 55H56.875C57.6804 55 58.3333 54.3844 58.3333 53.625V12.375C58.3333 11.6156 57.6804 11 56.875 11ZM13.125 8.25C10.7088 8.25 8.75 10.0968 8.75 12.375V53.625C8.75 55.9032 10.7088 57.75 13.125 57.75H56.875C59.2913 57.75 61.25 55.9032 61.25 53.625V12.375C61.25 10.0968 59.2913 8.25 56.875 8.25H13.125Z" fill="#263667"/>
<path fill-rule="evenodd" clip-rule="evenodd" d="M33.6324 17.8794C32.9807 18.8261 32.5174 19.7811 32.1895 20.6624C31.7668 21.7987 31.5649 22.8203 31.4684 23.5621C31.42 23.9342 31.3977 24.2389 31.3875 24.4565C31.3824 24.5654 31.3803 24.6529 31.3797 24.7163C31.3793 24.748 31.3793 24.7738 31.3794 24.7931L31.3796 24.8176L31.3797 24.8263L31.3799 24.8297V24.8312C31.3799 24.8318 31.3799 24.8325 32.8379 24.8052C34.2069 24.7795 34.2906 24.7786 34.2957 24.779L34.2961 24.7453C34.2965 24.7111 34.2977 24.6544 34.3014 24.5777C34.3085 24.424 34.3251 24.1909 34.3635 23.8971C34.4402 23.3073 34.6024 22.4851 34.9417 21.5726C35.3525 20.4685 36.0168 19.2446 37.1014 18.132C39.1134 18.4455 39.9301 18.9904 40.6143 19.447C41.2647 19.8811 41.7956 20.2353 43.1197 20.2353C44.4868 20.2353 46.4007 19.7822 48.3145 19.329C51.1854 18.6494 54.0561 17.9697 55.0814 18.8193C56.7902 20.2353 51.6637 30.6196 46.5374 30.6196C43.8986 30.6196 42.3164 32.7188 40.7806 34.7561C39.3327 36.6769 37.9262 38.5427 35.7149 38.5427C34.2244 38.5427 33.0994 38.9071 32.101 39.3974V32.7545C32.101 32.4227 32.2731 32.0926 32.617 31.8088C32.9886 31.5023 33.3836 31.3978 33.5398 31.3978V28.6478C32.5372 28.6478 31.4837 29.0896 30.6964 29.7393C29.8814 30.4115 29.1844 31.4472 29.1844 32.7545V33.5563C27.8478 34.0628 25.806 34.3059 23.5819 32.6581C19.7056 29.7863 17.4904 33.8071 20.8131 36.1042C23.1136 37.6946 27.0068 37.0828 29.1844 36.5557V41.0393C28.1589 41.5566 27.0068 41.9479 25.462 41.9479C23.5934 41.9479 22.9758 43.6066 22.3194 45.3692C21.5752 47.3678 20.7811 49.5002 18.0571 49.5002C12.9307 49.5002 14.1956 31.9935 17.2491 25.2168C20.3025 18.44 24.4809 17.8752 33.025 17.8752C33.2336 17.8752 33.436 17.8766 33.6324 17.8794Z" fill="#263667"/>
<path fill-rule="evenodd" clip-rule="evenodd" d="M29.1846 57.0625V41.25H32.1012V57.0625H29.1846Z" fill="#263667"/>
</svg>
