<?xml version="1.0" encoding="UTF-8"?>
<svg xmlns="http://www.w3.org/2000/svg" viewBox="0 0 128 128">
  <g id="a" data-name="25 - Scalpel and Scissors"/>
  <g id="b" data-name="24 - Heart Beat"/>
  <g id="c" data-name="23 - Eye Dropper"/>
  <g id="d" data-name="22 - Pills Bottle"/>
  <g id="e" data-name="21 - Bone Crack"/>
  <g id="f" data-name="20 - Intestines"/>
  <g id="g" data-name="19 - Microscope"/>
  <g id="h" data-name="18 - Nose"/>
  <g id="i" data-name="17 - Doctor Coat"/>
  <g id="j" data-name="16 - Ear"/>
  <g id="k" data-name="15 - Heart"/>
  <g id="l" data-name="14 - Kidneys"/>
  <g id="m" data-name="13 - Emergency Call"/>
  <g id="n" data-name="12 - X-Ray"/>
  <g id="o" data-name="11 - Lungs"/>
  <g id="p" data-name="10 - Dental Care"/>
  <g id="q" data-name="9 - Syringe"/>
  <g id="r" data-name="8 - Blood Bag"/>
  <g id="s" data-name="7 - Hospital Bed"/>
  <g id="t" data-name="6 - Thermometer"/>
  <g id="u" data-name="5 - Ambulance"/>
  <g id="v" data-name="4 - Pills"/>
  <g id="w" data-name="3 - Stethoscope">
    <g>
      <path d="M24.624,60.4467c-9.584,0-17.398,7.812-17.398,17.398,0,6.476,3.578,12.274,9.07,15.266,1.47,.796,2.868,2.686,2.868,3.96l-.032,9.148c0,1.016,.814,1.836,1.828,1.844h7.33c1.014,0,1.842-.82,1.834-1.844l-.022-9.148c-.008-1.274,1.374-3.164,2.852-3.96,5.484-2.992,9.07-8.79,9.07-15.266,0-9.586-7.814-17.398-17.4-17.398Z" fill="#3a4d5c"/>
      <path d="M19.148,100.7347l-.016,5.484c0,1.016,.814,1.836,1.828,1.844h7.33c1.014,0,1.842-.828,1.834-1.844l-.014-5.484h-10.962Z" fill="#143441"/>
      <path d="M24.624,60.4467c-.624,0-1.234,.03-1.834,.094,8.734,.92,15.57,8.336,15.57,17.304,0,6.476-3.586,12.274-9.07,15.266-1.47,.796-2.852,2.686-2.852,3.96l.022,9.148c.008,1.016-.82,1.844-1.836,1.844h3.666c1.014,0,1.842-.828,1.834-1.844l-.022-9.148c-.008-1.274,1.382-3.164,2.852-3.96,5.484-2.992,9.07-8.79,9.07-15.266,0-9.586-7.814-17.398-17.4-17.398Z" fill="#143441"/>
      <path d="M18.946,104.3987c-1.008,0-1.822,.82-1.828,1.82l-.024,10.992c0,2.118,1.75,3.884,3.866,3.884h7.33c2.108,0,3.858-1.766,3.866-3.884l-.016-10.992c0-1-.82-1.82-1.828-1.82h-11.366Z" fill="#d0e2ee"/>
      <path d="M14.554,77.8447c0-5.54,4.524-10.086,10.07-10.086,5.54,0,10.072,4.546,10.072,10.086s-4.532,10.07-10.072,10.07c-5.546,0-10.07-4.532-10.07-10.07Z" fill="#d0e2ee"/>
      <path d="M29.656,69.1247c.868,1.494,1.376,3.22,1.376,5.056,0,5.538-4.532,10.07-10.072,10.07-1.836,0-3.554-.5-5.038-1.368,1.75,3,4.992,5.032,8.702,5.032,5.54,0,10.072-4.532,10.072-10.07,0-3.712-2.04-6.968-5.04-8.72Z" fill="#a8c2e1"/>
      <path d="M19.922,69.9767c-.368,.024-.718,.156-1,.376-2.054,1.562-3.718,4.14-3.718,7.016,0,1.008,.812,1.828,1.82,1.828,1.016,.008,1.836-.814,1.844-1.828,0-.954,1.336-3.384,2.28-4.11,.806-.61,.954-1.766,.336-2.562-.366-.492-.952-.758-1.562-.72Z" fill="#f6fbfe"/>
      <path d="M13.876,66.4607c-.36,.04-.696,.188-.978,.416,0,0-4.702,3.882-4.702,10.374,.008,1.008,.82,1.82,1.828,1.82,1.008,.008,1.836-.812,1.836-1.82,0-4.734,3.382-7.562,3.382-7.562,.774-.648,.882-1.806,.226-2.578-.39-.47-.984-.712-1.592-.65Z" fill="#5f8ea2"/>
      <path d="M19.876,105.4607c-1,.008-1.822,.822-1.822,1.83v4.406c-.008,1.014,.814,1.836,1.822,1.844,1.014-.008,1.834-.83,1.828-1.844v-4.406c0-1.008-.822-1.822-1.828-1.83Z" fill="#f6fbfe"/>
      <path d="M112.124,79.2667c5.416-6.634,8.65-15.11,8.65-24.328V23.5867c0-8.07-6.57-14.64-14.642-14.64h-5.5c-1.008,.008-1.82,.82-1.828,1.828v7.328c.008,1.008,.82,1.82,1.828,1.82h3.664c2.196,0,3.47,.468,4.22,1.18,.742,.702,1.218,1.882,1.266,4v29.836c.008,7.164-2.712,13.664-7.188,18.554l9.53,5.774Z" fill="#d0e2ee"/>
      <path d="M58.532,73.6407c-4.556-4.906-7.344-11.468-7.344-18.702V25.1027c.046-2.118,.538-3.298,1.288-4,.742-.712,2-1.164,4.204-1.164h3.664c1.008,0,1.828-.828,1.828-1.836v-7.328c-.008-1.008-.82-1.82-1.828-1.828h-5.492c-8.07,0-14.656,6.57-14.656,14.64v31.352c0,9.266,3.28,17.78,8.734,24.422l9.602-5.72Z" fill="#d0e2ee"/>
      <path d="M55.368,20.0087c.398-.04,.828-.07,1.312-.07h3.664c1.008-.008,1.828-.828,1.82-1.836v-7.328c0-1.008-.812-1.82-1.82-1.828h-5.024l.048,11.062Z" fill="#a8c2e1"/>
      <path d="M72.954,5.5247l-11.016,1.366c-1.938,.242-3.422,1.922-3.422,3.884v7.328c0,1.952,1.484,3.64,3.422,3.874l11.016,1.352c2.03,.258,3.866-1.374,3.866-3.414V8.9467c0-2.04-1.836-3.672-3.866-3.422Z" fill="#3a4d5c"/>
      <path d="M46.812,82.1727l-.406-.828c.062,.304,.204,.594,.406,.828Z" fill="#3a4d5c"/>
      <path d="M105.172,70.1647c-.782,1.172-1.632,2.29-2.578,3.328l9.53,5.774c1.08-1.32,2.04-2.734,2.93-4.188-.21-.132-.406-.288-.632-.398l-9.25-4.516Z" fill="#a8c2e1"/>
      <path d="M55.812,70.1567l-9.258,4.524c-.226,.11-.43,.266-.64,.398,.922,1.492,1.914,2.93,3.016,4.282l9.602-5.72c-1-1.078-1.9-2.25-2.72-3.484Z" fill="#a8c2e1"/>
      <path d="M58.054,72.3287l-10.218,4.984c-.844,.414-1.532,1.212-1.742,2.156-.212,.938,.094,1.97,.718,2.704,5.516,6.446,12.946,11.196,21.43,13.368,1.844,.476,3.312,2.336,3.312,3.35v18.32c-.008,2.9,2.376,5.29,5.266,5.29h7.328c2.898,0,5.274-2.39,5.274-5.29v-18.32c0-1.014,1.468-2.874,3.312-3.35,8.484-2.172,15.914-6.922,21.43-13.368,.626-.734,.93-1.766,.718-2.704-.21-.944-.898-1.742-1.742-2.156l-10.226-4.984c-1.672-.82-3.39-.492-4.718,.672-4.228,3.718-9.758,5.976-15.868,5.976h-3.664c-6.11,0-11.64-2.258-15.874-5.976-1.322-1.156-3.064-1.484-4.736-.672Z" fill="#3a4d5c"/>
      <path d="M105.664,8.9467h-5.032c-1.008,.008-1.82,.82-1.828,1.828v7.328c.008,1,.82,1.82,1.828,1.828h3.664c.494,0,.922,.024,1.328,.07l.04-11.054Z" fill="#a8c2e1"/>
      <path d="M88.032,5.5247c-2.024-.25-3.884,1.382-3.884,3.422v10.968c0,2.04,1.86,3.672,3.884,3.414l11.008-1.352h.006c1.946-.234,3.422-1.922,3.422-3.874v-7.328c0-1.962-1.476-3.642-3.422-3.884l-11.014-1.366Z" fill="#3a4d5c"/>
      <path d="M111.274,76.4067c0,.766-.282,1.524-.774,2.102-5.516,6.446-12.946,11.202-21.422,13.374-1.852,.47-3.312,2.328-3.312,3.352v18.312c0,2.9-2.384,5.29-5.274,5.29h-7.336c-.484,0-.938-.086-1.39-.212,.624,2.22,2.656,3.876,5.054,3.876h7.328c2.898,0,5.274-2.39,5.274-5.29v-18.312c0-1.022,1.468-2.882,3.312-3.358,8.484-2.164,15.914-6.922,21.43-13.368,.626-.734,.93-1.758,.718-2.704-.21-.944-.898-1.734-1.742-2.148l-1.866-.914Z" fill="#143441"/>
      <path d="M49.664,78.3687c-.468,0-.914,.164-1.258,.476-.75,.68-.812,1.828-.132,2.586,0,0,3.656,4.164,6.922,6.28,.844,.548,1.976,.306,2.522-.538,.548-.844,.314-1.976-.522-2.532-2.4-1.554-6.212-5.664-6.212-5.664-.336-.374-.812-.594-1.32-.6v-.008Z" fill="#5f8ea2"/>
      <path d="M61.954,8.6647c-1.016,0-1.83,.828-1.83,1.836v3.204c.008,1.006,.822,1.82,1.83,1.828,1.006,0,1.836-.814,1.836-1.828v-3.204c.006-1.016-.822-1.844-1.836-1.836Z" fill="#5f8ea2"/>
      <path d="M87.734,8.6647c-1.016-.008-1.844,.82-1.836,1.836v3.204c0,1.014,.82,1.828,1.836,1.828,1.008-.008,1.82-.822,1.828-1.828v-3.204c0-1.008-.82-1.836-1.828-1.836Z" fill="#5f8ea2"/>
      <path d="M44.352,17.6027c-.57,.046-1.086,.352-1.398,.836-1.422,2.25-1.758,4.312-1.758,8.272,0,1.016,.82,1.836,1.828,1.836,1.016,.008,1.844-.82,1.836-1.836,0-3.828,.078-4.546,1.194-6.296,.54-.86,.29-1.992-.57-2.532-.336-.218-.734-.312-1.132-.28Z" fill="#f6fbfe"/>
      <path d="M111.438,17.6027c-.368-.016-.728,.086-1.032,.28-.852,.54-1.11,1.672-.57,2.532,1.118,1.75,1.196,2.468,1.196,6.296-.008,1.016,.82,1.844,1.836,1.836,1.014,0,1.828-.82,1.828-1.836,0-3.96-.328-6.022-1.758-8.272-.336-.508-.898-.828-1.5-.836Z" fill="#f6fbfe"/>
      <path d="M74.914,99.0707c-1.016-.008-1.836,.82-1.836,1.836v5.57c0,1.016,.82,1.844,1.836,1.844,1.016-.008,1.836-.828,1.828-1.844v-5.57c.008-1.008-.812-1.836-1.828-1.836Z" fill="#5f8ea2"/>
    </g>
  </g>
  <g id="x" data-name="2 - Hospital Building"/>
  <g id="y" data-name="1 - First Aid Kit"/>
</svg>