<?xml version="1.0" encoding="UTF-8"?>
<svg xmlns="http://www.w3.org/2000/svg" viewBox="0 0 128 128">
  <g id="a" data-name="25 - Scalpel and Scissors"/>
  <g id="b" data-name="24 - Heart Beat"/>
  <g id="c" data-name="23 - Eye Dropper"/>
  <g id="d" data-name="22 - Pills Bottle">
    <g>
      <path d="M11.39,54.242c-1.038,0-1.874,.844-1.874,1.882v43.798c0,4.648,1.938,9,5.64,12.062,3.696,3.056,9.048,4.82,15.798,4.82s12.092-1.764,15.796-4.82c3.696-3.062,5.64-7.414,5.64-12.062V56.124c-.008-1.038-.844-1.882-1.882-1.882H11.39Z" fill="#dc1c4b" fill-rule="evenodd"/>
      <path d="M48.618,54.242v41.906c0,4.648-1.946,9-5.642,12.062-3.702,3.056-9.046,4.814-15.796,4.814-6.196,0-11.212-1.478-14.852-4.086,.782,1.108,1.726,2.132,2.828,3.046,3.696,3.056,9.048,4.812,15.798,4.812s12.092-1.756,15.796-4.812c3.696-3.054,5.64-7.414,5.64-12.062V56.124c-.008-1.038-.844-1.874-1.882-1.882h-1.89Z" fill="#b01d47" fill-rule="evenodd"/>
      <path d="M21.016,32.734c-4.328,0-7.884,3.54-7.884,7.868v1.952c0,1.04,.836,1.892,1.884,1.892h31.874c1.04,0,1.884-.852,1.876-1.892v-1.952c0-4.328-3.54-7.868-7.868-7.868H21.016Z" fill="#a3b9c9" fill-rule="evenodd"/>
      <path d="M14.07,36.898c-.594,1.11-.938,2.368-.938,3.704v1.952c0,1.04,.836,1.892,1.884,1.9h31.866c1.048-.008,1.892-.86,1.884-1.9v-1.952c0-1.336-.336-2.594-.93-3.704H14.07Z" fill="#5f8ea2" fill-rule="evenodd"/>
      <path d="M11.296,40.672c-3.178,0-5.796,2.618-5.796,5.796v5.75c0,3.18,2.618,5.798,5.796,5.798H50.61c3.18,0,5.788-2.618,5.788-5.798v-5.75c0-3.178-2.608-5.796-5.788-5.796H11.296Z" fill="#d0e2ee" fill-rule="evenodd"/>
      <path d="M37,46.594c-1.046,0-1.89,.852-1.882,1.89v2.258c0,1.04,.842,1.882,1.882,1.882,1.04,.008,1.89-.834,1.89-1.882v-2.258c.008-1.046-.844-1.898-1.89-1.89Z" fill="#5f8ea2" fill-rule="evenodd"/>
      <path d="M43.39,46.594c-1.038,0-1.882,.852-1.882,1.89v2.258c.008,1.04,.844,1.882,1.882,1.882,1.04,.008,1.892-.834,1.892-1.882v-2.258c.008-1.046-.844-1.898-1.892-1.89Z" fill="#5f8ea2" fill-rule="evenodd"/>
      <path d="M24.218,46.594c-1.046-.008-1.898,.844-1.89,1.89v2.258c0,1.048,.852,1.89,1.89,1.882,1.04,0,1.884-.842,1.884-1.882v-2.258c.008-1.038-.836-1.89-1.884-1.89Z" fill="#5f8ea2" fill-rule="evenodd"/>
      <path d="M30.618,46.594c-1.048-.008-1.9,.844-1.9,1.89v2.258c.008,1.048,.852,1.89,1.9,1.882,1.038,0,1.874-.842,1.882-1.882v-2.258c0-1.038-.844-1.89-1.882-1.89Z" fill="#5f8ea2" fill-rule="evenodd"/>
      <path d="M17.828,46.594c-1.046-.008-1.898,.844-1.89,1.89v2.258c0,1.048,.852,1.89,1.89,1.882,1.04,0,1.876-.842,1.882-1.882v-2.258c0-1.038-.842-1.89-1.882-1.89Z" fill="#5f8ea2" fill-rule="evenodd"/>
      <path d="M24.086,62.336c-1.046-.008-1.898,.836-1.898,1.882v32.736c0,5.836,4.772,10.608,10.616,10.616h17.634c1.288-2.32,1.952-4.93,1.952-7.648V62.336H24.086Z" fill="#d0e2ee" fill-rule="evenodd"/>
      <path d="M37.29,75.876c-1.04,0-1.884,.85-1.884,1.89,.008,1.038,.844,1.882,1.884,1.882h5c1.046,.008,1.89-.836,1.898-1.882,0-1.048-.852-1.898-1.898-1.89h-5Z" fill="#143441" fill-rule="evenodd"/>
      <path d="M37.29,81.938c-1.04,0-1.876,.844-1.884,1.874,0,1.048,.844,1.892,1.884,1.898h5c1.046,0,1.898-.85,1.898-1.898-.008-1.038-.852-1.882-1.898-1.874h-5Z" fill="#143441" fill-rule="evenodd"/>
      <path d="M37.29,92.118c-1.04,0-1.876,.842-1.884,1.882,0,1.04,.844,1.89,1.884,1.89h7.35c1.056,.008,1.9-.844,1.9-1.89-.008-1.046-.852-1.89-1.9-1.882h-7.35Z" fill="#143441" fill-rule="evenodd"/>
      <path d="M30.954,70.312c-1.04,.008-1.884,.844-1.884,1.884v21.804c-.008,1.04,.836,1.89,1.884,1.89,1.046,.008,1.898-.844,1.89-1.89v-21.804c0-1.04-.852-1.884-1.89-1.884Z" fill="#143441" fill-rule="evenodd"/>
      <path d="M52.352,40.946c.18,.554,.272,1.14,.272,1.75v5.75c0,3.178-2.616,5.796-5.796,5.796H5.868c.828,2.196,2.96,3.774,5.428,3.774H50.602c3.18,0,5.796-2.618,5.796-5.798v-5.75c0-2.57-1.702-4.772-4.046-5.522Z" fill="#a3b9c9" fill-rule="evenodd"/>
      <path d="M48.618,62.336v33.812c0,4.336-1.688,8.406-4.914,11.422h6.734c.156-.288,.312-.586,.452-.882,.282-.594,.524-1.212,.728-1.844,.1-.312,.194-.634,.272-.954,.086-.304,.156-.616,.212-.93,.008-.014,.008-.022,.008-.038,.008-.008,.008-.016,.008-.032,.054-.312,.108-.632,.148-.952,.03-.306,.062-.61,.086-.914,0-.056,.008-.102,.008-.156,.016-.314,.03-.626,.03-.946V62.336h-3.772Z" fill="#a3b9c9" fill-rule="evenodd"/>
      <path d="M11.976,58.922c-1.038,0-1.882,.852-1.882,1.89v6.61c.008,1.032,.844,1.874,1.882,1.874,1.048,.008,1.892-.836,1.9-1.874v-6.61c0-1.046-.852-1.898-1.9-1.89Z" fill="#f0517a"/>
      <path d="M10.282,41.188c-1.056,0-1.9,.844-1.9,1.898,.008,1.038,.852,1.882,1.9,1.874h4.686c1.04,0,1.884-.842,1.884-1.874,.008-1.046-.836-1.89-1.884-1.898h-4.686Z" fill="#f6fbfe"/>
      <path d="M19.766,33.57c-1.048,0-1.884,.852-1.884,1.89,.008,1.04,.844,1.876,1.884,1.884h4.71c1.032-.008,1.876-.844,1.876-1.884,.008-1.038-.836-1.89-1.876-1.89h-4.71Z" fill="#d0e2ee"/>
      <path d="M24.992,67.304c-1.054,0-1.906,.852-1.898,1.9v10.108c-.008,1.056,.844,1.898,1.898,1.898,1.04-.006,1.884-.85,1.876-1.898v-10.108c.008-1.048-.836-1.892-1.876-1.9Z" fill="#f6fbfe"/>
      <path d="M14.71,104.766c-.5-.07-1,.062-1.398,.358-.828,.642-.984,1.822-.344,2.65,1.438,1.882,3.736,4.436,7.008,5.586,.984,.35,2.064-.172,2.406-1.156,.336-.978-.178-2.048-1.156-2.392-2.07-.734-4.054-2.734-5.266-4.32-.304-.398-.756-.664-1.25-.726Z" fill="#f0517a"/>
      <path d="M77.992,24.75c-1.046,0-1.898,.844-1.89,1.898v7.898c0,1.04,.852,1.884,1.89,1.876h25.79c1.03,0,1.874-.844,1.874-1.876v-7.898c.008-1.046-.836-1.89-1.874-1.898h-25.79Z" fill="#a3b9c9" fill-rule="evenodd"/>
      <path d="M104.11,32.578c-7.642,0-18.814,.008-26.478,.086-6.1,.016-11.546,3.882-13.538,9.648-.008,.016-.016,.024-.016,.032-3.094,9.452-4.82,20.032-4.82,31.188,0,11.85,.828,23.108,3.688,33.156,.008,.022,.022,.046,.03,.07,2.008,5.992,7.634,10.046,13.962,10.046,8,0,19.844,0,27.882-.124,6.266,0,11.844-4.008,13.836-9.946l.024-.07c3-10.032,3.82-21.282,3.82-33.132,0-11.156-1.726-21.72-4.734-31.188-.008-.016-.008-.04-.016-.054-2.016-5.806-7.492-9.712-13.64-9.712Z" fill="#fca311" fill-rule="evenodd"/>
      <path d="M112.258,35.102c.71,1.038,1.288,2.18,1.718,3.414,.008,.016,.008,.03,.008,.054,3.016,9.462,4.742,20.032,4.742,31.188,0,11.844-.82,23.102-3.82,33.124l-.024,.072c-1.992,5.944-7.57,9.952-13.836,9.952-8.038,.126-19.882,.126-27.882,.126-3.062,0-5.954-.954-8.36-2.61,2.704,3.922,7.204,6.382,12.134,6.382,8,0,19.844,0,27.882-.124,6.266,0,11.844-4.008,13.836-9.954,.008-.022,.016-.046,.032-.07,2.992-10.024,3.812-21.274,3.812-33.124,0-11.156-1.726-21.72-4.734-31.188-.008-.024-.008-.04-.016-.054-1.04-2.994-3-5.486-5.492-7.188Z" fill="#ec7523" fill-rule="evenodd"/>
      <path d="M62.546,47.524c-2.124,8.078-3.288,16.852-3.288,26.008,0,11.64,.796,22.702,3.538,32.616h56.032c2.876-9.898,3.672-20.968,3.672-32.616,0-9.164-1.164-17.922-3.242-26.008H62.546Z" fill="#d0e2ee" fill-rule="evenodd"/>
      <path d="M75.75,11.196c-2.226,0-4.078,1.844-4.078,4.07v9.194c0,2.22,1.852,4.064,4.078,4.064h30.258c2.226,0,4.078-1.844,4.078-4.064V15.266c0-2.226-1.852-4.07-4.078-4.07h-30.258Z" fill="#d0e2ee" fill-rule="evenodd"/>
      <path d="M83.484,61.25c-1.046-.008-1.89,.836-1.898,1.874,0,1.056,.852,1.9,1.898,1.9h16.438c1.038-.008,1.882-.852,1.874-1.9,0-1.03-.842-1.874-1.874-1.874h-16.438Z" fill="#143441" fill-rule="evenodd"/>
      <path d="M83.484,75.82c-1.046-.008-1.898,.844-1.898,1.89,.008,1.048,.852,1.892,1.898,1.884h16.438c1.032,0,1.874-.844,1.874-1.884,.008-1.038-.836-1.89-1.874-1.89h-16.438Z" fill="#143441" fill-rule="evenodd"/>
      <path d="M71.602,94.718c-1.048,0-1.898,.852-1.898,1.9,.006,1.038,.85,1.882,1.898,1.882h28.32c1.032-.008,1.874-.844,1.874-1.882,.008-1.048-.836-1.892-1.874-1.9h-28.32Z" fill="#143441" fill-rule="evenodd"/>
      <path d="M83.484,68.532c-1.046,0-1.898,.85-1.898,1.898,.008,1.038,.852,1.882,1.898,1.874h8.22c1.03,0,1.874-.836,1.874-1.874,.008-1.048-.836-1.89-1.874-1.898h-8.22Z" fill="#143441" fill-rule="evenodd"/>
      <path d="M70.218,61.25c-1.038-.008-1.89,.836-1.89,1.874v17.876c0,1.046,.852,1.882,1.89,1.882,1.04-.006,1.876-.842,1.884-1.882v-17.876c-.008-1.03-.844-1.874-1.884-1.874Z" fill="#143441" fill-rule="evenodd"/>
      <path d="M99.554,17.118c-1.03,0-1.874,.842-1.874,1.882v2.258c-.008,1.038,.836,1.89,1.874,1.89,1.048,.008,1.9-.844,1.9-1.89v-2.258c-.008-1.046-.852-1.89-1.9-1.882Z" fill="#5f8ea2" fill-rule="evenodd"/>
      <path d="M86.766,17.118c-1.032,0-1.876,.842-1.876,1.882v2.258c-.008,1.038,.836,1.89,1.876,1.89,1.054,.008,1.898-.844,1.898-1.89v-2.258c0-1.046-.852-1.89-1.898-1.882Z" fill="#5f8ea2" fill-rule="evenodd"/>
      <path d="M93.164,17.118c-1.04,0-1.874,.842-1.882,1.882v2.258c0,1.038,.836,1.89,1.882,1.89,1.046,.008,1.898-.844,1.89-1.89v-2.258c0-1.046-.85-1.89-1.89-1.882Z" fill="#5f8ea2" fill-rule="evenodd"/>
      <path d="M80.39,17.118c-1.046-.008-1.89,.836-1.898,1.882v2.258c0,1.046,.852,1.898,1.898,1.89,1.04,0,1.884-.852,1.884-1.89v-2.258c-.008-1.04-.844-1.882-1.884-1.882Z" fill="#5f8ea2" fill-rule="evenodd"/>
      <path d="M106.304,11.21c.008,.094,.008,.18,.008,.282v9.196c0,2.218-1.852,4.062-4.078,4.062h-30.258c-.1,0-.194-.008-.296-.016,.148,2.102,1.944,3.79,4.07,3.79h30.258c2.226,0,4.078-1.844,4.078-4.07V15.258c0-2.126-1.688-3.898-3.782-4.054v.006Z" fill="#5f8ea2" fill-rule="evenodd"/>
      <path d="M116.376,47.524c1.514,7.016,2.35,14.476,2.35,22.234,0,11.844-.82,23.102-3.82,33.124l-.024,.072c-.382,1.14-.898,2.21-1.522,3.194h5.468c.18-.624,.352-1.242,.516-1.874,.164-.626,.32-1.258,.468-1.892,.142-.624,.282-1.258,.414-1.89,0-.008,.008-.024,.008-.032,.008-.03,.016-.07,.016-.1,.132-.61,.25-1.228,.368-1.844,.234-1.312,.444-2.634,.632-3.97,.188-1.304,.344-2.632,.484-3.968,0-.032,.008-.054,.008-.086,.008-.054,.008-.11,.016-.164,.132-1.296,.242-2.61,.336-3.93v-.038c.008-.032,.008-.064,.008-.094,.094-1.36,.172-2.726,.226-4.118,.062-1.414,.102-2.844,.132-4.272,.024-1.438,.04-2.884,.04-4.336v-.008c0-1.064-.024-2.126-.054-3.172,0-.15-.008-.298-.016-.446-.032-1.016-.078-2.032-.14-3.038-.008-.142-.016-.29-.024-.43-.062-.922-.142-1.836-.22-2.742-.014-.126-.014-.25-.03-.376,0-.024-.008-.046-.008-.07-.094-.938-.196-1.876-.312-2.804l-.072-.564c-.116-.936-.248-1.858-.398-2.78-.038-.228-.07-.454-.108-.68-.134-.79-.266-1.57-.408-2.344-.038-.172-.062-.336-.092-.508-.172-.89-.36-1.766-.556-2.64-.046-.22-.094-.438-.14-.648-.196-.844-.39-1.68-.602-2.508-.008-.016-.016-.04-.016-.064-.014-.062-.038-.124-.054-.194h-2.874Z" fill="#a3b9c9" fill-rule="evenodd"/>
      <path d="M72.976,34.164s-5.18,1.922-7.366,6.812c-.422,.954,.008,2.07,.96,2.5,.946,.414,2.054-.008,2.476-.952,1.392-3.102,5.352-4.86,5.352-4.86,.97-.39,1.43-1.484,1.048-2.454-.392-.968-1.5-1.436-2.47-1.046Z" fill="#fec872"/>
      <path d="M74.954,12.156c-1.048,0-1.9,.852-1.892,1.898,0,1.04,.852,1.884,1.892,1.876h8.554c1.038,0,1.874-.844,1.882-1.876,0-1.046-.836-1.89-1.882-1.898h-8.554Z" fill="#f6fbfe"/>
      <path d="M61.906,74.75c-1.046,.016-1.874,.874-1.852,1.922,0,0,.142,8.054,.806,12.336,.156,1.038,1.124,1.75,2.156,1.594,1.03-.164,1.742-1.134,1.578-2.164-.562-3.618-.766-11.852-.766-11.852-.032-1.04-.89-1.86-1.922-1.836Z" fill="#f6fbfe"/>
      <path d="M66.766,109.18c-.75,.726-.774,1.914-.056,2.664,0,0,3.18,3.438,7.914,4.36,1.024,.202,2.016-.47,2.212-1.494,.204-1.022-.468-2.014-1.492-2.21-3.258-.632-5.914-3.274-5.914-3.274-.726-.75-1.914-.766-2.664-.046Z" fill="#fec872"/>
    </g>
  </g>
  <g id="e" data-name="21 - Bone Crack"/>
  <g id="f" data-name="20 - Intestines"/>
  <g id="g" data-name="19 - Microscope"/>
  <g id="h" data-name="18 - Nose"/>
  <g id="i" data-name="17 - Doctor Coat"/>
  <g id="j" data-name="16 - Ear"/>
  <g id="k" data-name="15 - Heart"/>
  <g id="l" data-name="14 - Kidneys"/>
  <g id="m" data-name="13 - Emergency Call"/>
  <g id="n" data-name="12 - X-Ray"/>
  <g id="o" data-name="11 - Lungs"/>
  <g id="p" data-name="10 - Dental Care"/>
  <g id="q" data-name="9 - Syringe"/>
  <g id="r" data-name="8 - Blood Bag"/>
  <g id="s" data-name="7 - Hospital Bed"/>
  <g id="t" data-name="6 - Thermometer"/>
  <g id="u" data-name="5 - Ambulance"/>
  <g id="v" data-name="4 - Pills"/>
  <g id="w" data-name="3 - Stethoscope"/>
  <g id="x" data-name="2 - Hospital Building"/>
  <g id="y" data-name="1 - First Aid Kit"/>
</svg>