<?xml version="1.0" encoding="UTF-8"?>
<svg xmlns="http://www.w3.org/2000/svg" viewBox="0 0 128 128">
  <g id="a" data-name="25 - Scalpel and Scissors"/>
  <g id="b" data-name="24 - Heart Beat"/>
  <g id="c" data-name="23 - Eye Dropper"/>
  <g id="d" data-name="22 - Pills Bottle"/>
  <g id="e" data-name="21 - Bone Crack"/>
  <g id="f" data-name="20 - Intestines"/>
  <g id="g" data-name="19 - Microscope">
    <g>
      <path d="M45.554,59.6566c-.694-.016-1.344,.344-1.694,.946l-2.5,4.352c-1.586,2.756-.642,6.336,2.116,7.928l4.056,2.336c2.75,1.586,6.336,.642,7.922-2.116l2.506-4.352c.516-.898,.212-2.046-.678-2.57l-10.844-6.258c-.266-.156-.57-.25-.884-.266Z" fill="#143441"/>
      <path d="M70.93,36.0786c-.806,.024-1.508,.546-1.75,1.312l-3.118,9.65c-.336,1.03,.282,2.14,1.336,2.406l5.97,1.5c.148,.038,.296,.054,.452,.054,10.828,0,19.578,8.75,19.578,19.578,0,3.962-1.648,8.54-4.492,12.008s-6.766,5.812-11.5,5.812l-2.782-.054c-.506-.008-1,.188-1.358,.554l-5.618,5.602c-.352,.352-.546,.836-.538,1.336v5.118c-.008,1.038,.836,1.882,1.874,1.89h7.914c16.212,0,30.984-14.594,30.984-32.274,0-15.578-10.476-28.742-24.788-32.78-.078-.024-.164-.04-.25-.056l-11.61-1.624c-.102-.024-.202-.032-.304-.032Z" fill="#a8c2e1"/>
      <path d="M78.954,88.3126c-.5,.056-1.016,.086-1.548,.086l-2.782-.054c-.506-.008-1,.188-1.358,.554l-5.618,5.602c-.352,.36-.546,.836-.538,1.336v5.118c-.008,1.038,.836,1.882,1.874,1.89h7.914c1.642,0,3.274-.156,4.876-.446l-2.82-14.086Z" fill="#91a9d9"/>
      <path d="M30.93,95.5006c-1.032,.008-1.868,.844-1.876,1.876v3.578c0,2.992,2.462,5.46,5.454,5.46h21.188c.866,0,1.632-.594,1.836-1.446l1.694-7.156c.274-1.18-.616-2.304-1.82-2.312H30.93Z" fill="#a8c2e1"/>
      <path d="M23.79,88.3446c-2,0-3.672,1.664-3.672,3.664v3.578c0,2,1.672,3.672,3.672,3.672H57.234c.89-.008,1.648-.626,1.836-1.492l1.532-7.142c.25-1.17-.642-2.28-1.836-2.28H23.79Z" fill="#d0e2ee"/>
      <path d="M52.96,95.5006l-2.186,10.914h4.922c.874,0,1.632-.594,1.836-1.446l1.694-7.164c.266-1.172-.616-2.296-1.82-2.304h-4.446Z" fill="#91a9d9"/>
      <path d="M54.39,88.3446l-2.186,10.914h5.03c.884-.008,1.648-.626,1.836-1.492l1.532-7.148c.25-1.164-.642-2.274-1.836-2.274h-4.376Z" fill="#a8c2e1"/>
      <path d="M59.532,84.7666c-.9,0-1.672,.632-1.852,1.516l-5.368,26.804c-.242,1.172,.656,2.274,1.852,2.266h25.024c1.194,.008,2.094-1.094,1.852-2.266l-5.368-26.804c-.18-.884-.954-1.516-1.852-1.516h-14.288Z" fill="#3a4d5c"/>
      <path d="M53.368,107.8206l-1.056,5.266c-.242,1.172,.656,2.274,1.852,2.266h25.024c1.194,.008,2.094-1.094,1.852-2.266l-1.056-5.266h-26.616Z" fill="#0d202b"/>
      <path d="M34.508,111.5866c-2.992,0-5.454,2.46-5.454,5.454v3.57c0,1.038,.836,1.89,1.876,1.89H102.422c1.046,.008,1.89-.844,1.89-1.89v-3.57c0-2.994-2.476-5.454-5.468-5.454H34.508Z" fill="#143441"/>
      <path d="M66.688,92.0246c-.992-.008-1.79,.788-1.798,1.78,0,.992,.806,1.798,1.798,1.798,.984-.008,1.78-.812,1.78-1.798-.008-.984-.796-1.78-1.78-1.78Z" fill="#0d202b"/>
      <path d="M66.688,99.1646c-.992,0-1.79,.796-1.798,1.782,0,.992,.806,1.796,1.798,1.796,.984-.008,1.78-.812,1.78-1.796-.008-.986-.796-1.782-1.78-1.782Z" fill="#0d202b"/>
      <path d="M81.704,5.9846c-1.736-1.008-4.016-.39-5.016,1.344l-5.352,9.29c-.524,.898-.218,2.046,.68,2.57l7.742,4.46c.898,.524,2.046,.22,2.57-.68l5.368-9.296c1.008-1.734,.39-4.008-1.344-5.008l-4.648-2.68Z" fill="#d0e2ee"/>
      <path d="M79.796,5.5006c-.632,.016-1.25,.196-1.796,.516l4.586,2.648c1.734,1.008,2.344,3.266,1.344,5.008l-5.36,9.288,1.188,.688c.898,.524,2.046,.22,2.57-.68l5.368-9.296c1-1.742,.39-4-1.344-5.008l-4.648-2.688c-.594-.344-1.258-.492-1.908-.476Z" fill="#a8c2e1"/>
      <path d="M73.906,15.9226c-1.734-1-4.016-.39-5.016,1.352l-8.038,13.93c-.524,.898-.22,2.046,.68,2.57l10.844,6.258c.906,.514,2.054,.202,2.57-.696l8.038-13.93c1-1.742,.398-4.016-1.336-5.024l-7.742-4.46Z" fill="#91a9d9"/>
      <path d="M55.07,73.6806c.14-.18,.274-.376,.39-.578l2.5-4.352c.524-.898,.22-2.046-.678-2.57l-10.844-6.258c-.266-.156-.57-.25-.884-.266-.694-.016-1.344,.344-1.694,.946l-2.5,4.352c-.086,.156-.164,.304-.236,.46l13.946,8.266Z" fill="#0d202b"/>
      <path d="M70.93,36.0786c-.806,.024-1.508,.546-1.75,1.312l-3.118,9.65c-.336,1.03,.282,2.14,1.336,2.398l5.484,1.382c1.454-2.516,2.86-4.952,4.594-7.952,.79-1.376,.79-2.884,.422-4.314l.806-1.406-7.47-1.038c-.102-.024-.202-.032-.304-.032Z" fill="#91a9d9"/>
      <path d="M72,15.4466c-.632,.008-1.258,.186-1.804,.508l7.686,4.428c1.736,1.008,2.336,3.282,1.336,5.024l-8.038,13.93,1.196,.696c.906,.514,2.054,.202,2.57-.696l8.038-13.938c1-1.734,.398-4.008-1.336-5.016l-7.742-4.46c-.594-.344-1.258-.5-1.906-.484v.008Z" fill="#6788cb"/>
      <path d="M62.032,30.0466c-1.422-.17-2.876,.5-3.626,1.806l-15.196,26.32c-1,1.734-.39,4,1.344,5.008l10.836,6.25c1.734,1.008,4.016,.406,5.016-1.328,5.962-10.328,9.462-16.384,15.196-26.32,1-1.736,.39-4.016-1.352-5.016l-10.828-6.258c-.43-.25-.906-.398-1.39-.462Z" fill="#d0e2ee"/>
      <path d="M61.5,30.0246c-1.024,.022-2.016,.484-2.704,1.28,.298,.086,.586,.196,.86,.352l10.828,6.258c1.734,1.008,2.352,3.29,1.352,5.024-5.742,9.938-9.234,15.984-15.196,26.312-.108,.196-.242,.374-.382,.546,1.562,.414,3.304-.242,4.148-1.694,5.962-10.336,9.462-16.384,15.196-26.32,1-1.736,.382-4.016-1.352-5.016l-10.828-6.258c-.43-.25-.914-.398-1.39-.462-.18-.022-.352-.022-.532-.022Z" fill="#a8c2e1"/>
      <path d="M75.71,49.1246c0,3.978-3.264,7.244-7.242,7.244-3.976,0-7.242-3.266-7.242-7.244,0-3.984,3.266-7.248,7.242-7.248,3.978,0,7.242,3.264,7.242,7.248Z" fill="#143441"/>
      <path d="M61.766,31.2586c-.898-.524-2.048-.218-2.57,.68l-2.906,5.046c-.516,.898-.212,2.048,.678,2.57,.908,.524,2.056,.212,2.578-.694l2.914-5.032c.524-.898,.212-2.054-.694-2.57Z" fill="#f6fbfe"/>
      <path d="M70.968,16.2586c-.476,.124-.898,.43-1.148,.86l-2.102,3.506c-.522,.892-.234,2.04,.658,2.572,.89,.538,2.046,.25,2.584-.642l2.086-3.508c.532-.89,.25-2.046-.64-2.586-.43-.25-.946-.328-1.438-.202Z" fill="#d0e2ee"/>
      <path d="M78.812,6.2906c-.484,.124-.898,.428-1.156,.858l-2.094,3.492c-.538,.892-.242,2.056,.648,2.586,.9,.532,2.056,.242,2.586-.656l2.086-3.484c.54-.89,.25-2.054-.64-2.586-.43-.258-.946-.336-1.43-.21Z" fill="#f6fbfe"/>
      <path d="M68.406,39.7826l-2.344,7.258c-.336,1.03,.282,2.14,1.336,2.398l5.97,1.508c.148,.03,.296,.054,.452,.054,1.274,0,2.516,.124,3.72,.352,.17-.712,.272-1.462,.272-2.228,0-5.132-4.218-9.342-9.344-9.342h-.062Z" fill="#91a9d9"/>
      <path d="M45.96,89.2346c-1.038-.008-1.89,.836-1.89,1.876,0,1.046,.844,1.89,1.89,1.89h6.994c1.046,0,1.898-.844,1.89-1.89,0-1.04-.852-1.884-1.89-1.876h-6.994Z" fill="#f6fbfe"/>
      <path d="M33.156,112.7666c-1.046,0-1.89,.844-1.89,1.89,.008,1.048,.852,1.884,1.89,1.884h4.922c1.04-.008,1.876-.844,1.876-1.884,.006-1.038-.836-1.882-1.876-1.89h-4.922Z" fill="#5f8ea2"/>
      <path d="M102.782,57.4386c-.986,.344-1.5,1.422-1.158,2.406,0,0,2.266,6.75,1.962,10.844-.07,1.03,.704,1.936,1.742,2.016,1.032,.07,1.938-.704,2.016-1.744,.406-5.584-2.156-12.382-2.156-12.382-.352-.984-1.43-1.492-2.406-1.14Z" fill="#d0e2ee"/>
      <path d="M68.468,39.7826c-5.124,0-9.344,4.21-9.344,9.336,0,4.328,3,8,7.016,9.046,2.82-4.882,5.672-9.828,8.992-15.562-1.702-1.734-4.062-2.82-6.664-2.82Z" fill="#a8c2e1"/>
      <path d="M75.71,49.1246c0,3.978-3.264,7.244-7.242,7.244-3.976,0-7.242-3.266-7.242-7.244,0-3.984,3.266-7.248,7.242-7.248,3.978,0,7.242,3.264,7.242,7.248Z" fill="#143441"/>
      <path d="M71.344,42.4846c.39,.884,.602,1.852,.602,2.868,0,3.984-3.266,7.242-7.242,7.242-1.016,0-1.994-.212-2.876-.594,1.126,2.562,3.68,4.368,6.64,4.368,3.978,0,7.242-3.266,7.242-7.244,0-2.96-1.804-5.522-4.366-6.64Z" fill="#0d202b"/>
      <path d="M60.726,85.7106c-1.046,0-1.898,.844-1.89,1.892,0,1.046,.852,1.882,1.89,1.882h2.696c1.038-.008,1.874-.844,1.874-1.882,.008-1.04-.836-1.884-1.874-1.892h-2.696Z" fill="#5f8ea2"/>
    </g>
  </g>
  <g id="h" data-name="18 - Nose"/>
  <g id="i" data-name="17 - Doctor Coat"/>
  <g id="j" data-name="16 - Ear"/>
  <g id="k" data-name="15 - Heart"/>
  <g id="l" data-name="14 - Kidneys"/>
  <g id="m" data-name="13 - Emergency Call"/>
  <g id="n" data-name="12 - X-Ray"/>
  <g id="o" data-name="11 - Lungs"/>
  <g id="p" data-name="10 - Dental Care"/>
  <g id="q" data-name="9 - Syringe"/>
  <g id="r" data-name="8 - Blood Bag"/>
  <g id="s" data-name="7 - Hospital Bed"/>
  <g id="t" data-name="6 - Thermometer"/>
  <g id="u" data-name="5 - Ambulance"/>
  <g id="v" data-name="4 - Pills"/>
  <g id="w" data-name="3 - Stethoscope"/>
  <g id="x" data-name="2 - Hospital Building"/>
  <g id="y" data-name="1 - First Aid Kit"/>
</svg>