<?xml version="1.0" encoding="UTF-8"?>
<svg xmlns="http://www.w3.org/2000/svg" viewBox="0 0 128 128">
  <g id="a" data-name="25 - Scalpel and Scissors"/>
  <g id="b" data-name="24 - Heart Beat"/>
  <g id="c" data-name="23 - Eye Dropper"/>
  <g id="d" data-name="22 - Pills Bottle"/>
  <g id="e" data-name="21 - Bone Crack"/>
  <g id="f" data-name="20 - Intestines"/>
  <g id="g" data-name="19 - Microscope"/>
  <g id="h" data-name="18 - Nose"/>
  <g id="i" data-name="17 - Doctor Coat">
    <g>
      <path d="M38.57,14.734c-.296-.008-.594,.062-.86,.196l-4.686,2.39c-.016,.008-15.9,7.664-17.962,22.134v.038l-5.562,47.946c-.118,.96,.524,1.852,1.468,2.054l13.5,3c1.024,.234,2.032-.406,2.258-1.43l6.602-29.796c1.048,5.086,2.43,9.484,2.43,16.116v43.228c0,1.038,.844,1.882,1.882,1.89h52.704c1.046,0,1.898-.844,1.898-1.89v-43.228c0-6.522,1.368-10.936,2.398-16.006l6.634,29.686c.226,1.016,1.226,1.656,2.242,1.43l13.516-3c.944-.202,1.586-1.094,1.468-2.054l-5.562-47.946v-.038c-2.062-14.47-17.946-22.126-17.962-22.134l-4.686-2.39c-.266-.134-.564-.204-.86-.196H38.57Z" fill="#e2f0fa"/>
      <path d="M38.57,14.734c-.296-.008-.594,.062-.866,.196l-4.68,2.39-.032,.016c.18,.266,.384,.516,.618,.742v.008l4.546,4.328-1.234,5.196c-.422,1.78,.21,3.656,1.624,4.812,.008,.008,.008,.016,.016,.016l22.438,18.186c.016,.008,.032,.016,.046,.032,.478,.368,1.064,.696,1.736,.876,.25,.062,.53,.124,.866,.148,.228,.016,.476,.016,.704,0,.336-.016,.616-.086,.866-.148h.008c.642-.172,1.22-.47,1.742-.876,.016-.016,.032-.024,.04-.032l22.43-18.186,.016-.016c1.39-1.14,2.062-3,1.64-4.812l-1.242-5.196,4.546-4.328v-.008c.242-.226,.446-.476,.626-.734l-.048-.032-4.68-2.382c-.272-.134-.57-.204-.866-.196h-15.29c-.82,2.164-1.796,4.704-2.914,7.43-2.07,5.046-4.702,10.07-7.234,14.782-2.524-4.712-5.148-9.736-7.218-14.782-1.118-2.734-2.094-5.266-2.914-7.43h-15.29Z" fill="#c8dae5"/>
      <path d="M63.68,5.5c-5.61,.008-11.126,.766-17.226,2.25-1.056,.258-1.672,1.36-1.352,2.39,4.038,13.04,10.07,25.532,17.258,37.712,.718,1.25,2.522,1.258,3.25,.016,6.758-11.408,12.874-23.618,17.288-37.728,.328-1.046-.304-2.156-1.382-2.398-6.508-1.508-12.22-2.25-17.836-2.242Z" fill="#f6fbfe"/>
      <path d="M63.68,5.5c-5.618,.008-11.126,.766-17.226,2.25-1.094,.274-1.704,1.422-1.322,2.476l3.172,8.68c.4,1.094,1.696,1.57,2.712,.984,6.734-3.89,19.054-3.25,26.108,.07,1,.47,2.188-.014,2.572-1.054l3.172-8.68c.39-1.062-.244-2.234-1.352-2.484-6.508-1.508-12.226-2.242-17.836-2.242Z" fill="#91a9d9"/>
      <path d="M94.648,55.648c-3.688,3.758-4.508,8.648-5.358,13.196-.478,2.546-.822,5.28-.822,8.538v43.228c.008,1.046-.844,1.898-1.89,1.89h3.774c1.038,0,1.89-.844,1.89-1.89v-43.228c0-2.718,.242-5.054,.594-7.234l1.812-8.772v-5.728Z" fill="#c8dae5"/>
      <path d="M35.758,111.196v9.414c0,1.038,.844,1.89,1.882,1.89h52.712c1.038,.008,1.89-.844,1.89-1.89v-9.414H35.758Z" fill="#a8c2e1"/>
      <path d="M85.664,14.734c.296-.008,.594,.062,.86,.196l4.686,2.382c.016,.008,15.9,7.672,17.962,22.142v.038l5.562,47.946c.11,.96-.524,1.852-1.468,2.054l-11.398,2.532c.444,.414,1.054,.586,1.648,.476l13.516-3.008c.944-.202,1.578-1.094,1.468-2.054l-5.554-47.946v-.038c-2.07-14.47-17.954-22.126-17.97-22.142l-4.68-2.382c-.272-.134-.57-.204-.866-.196h-3.766Z" fill="#c8dae5"/>
      <path d="M92.774,16.196c-.68,3.336-1.422,6.632-2.352,9.85v.016c-1.406,5.048-3.594,11.876-6.446,17.836-.436,.938-.038,2.062,.892,2.508,.944,.454,2.07,.054,2.522-.89,3-6.29,5.22-13.25,6.656-18.422v-.016c.876-3.016,1.572-6.054,2.196-9.078-.774-.438-1.266-.68-1.266-.688l-2.202-1.116Z" fill="#143441"/>
      <path d="M81.704,42.57c-1.524,.484-2.79,1.438-3.844,2.586l-5.868,6.406c-.812,.892-.594,2.306,.446,2.906l1.624,.93c.898,.524,2.056,.22,2.578-.68,.43-.75,.298-1.694-.32-2.296l4.32-4.712c.72-.78,1.524-1.334,2.212-1.554,.694-.218,1.21-.21,1.89,.18,.68,.39,.946,.836,1.102,1.54,.156,.71,.078,1.694-.234,2.702l-1.922,6.102c-.828-.242-1.72,.116-2.156,.86-.516,.906-.204,2.054,.694,2.578l1.626,.944c1.046,.602,2.382,.078,2.742-1.07l2.616-8.288c.462-1.486,.658-3.056,.314-4.618-.336-1.562-1.32-3.094-2.9-4.008-1.584-.906-3.406-1-4.92-.508Z" fill="#3a4d5c"/>
      <path d="M35.078,16.274l-2.054,1.046s-.532,.258-1.384,.742c2.298,9.282,4.82,18.602,8.97,27.454,.444,.944,1.57,1.344,2.508,.906,.936-.446,1.342-1.562,.898-2.508-4.086-8.726-6.586-18.118-8.938-27.64Z" fill="#143441"/>
      <path d="M46.024,42.468c-1.626-.436-3.29-.172-4.648,.61-1.352,.79-2.422,2.094-2.86,3.718-.876,3.244,1.086,6.634,4.336,7.508,3.25,.868,6.64-1.078,7.508-4.328,.874-3.25-1.086-6.632-4.336-7.508Z" fill="#3a4d5c"/>
      <path d="M64.016,45.016c-1.048-.008-1.898,.844-1.892,1.89V120.61c-.006,1.046,.844,1.89,1.892,1.89,1.038-.008,1.882-.852,1.874-1.89V46.906c.008-1.038-.836-1.89-1.874-1.89Z" fill="#a8c2e1"/>
      <path d="M52.882,6.422c-2.092,.352-4.218,.788-6.428,1.328-1.094,.266-1.712,1.422-1.322,2.476l3.172,8.68c.4,1.102,1.696,1.57,2.712,.984,1.734-1,3.836-1.702,6.124-2.132-2.03-5.078-3.562-9.344-4.258-11.336Z" fill="#6788cb"/>
      <path d="M65.89,51.54v-4.634c0-.586-.272-1.14-.734-1.5-.382,.656-.774,1.304-1.156,1.906-.382-.602-.758-1.234-1.14-1.89-.462,.36-.736,.898-.736,1.484v4.648l3.766-.014Z" fill="#6788cb"/>
      <path d="M48.156,7.352l-1.664,.39c-.148,.032-.304,.078-.446,.148l-9.968,5.032c-1.164,.586-1.398,2.148-.454,3.046l5.744,5.478-1.618,6.828c-.164,.702,.086,1.436,.64,1.89l22.438,18.204c1.712,1.328,3.946-.806,2.704-2.578-3.954-5.384-8.25-14.68-11.462-22.532-3.21-7.852-5.382-14.282-5.382-14.282l-.532-1.624Z" fill="#a8c2e1"/>
      <path d="M9.5,87.438c-.118,.96,.524,1.852,1.468,2.054l13.5,3c1.016,.234,2.024-.398,2.258-1.414,.65-2.93,1.29-5.852,1.938-8.782l-18.008-4.828c-.39,3.322-.774,6.642-1.156,9.97Z" fill="#a8c2e1"/>
      <path d="M56.476,52.898c-1.038,0-1.882,.844-1.874,1.892,0,1.03,.844,1.866,1.874,1.874,1.04,0,1.892-.836,1.892-1.874,.008-1.048-.844-1.9-1.892-1.892Z" fill="#3a4d5c"/>
      <path d="M56.476,62.312c-1.038,.008-1.882,.852-1.874,1.892,0,1.038,.844,1.874,1.874,1.882,1.04,0,1.892-.836,1.892-1.882,.008-1.04-.844-1.892-1.892-1.892Z" fill="#3a4d5c"/>
      <path d="M56.476,71.734c-1.038,0-1.882,.852-1.874,1.89,0,1.032,.844,1.876,1.874,1.876,1.04,.008,1.892-.836,1.892-1.876,.008-1.046-.844-1.898-1.892-1.89Z" fill="#3a4d5c"/>
      <path d="M56.476,81.156c-1.038,0-1.882,.852-1.874,1.89,0,1.032,.844,1.876,1.874,1.876,1.04,.008,1.892-.836,1.892-1.876,.008-1.046-.844-1.898-1.892-1.89Z" fill="#3a4d5c"/>
      <path d="M35.758,79.274v20.718h3.774c5.178,0,9.406-4.25,9.406-9.43v-9.414c0-1.03-.836-1.874-1.876-1.874h-11.304Z" fill="#a8c2e1"/>
      <path d="M75.102,6.468c-.712,2.04-2.258,6.36-4.32,11.486,2.342,.468,4.514,1.148,6.342,2.006,1,.478,2.196-.014,2.572-1.054l3.172-8.672c.39-1.07-.244-2.242-1.352-2.492-2.22-.516-4.344-.938-6.414-1.274Z" fill="#6788cb"/>
      <path d="M79.93,7.382l-.626,1.594s-2.164,6.43-5.374,14.282c-3.212,7.852-7.508,17.148-11.462,22.532-1.242,1.772,.992,3.906,2.696,2.578l22.446-18.204c.554-.454,.804-1.188,.64-1.89l-1.618-6.828,5.744-5.478c.944-.898,.71-2.46-.454-3.046l-9.968-5.032c-.134-.062-.266-.108-.408-.14l-1.616-.368Z" fill="#a8c2e1"/>
      <path d="M117.344,77.468l-18.024,4.836c.648,2.922,1.304,5.852,1.954,8.774,.234,1.008,1.234,1.64,2.242,1.422l13.516-3.008c.944-.202,1.586-1.094,1.468-2.054-.382-3.32-.766-6.648-1.156-9.97Z" fill="#a8c2e1"/>
      <path d="M80.938,79.274c-1.04,0-1.876,.844-1.884,1.874v9.414c0,5.18,4.242,9.43,9.414,9.43h3.774v-20.718h-11.304Z" fill="#a8c2e1"/>
      <path d="M46.446,42.602c.398,1.124,.476,2.374,.148,3.608-.868,3.25-4.258,5.196-7.508,4.322-.14-.032-.282-.078-.422-.134,.656,1.852,2.172,3.36,4.188,3.906,3.25,.868,6.64-1.078,7.508-4.328,.836-3.1-.922-6.336-3.914-7.374Z" fill="#143441"/>
      <path d="M22.906,26.484c-.5,.048-.952,.29-1.282,.672,0,0-4.078,4.712-5,9.828-.186,1.024,.494,1.992,1.516,2.18,1.024,.196,2.008-.484,2.196-1.516,.624-3.444,4.21-8.102,4.21-8.102,.658-.804,.54-1.984-.264-2.64-.384-.32-.876-.468-1.376-.422Z" fill="#fff"/>
      <path d="M14.36,72.242c-1.032-.132-1.978,.586-2.118,1.618l-1.25,9.594c-.132,1.022,.586,1.968,1.61,2.108,1.03,.142,1.976-.586,2.116-1.608l1.25-9.61c.126-1.024-.592-1.962-1.608-2.102Z" fill="#f9f9f9"/>
      <path d="M45.946,9.79c-.992,.312-1.54,1.374-1.228,2.366l.728,2.304c.312,.994,1.374,1.54,2.366,1.228s1.548-1.376,1.234-2.368l-.734-2.304c-.32-.992-1.374-1.54-2.366-1.226Z" fill="#d0e2ee"/>
      <path d="M62.868,6.188c-4.86-.282-9.056,.608-9.056,.608-1.016,.212-1.664,1.212-1.46,2.228,.218,1.016,1.21,1.672,2.226,1.46,0,0,3.79-.774,8.062-.53,1.048,.062,1.938-.736,1.992-1.774,.064-1.04-.734-1.93-1.764-1.992Z" fill="#d0e2ee"/>
      <path d="M38.508,107.672c-1.04-.008-1.89,.836-1.89,1.874v5.188c0,1.04,.85,1.884,1.89,1.876,1.032,0,1.874-.844,1.874-1.876v-5.188c0-1.03-.842-1.874-1.874-1.874Z" fill="#f9f9f9"/>
      <path d="M103.218,26.484c-.5-.046-.992,.102-1.382,.422-.796,.656-.914,1.836-.258,2.64,0,0,3.586,4.658,4.212,8.102,.186,1.024,1.164,1.704,2.178,1.516,1.024-.18,1.712-1.156,1.532-2.18-.922-5.116-5.024-9.828-5.024-9.828-.312-.382-.766-.624-1.258-.672Z" fill="#fff"/>
      <path d="M111.766,72.242c-1.024,.134-1.758,1.07-1.626,2.102l1.25,9.61c.142,1.022,1.086,1.75,2.11,1.608,1.04-.132,1.766-1.078,1.632-2.108l-1.25-9.594c-.14-1.032-1.086-1.75-2.116-1.618Z" fill="#f9f9f9"/>
      <path d="M81.446,79.922c-1.048-.008-1.892,.836-1.892,1.874v3.962c-.008,1.046,.844,1.898,1.892,1.89,1.038,0,1.874-.852,1.874-1.89v-3.962c-.008-1.038-.844-1.874-1.874-1.874Z" fill="#d0e2ee"/>
    </g>
  </g>
  <g id="j" data-name="16 - Ear"/>
  <g id="k" data-name="15 - Heart"/>
  <g id="l" data-name="14 - Kidneys"/>
  <g id="m" data-name="13 - Emergency Call"/>
  <g id="n" data-name="12 - X-Ray"/>
  <g id="o" data-name="11 - Lungs"/>
  <g id="p" data-name="10 - Dental Care"/>
  <g id="q" data-name="9 - Syringe"/>
  <g id="r" data-name="8 - Blood Bag"/>
  <g id="s" data-name="7 - Hospital Bed"/>
  <g id="t" data-name="6 - Thermometer"/>
  <g id="u" data-name="5 - Ambulance"/>
  <g id="v" data-name="4 - Pills"/>
  <g id="w" data-name="3 - Stethoscope"/>
  <g id="x" data-name="2 - Hospital Building"/>
  <g id="y" data-name="1 - First Aid Kit"/>
</svg>