<svg width="70" height="66" viewBox="0 0 70 66" fill="none" xmlns="http://www.w3.org/2000/svg">
<path fill-rule="evenodd" clip-rule="evenodd" d="M56.875 11H13.125C12.3196 11 11.6667 11.6156 11.6667 12.375V53.625C11.6667 54.3844 12.3196 55 13.125 55H56.875C57.6804 55 58.3333 54.3844 58.3333 53.625V12.375C58.3333 11.6156 57.6804 11 56.875 11ZM13.125 8.25C10.7088 8.25 8.75 10.0968 8.75 12.375V53.625C8.75 55.9032 10.7088 57.75 13.125 57.75H56.875C59.2913 57.75 61.25 55.9032 61.25 53.625V12.375C61.25 10.0968 59.2913 8.25 56.875 8.25H13.125Z" fill="#263667"/>
<path fill-rule="evenodd" clip-rule="evenodd" d="M40.3472 15.2778V13.75H43.2638V15.2778C43.2638 16.0372 43.9169 16.6528 44.7222 16.6528H50.5555C52.1664 16.6528 53.4722 17.8841 53.4722 19.4028V33C53.4722 33.7594 52.8193 34.375 52.0138 34.375C51.2085 34.375 50.5555 33.7594 50.5555 33V19.4028H44.7222C42.306 19.4028 40.3472 17.556 40.3472 15.2778Z" fill="#263667"/>
<path d="M40.6714 21.5417C40.6714 20.7823 41.3243 20.1667 42.1297 20.1667H46.0185C46.8239 20.1667 47.4768 20.7823 47.4768 21.5417V27.3473C47.4768 28.1067 46.8239 28.7223 46.0185 28.7223H42.1297C41.3243 28.7223 40.6714 28.1067 40.6714 27.3473V21.5417Z" fill="#263667"/>
<path fill-rule="evenodd" clip-rule="evenodd" d="M43.5881 22.9167V25.9723H44.5602V22.9167H43.5881ZM42.1297 20.1667C41.3243 20.1667 40.6714 20.7823 40.6714 21.5417V27.3473C40.6714 28.1067 41.3243 28.7223 42.1297 28.7223H46.0185C46.8239 28.7223 47.4768 28.1067 47.4768 27.3473V21.5417C47.4768 20.7823 46.8239 20.1667 46.0185 20.1667H42.1297Z" fill="#263667"/>
<path fill-rule="evenodd" clip-rule="evenodd" d="M42.6157 20.7014V16.9583H45.5324V20.7014H42.6157Z" fill="#263667"/>
<path d="M50.9547 32.0017H30.5876C30.4951 32.0017 30.4065 31.9668 30.341 31.9046L23.4154 25.3306C21.6544 23.659 18.8022 23.659 17.0413 25.3306C15.2763 27.0059 15.2763 29.7251 17.0413 31.4004L26.238 40.1303C26.4779 40.358 26.8031 40.4858 27.142 40.4858H50.9547C53.419 40.4858 55.4166 38.5866 55.4166 36.2437C55.4166 33.9008 53.419 32.0017 50.9547 32.0017Z" fill="#263667"/>
<path fill-rule="evenodd" clip-rule="evenodd" d="M50.9547 34.7517H30.5876C29.7145 34.7517 28.8821 34.422 28.2716 33.8425L30.341 31.9046C30.4065 31.9668 30.4951 32.0017 30.5876 32.0017H50.9547C53.419 32.0017 55.4166 33.9008 55.4166 36.2437C55.4166 38.5866 53.419 40.4858 50.9547 40.4858H27.142C26.8031 40.4858 26.4779 40.358 26.238 40.1303L17.0413 31.4004C15.2763 29.7251 15.2763 27.0059 17.0413 25.3306C18.8022 23.659 21.6544 23.659 23.4154 25.3306L30.341 31.9046L28.2716 33.8425L21.3461 27.2685C20.7256 26.6797 19.731 26.6797 19.1105 27.2685C18.4754 27.8715 18.4754 28.8595 19.1105 29.4625L27.8265 37.7358H50.9547C51.7852 37.7358 52.4999 37.0895 52.4999 36.2437C52.4999 35.3981 51.7852 34.7517 50.9547 34.7517Z" fill="#263667"/>
<path d="M17.5 31.625L20.4167 32.875V45.375H17.5V31.625Z" fill="#263667"/>
<path fill-rule="evenodd" clip-rule="evenodd" d="M17.5 31.625V45.375H20.4167V32.875L17.5 31.625Z" fill="#263667"/>
<path d="M48.125 39.875H51.0417V45.375H48.125V39.875Z" fill="#263667"/>
<path fill-rule="evenodd" clip-rule="evenodd" d="M48.125 39.875V45.375H51.0417V39.875H48.125Z" fill="#263667"/>
<path fill-rule="evenodd" clip-rule="evenodd" d="M55.4166 46.1389H14.5833V43.3889H55.4166V46.1389Z" fill="#263667"/>
<path d="M24.7916 48.5069C24.7916 50.5741 23.0141 52.25 20.8217 52.25C18.6291 52.25 16.8518 50.5741 16.8518 48.5069C16.8518 46.4396 18.6291 44.7639 20.8217 44.7639C23.0141 44.7639 24.7916 46.4396 24.7916 48.5069Z" fill="#263667"/>
<path fill-rule="evenodd" clip-rule="evenodd" d="M20.8217 49.5C21.4034 49.5 21.8749 49.0554 21.8749 48.5069C21.8749 47.9585 21.4034 47.5139 20.8217 47.5139C20.24 47.5139 19.7685 47.9585 19.7685 48.5069C19.7685 49.0554 20.24 49.5 20.8217 49.5ZM20.8217 52.25C23.0141 52.25 24.7916 50.5741 24.7916 48.5069C24.7916 46.4396 23.0141 44.7639 20.8217 44.7639C18.6291 44.7639 16.8518 46.4396 16.8518 48.5069C16.8518 50.5741 18.6291 52.25 20.8217 52.25Z" fill="#263667"/>
<path d="M53.148 48.5069C53.148 50.5741 51.3707 52.25 49.1781 52.25C46.9857 52.25 45.2083 50.5741 45.2083 48.5069C45.2083 46.4396 46.9857 44.7639 49.1781 44.7639C51.3707 44.7639 53.148 46.4396 53.148 48.5069Z" fill="#263667"/>
<path fill-rule="evenodd" clip-rule="evenodd" d="M49.1781 49.5C49.7599 49.5 50.2313 49.0554 50.2313 48.5069C50.2313 47.9585 49.7599 47.5139 49.1781 47.5139C48.5964 47.5139 48.1249 47.9585 48.1249 48.5069C48.1249 49.0554 48.5964 49.5 49.1781 49.5ZM49.1781 52.25C51.3707 52.25 53.148 50.5741 53.148 48.5069C53.148 46.4396 51.3707 44.7639 49.1781 44.7639C46.9857 44.7639 45.2083 46.4396 45.2083 48.5069C45.2083 50.5741 46.9857 52.25 49.1781 52.25Z" fill="#263667"/>
<path fill-rule="evenodd" clip-rule="evenodd" d="M22.0255 23.2694C23.823 21.5761 26.7363 21.577 28.5327 23.2714L30.5745 25.1977C32.371 26.8924 32.37 29.6391 30.5723 31.3325L28.9049 32.9033L26.8435 30.9578L28.5108 29.3872C29.1688 28.7673 29.1693 27.762 28.5117 27.1418L26.4697 25.2155C25.812 24.5951 24.7451 24.5947 24.087 25.2147L22.4197 26.7855L20.3582 24.84L22.0255 23.2694Z" fill="#263667"/>
</svg>
