<svg width="70" height="66" viewBox="0 0 70 66" fill="none" xmlns="http://www.w3.org/2000/svg">
<path fill-rule="evenodd" clip-rule="evenodd" d="M56.875 11H13.125C12.3196 11 11.6667 11.6156 11.6667 12.375V53.625C11.6667 54.3844 12.3196 55 13.125 55H56.875C57.6804 55 58.3333 54.3844 58.3333 53.625V12.375C58.3333 11.6156 57.6804 11 56.875 11ZM13.125 8.25C10.7088 8.25 8.75 10.0968 8.75 12.375V53.625C8.75 55.9032 10.7088 57.75 13.125 57.75H56.875C59.2913 57.75 61.25 55.9032 61.25 53.625V12.375C61.25 10.0968 59.2913 8.25 56.875 8.25H13.125Z" fill="#263667"/>
<g clip-path="url(#clip0_67_7773)">
<path d="M19.2503 18.225C19.1987 18.125 19.2374 18 19.3405 17.95L20.9132 17.1125C21.0163 17.05 21.1452 17.1 21.2097 17.2L21.8413 18.3125C24.2261 17.6125 26.8687 18.6125 28.1062 20.8125L25.064 22.425C25.5667 23.325 25.2316 24.4375 24.3034 24.9375C23.3753 25.425 22.2151 25.1 21.7124 24.2L18.6573 25.8125C17.4198 23.6125 17.987 20.9125 19.8819 19.35L19.2503 18.225ZM40.739 48.65H50.9999V38.35H40.739V48.65ZM39.5659 38.425H31.2773C29.8335 38.425 28.6605 39.5625 28.6605 40.9625C28.6605 42.3625 29.8335 43.5 31.2773 43.5H39.5659V38.425ZM21.6866 48.65H39.553V44.5375H22.7566C22.1636 44.5375 21.6995 45 21.6995 45.5625V48.65H21.6866ZM28.0675 40.4375C28.0675 38.7375 26.6495 37.375 24.8964 37.375C23.1433 37.375 21.7253 38.75 21.7253 40.4375C21.7382 42.125 23.1562 43.5 24.8964 43.5C26.6495 43.5 28.0675 42.125 28.0675 40.4375ZM45.3667 31.8375L43.5878 26.9125C43.2398 25.9875 42.5823 25.2625 40.7132 25.2625H32.489C30.6198 25.275 29.9495 26 29.6015 26.925L27.8226 31.85C27.6937 32.1625 27.6163 32.8875 28.3511 33.3625L32.5405 36.0375C33.1464 36.425 33.9714 36.2625 34.3839 35.675C34.7835 35.0875 34.6159 34.2875 34.0101 33.8875L31.9991 32.6L30.6843 31.7625L31.6253 29.2625H32.9144L32.1538 31.2875L34.6804 32.9C35.2476 33.2625 35.6343 33.8125 35.7761 34.4625C35.9179 35.1125 35.7761 35.7625 35.4023 36.3125C35.2476 36.5375 35.0671 36.725 34.8608 36.875H38.3542C38.148 36.7125 37.9675 36.525 37.8128 36.3125C37.439 35.7625 37.3101 35.1 37.439 34.4625C37.5808 33.8125 37.9675 33.2625 38.5347 32.9L41.0612 31.2875L40.2878 29.25H41.5769L42.5179 31.75L41.203 32.5875L39.1921 33.875C38.5862 34.2625 38.4058 35.0625 38.8183 35.6625C39.2179 36.25 40.0429 36.425 40.6616 36.025L44.8511 33.35C45.573 32.875 45.4956 32.1625 45.3667 31.8375ZM37.4132 20.45C37.2198 20.8625 36.7816 21.1625 36.2788 21.1625C35.7761 21.1625 35.3378 20.875 35.1444 20.45H32.8499C32.8112 20.65 32.7855 20.85 32.7855 21.05C32.7855 22.925 34.3581 24.45 36.2917 24.45C38.2253 24.45 39.798 22.925 39.798 21.05C39.798 20.8375 39.7722 20.6375 39.7335 20.45H37.4132ZM35.0671 19.65C35.2089 19.125 35.6987 18.725 36.2788 18.725C36.8589 18.725 37.3616 19.1125 37.4905 19.65H39.4757C38.9214 18.475 37.7097 17.65 36.2917 17.65C34.8737 17.65 33.662 18.4625 33.1077 19.65H35.0671Z" fill="#263667" stroke="#263667" stroke-width="0.002"/>
</g>
<defs>
<clipPath id="clip0_67_7773">
<rect width="33" height="32" fill="white" transform="translate(18 17)"/>
</clipPath>
</defs>
</svg>
