<svg width="70" height="66" viewBox="0 0 70 66" fill="none" xmlns="http://www.w3.org/2000/svg">
<path fill-rule="evenodd" clip-rule="evenodd" d="M56.875 11H13.125C12.3196 11 11.6667 11.6156 11.6667 12.375V53.625C11.6667 54.3844 12.3196 55 13.125 55H56.875C57.6804 55 58.3333 54.3844 58.3333 53.625V12.375C58.3333 11.6156 57.6804 11 56.875 11ZM13.125 8.25C10.7088 8.25 8.75 10.0968 8.75 12.375V53.625C8.75 55.9032 10.7088 57.75 13.125 57.75H56.875C59.2913 57.75 61.25 55.9032 61.25 53.625V12.375C61.25 10.0968 59.2913 8.25 56.875 8.25H13.125Z" fill="#263667"/>
<g clip-path="url(#clip0_67_7773)">
<path d="M50.8922 30.601L35.6884 15.5689L35.6917 15.576C33.9782 13.8585 31.7199 12.9962 29.4724 13C27.2281 12.9962 24.9697 13.8585 23.2561 15.576C21.5391 17.2891 20.6771 19.5439 20.6803 21.7923C20.6771 24.0395 21.5391 26.2976 23.2561 28.0114L26.8442 31.561C26.736 31.5577 26.6277 31.5577 26.5198 31.5577C23.5771 31.5577 20.9039 32.2976 18.9038 33.5504C17.9055 34.1785 17.0714 34.9359 16.4781 35.819C15.8815 36.6988 15.5322 37.7107 15.5322 38.7789V44.775C15.5322 45.8427 15.8815 46.8551 16.4781 47.7349C17.3717 49.0576 18.7919 50.1077 20.5233 50.845C22.258 51.5811 24.3138 51.9962 26.5198 52C29.4584 51.9962 32.1318 51.2567 34.1316 50.0035C35.1332 49.3787 35.9639 48.6181 36.5608 47.735C37.1544 46.8552 37.5033 45.8427 37.5033 44.7751V42.0981L38.4596 43.0446L38.4563 43.0369C40.1697 44.7539 42.4281 45.6167 44.6756 45.6129C46.9201 45.6167 49.1783 44.7539 50.8921 43.0408C52.609 41.3232 53.4678 39.0689 53.4678 36.8206C53.4679 34.5728 52.6091 32.3179 50.8922 30.601ZM25.7764 24.3257C24.321 22.8671 24.321 20.4691 25.7971 18.993C26.509 18.2809 27.4583 17.8866 28.4709 17.8866L25.7764 24.3257ZM17.2773 38.7789C17.2806 38.0913 17.4936 37.4354 17.9234 36.7927C18.3005 36.2313 18.8551 35.6934 19.5495 35.2155L32.9033 43.0303C32.5997 43.1974 32.2786 43.3547 31.9397 43.4978C30.4077 44.1503 28.537 44.5343 26.5199 44.5343C23.825 44.5381 21.3959 43.8468 19.6825 42.7682C18.824 42.2276 18.1468 41.5952 17.693 40.9185C17.525 40.6668 17.3858 40.4124 17.2774 40.1507L17.2773 38.7789ZM35.7583 44.7751C35.7583 45.4626 35.5418 46.1191 35.1128 46.7608C34.4701 47.7175 33.329 48.6038 31.8318 49.2395C30.3379 49.8747 28.5019 50.2553 26.5199 50.2553C23.874 50.2553 21.4903 49.5743 19.8326 48.5274C19.0017 48.007 18.3523 47.3964 17.9234 46.7608C17.4937 46.1191 17.2806 45.4626 17.2773 44.7751V42.3007C18.1218 43.2357 19.2739 44.0145 20.6315 44.59C22.3277 45.3098 24.3485 45.7215 26.5199 45.7215C29.4131 45.7215 32.0378 44.9913 33.9851 43.7697C34.6691 43.3442 35.266 42.8522 35.7583 42.3039V44.7751ZM35.7583 40.1507C35.7376 40.2031 35.7163 40.2517 35.6884 40.3041C35.5945 40.5138 35.479 40.7159 35.3427 40.9185C35.0497 41.3581 34.6552 41.7737 34.1876 42.1609L20.9666 34.4264C21.0468 34.3914 21.1239 34.3494 21.2039 34.3182C22.6977 33.6831 24.5338 33.3025 26.5199 33.3025C27.3015 33.3025 28.0592 33.362 28.7814 33.4739C30.5057 33.7355 32.0343 34.2937 33.2035 35.0265C33.3465 35.1138 33.4828 35.2084 33.6117 35.3028C34.2435 35.7529 34.7426 36.2519 35.0951 36.7724C35.1022 36.779 35.1091 36.7861 35.1129 36.7926C35.5419 37.4353 35.7584 38.0913 35.7584 38.7788V40.1507H35.7583ZM49.4123 41.5568C48.1 42.8664 46.3929 43.5184 44.6757 43.5184C42.9551 43.5184 41.2486 42.8691 39.936 41.5568L39.9325 41.5536L37.5034 39.1523V38.7789C37.5034 37.7106 37.1545 36.6987 36.5608 35.819C35.8143 34.7197 34.7079 33.8088 33.3604 33.1108C33.5281 32.6745 33.7408 32.1994 34.0027 31.7117C34.7426 30.3219 35.8526 28.8141 37.3221 27.6558C38.7843 26.5003 40.5821 25.6767 42.8053 25.5505L49.4088 32.0808H49.4123C50.721 33.3931 51.3736 35.1036 51.3736 36.8205C51.3736 38.538 50.721 40.2484 49.4123 41.5568Z" fill="#263667"/>
</g>
<defs>
<clipPath id="clip0_67_7773">
<rect width="39" height="39" fill="white" transform="translate(15 13)"/>
</clipPath>
</defs>
</svg>
