<svg width="70" height="66" viewBox="0 0 70 66" fill="none" xmlns="http://www.w3.org/2000/svg">
<path fill-rule="evenodd" clip-rule="evenodd" d="M56.875 11H13.125C12.3196 11 11.6667 11.6156 11.6667 12.375V53.625C11.6667 54.3844 12.3196 55 13.125 55H56.875C57.6804 55 58.3333 54.3844 58.3333 53.625V12.375C58.3333 11.6156 57.6804 11 56.875 11ZM13.125 8.25C10.7088 8.25 8.75 10.0968 8.75 12.375V53.625C8.75 55.9032 10.7088 57.75 13.125 57.75H56.875C59.2913 57.75 61.25 55.9032 61.25 53.625V12.375C61.25 10.0968 59.2913 8.25 56.875 8.25H13.125Z" fill="#263667"/>
<path d="M50.1254 28.1708C49.5187 25.1884 49.9061 18.9437 39.5792 17.297C29.255 15.6487 19.9513 20.8877 22.2916 32.3378C22.2916 34.4249 18.1591 37.6646 19.1548 38.7598C20.1504 39.8551 21.8401 39.8978 21.8401 39.8978C21.8401 39.8978 20.7417 41.9848 21.2357 42.5612C21.7292 43.1376 23.1025 42.891 23.1025 42.891C23.1025 42.891 21.8265 43.8105 21.8265 44.5238C21.8265 45.2379 23.9811 46.1861 23.9811 46.1861C23.9811 46.1861 23.5859 50.1353 26.8215 49.8615C30.057 49.5877 30.6019 48.6737 30.6019 48.6737L31.5618 52.6665H44.0846L43.6443 43.9886C43.6443 43.9894 51.3343 35.6406 50.1254 28.1708ZM45.2529 32.8699L41.7619 33.6501L40.2124 32.2562L40.7607 30.8622H45.2529V32.8699ZM45.0911 20.813L47.6737 23.5495L45.0911 25.7182H43.6459V24.3242L44.472 23.2663L44.3692 21.4983L45.0911 20.813ZM43.6459 19.573L43.4919 23.4118L42.15 25.4256L41.2702 25.0982L41.3869 22.7841L39.128 22.0777L41.0649 19.1568L43.6459 19.573ZM34.9136 22.2194L34.9525 19.0293L38.2833 19.0573L39.8514 19.7543L38.845 21.3427L38.0189 22.5165L40.4963 23.2921V24.8921L39.9806 26.3366L36.7782 26.5435V25.9765L36.1769 25.7182L35.5908 27.5291L34.0222 28.1459L31.8986 26.6221L32.8021 25.0212L34.0934 25.46L34.3123 24.6852L33.629 24.1688L34.1004 23.2649L36.7782 24.1688L37.5786 23.8071L34.9136 22.2194ZM28.9299 23.3939C29.0847 23.3939 32.0802 23.3939 32.0802 23.3939L29.6016 22.3104L30.3502 21.0191L34.0222 19.5925V21.8195L31.5116 21.853L33.2155 22.8782L31.6143 25.9757H28.6195C28.6203 25.9764 28.7747 23.3939 28.9299 23.3939ZM28.6879 26.622H30.8823L33.7219 28.5737L31.9145 29.2955L28.6879 26.622ZM32.8028 31.1913V29.4356L33.8358 28.8677L36.4179 29.9521L38.0172 30.4686L38.2241 29.6674L36.1597 28.8677L36.3137 27.4738L39.4127 27.5765L42.1492 25.9764L44.8857 26.8025L47.7778 24.6852L49.3273 27.319L45.6091 27.5765L44.9899 29.1774L46.6935 29.3835L45.5057 28.8157L45.7639 27.9896L49.0854 27.8799L48.8232 30.7673L45.7569 30.7844L44.3692 29.5904L42.4058 30.3395L40.8766 30.2812L42.2005 29.0226L39.2314 28.8873L40.2901 30.2104L39.3606 32.2757H34.4037L32.8028 31.1913ZM40.6534 36.1229L37.857 33.2051C38.2195 33.2051 39.8195 32.74 39.8195 32.74L42.2022 35.3995L40.6534 36.1229Z" fill="#263667" stroke="#263667" stroke-width="0.000409997"/>
</svg>
