<svg width="70" height="66" viewBox="0 0 70 66" fill="none" xmlns="http://www.w3.org/2000/svg">
<path fill-rule="evenodd" clip-rule="evenodd" d="M11.2658 35.7166L11.5153 35.229C12.9904 32.3465 12.9506 29.8482 12.9161 27.6848L12.914 27.5562C12.9042 26.927 12.8952 26.3333 12.9105 25.7144C12.9735 23.3438 13.7861 21.0271 15.2695 19.0341C16.9705 17.1032 19.2002 15.5761 21.7609 14.6084L21.8078 14.5905L21.8542 14.5713C24.7382 13.37 27.8402 12.6484 31.0077 12.4389C30.7569 13.5268 30.6249 14.6557 30.6249 15.8125C30.6249 24.5455 38.1334 31.625 47.3958 31.625C48.5159 31.625 49.6114 31.5213 50.6716 31.3232C49.7446 34.8389 47.1378 37.8212 43.5673 40.3373L42.3969 41.1621V49.8508C41.9703 50.3004 41.1624 50.8769 39.9284 51.3906C38.3574 52.0444 36.7811 52.3073 35.8783 52.24L35.7634 52.2313H35.648C32.3649 52.2313 31.2422 51.1891 30.9442 50.8588L30.9354 50.849V45.9679L27.1143 47.1496L27.1127 47.15L27.1106 47.1507L27.0962 47.1549C27.078 47.1604 27.0462 47.1698 27.0017 47.1826C26.9127 47.208 26.7738 47.2467 26.5913 47.2941C26.2254 47.3892 25.6902 47.5182 25.0388 47.6458C24.9545 47.6623 24.8684 47.6788 24.7805 47.6952C22.4781 48.1235 19.4736 48.3761 17.1944 47.675C16.1269 47.3466 15.3387 46.846 14.7968 46.144C14.2556 45.4433 13.7696 44.2956 13.7696 42.3536V39.9915L11.3044 39.6367L11.2924 39.6348C11.2768 39.6323 11.2469 39.6274 11.2046 39.6198C11.1194 39.6044 10.987 39.5788 10.8227 39.5416C10.4854 39.465 10.0562 39.3484 9.63981 39.1878C9.23883 39.0331 8.95323 38.877 8.78129 38.7489C8.79691 38.6969 8.82052 38.6298 8.85627 38.5466C8.99278 38.2286 9.23323 37.8461 9.55336 37.4388C9.86497 37.0424 10.1979 36.6905 10.4583 36.4343C10.5863 36.3085 10.6914 36.211 10.7603 36.1488C10.7945 36.1177 10.8194 36.0958 10.8332 36.0837L10.8424 36.0756L10.8443 36.0741L11.2658 35.7166ZM32.9778 9.62502C33.4257 10.2508 33.8601 10.8564 34.2845 11.4432L34.3295 11.4582L34.3179 11.4894C39.9365 19.2555 43.8067 23.7401 53.9583 28.4554C53.9583 34.4638 50.1962 39.0992 45.3136 42.54V50.6675C43.928 53.3247 38.7016 55.2093 35.648 54.9813C31.595 54.9813 29.628 53.644 28.7228 52.6409C28.6727 52.5854 28.6258 52.5309 28.5821 52.4777C28.5262 52.4099 28.4755 52.3442 28.4293 52.2812C28.1192 51.8581 28.0187 51.5577 28.0187 51.5577V49.764C28.0187 49.764 27.0758 50.0556 25.6319 50.3383C25.5384 50.3568 25.4427 50.3749 25.3452 50.3932C25.2654 50.4079 25.1845 50.4228 25.1021 50.4373C20.2034 51.3081 10.8529 51.7408 10.8529 42.3536C10.8529 42.3536 6.33262 41.7031 5.87485 39.3408C5.41709 36.9784 8.88841 34.034 8.88841 34.034C10.0626 31.7395 10.0322 29.7997 9.99769 27.5969C9.98792 26.9731 9.97781 26.3278 9.99465 25.6479C10.0728 22.6886 11.0992 19.8121 12.951 17.3625C14.9789 15.0308 17.6382 13.2038 20.6756 12.0558C24.5298 10.4503 28.7287 9.62069 32.9778 9.62502ZM33.5416 15.8125C33.5416 15.6339 33.5454 15.4562 33.553 15.2796C35.5426 17.9387 37.4682 20.2857 39.6844 22.4135C42.1573 24.7875 44.9463 26.8492 48.5318 28.8318C48.1573 28.8604 47.7784 28.875 47.3958 28.875C39.7443 28.875 33.5416 23.0267 33.5416 15.8125ZM55.6075 52.25V39.875C55.6075 38.5417 56.2783 37.3561 57.3193 36.6021C56.291 35.9942 55.6075 34.9162 55.6075 33.6875V14.4375C55.6075 12.539 57.2397 11 59.2533 11C61.2668 11 62.8992 12.539 62.8992 14.4375V33.6875C62.8992 34.6456 62.4834 35.5123 61.8127 36.1356C63.3299 36.802 64.4171 38.2729 64.1164 40.0793C63.5378 43.5566 62.0174 46.1693 60.6393 47.9131C59.9504 48.7849 59.2944 49.4429 58.8031 49.8887C58.5573 50.1117 58.3518 50.2824 58.2029 50.4008C58.1284 50.46 58.068 50.5061 58.0237 50.5394C58.0015 50.5559 57.9834 50.5693 57.9694 50.5794L57.9518 50.5922L57.9455 50.5967L57.9429 50.5985C57.9424 50.5989 57.9408 50.6 57.0658 49.5L57.9408 50.6L55.6075 52.25ZM58.5242 29.6805V26.6945L59.9825 25.3195V28.3055L58.5242 29.6805ZM58.5242 14.4375V22.8055L59.9825 21.4305V14.4375C59.9825 14.0579 59.656 13.75 59.2533 13.75C58.8505 13.75 58.5242 14.0579 58.5242 14.4375ZM59.9825 32.1945V33.6875C59.9825 34.0671 59.656 34.375 59.2533 34.375C58.8505 34.375 58.5242 34.0671 58.5242 33.6875V33.5695L59.9825 32.1945ZM58.5242 45.9797C59.6213 44.5178 60.7763 42.4102 61.235 39.6531C61.3215 39.1333 60.8624 38.5 59.9825 38.5C59.1771 38.5 58.5242 39.1156 58.5242 39.875V45.9797Z" fill="#263667"/>
</svg>
