<svg width="70" height="66" viewBox="0 0 70 66" fill="none" xmlns="http://www.w3.org/2000/svg">
<path fill-rule="evenodd" clip-rule="evenodd" d="M56.875 11H13.125C12.3196 11 11.6667 11.6156 11.6667 12.375V53.625C11.6667 54.3844 12.3196 55 13.125 55H56.875C57.6804 55 58.3333 54.3844 58.3333 53.625V12.375C58.3333 11.6156 57.6804 11 56.875 11ZM13.125 8.25C10.7088 8.25 8.75 10.0968 8.75 12.375V53.625C8.75 55.9032 10.7088 57.75 13.125 57.75H56.875C59.2913 57.75 61.25 55.9032 61.25 53.625V12.375C61.25 10.0968 59.2913 8.25 56.875 8.25H13.125Z" fill="#263667"/>
<path fill-rule="evenodd" clip-rule="evenodd" d="M55.4166 33.55C55.4166 33.55 44.1874 22 35.0536 22C25.9199 22 14.5833 33.55 14.5833 33.55C14.5833 33.55 25.9199 45.1 35.0536 45.1C44.1874 45.1 55.4166 33.55 55.4166 33.55ZM23.1731 29.9537C21.398 31.2428 19.8551 32.538 18.7176 33.55C19.8551 34.562 21.398 35.8572 23.1731 37.1463C25.0674 38.5221 27.1706 39.8504 29.2837 40.8251C31.4223 41.8117 33.3867 42.35 35.0536 42.35C36.7194 42.35 38.6759 41.8124 40.8023 40.8272C42.9038 39.8535 44.9927 38.5267 46.8729 37.1519C48.6393 35.8603 50.1726 34.5625 51.3007 33.55C50.1726 32.5374 48.6393 31.2397 46.8729 29.948C44.9927 28.5733 42.9038 27.2465 40.8023 26.2728C38.6759 25.2876 36.7194 24.75 35.0536 24.75C33.3867 24.75 31.4223 25.2883 29.2837 26.2749C27.1706 27.2496 25.0674 28.5779 23.1731 29.9537Z" fill="#263667"/>
<path fill-rule="evenodd" clip-rule="evenodd" d="M34.9999 41.3874C39.5908 41.3874 43.3124 37.8784 43.3124 33.5499C43.3124 29.2214 39.5908 25.7124 34.9999 25.7124C30.4091 25.7124 26.6874 29.2214 26.6874 33.5499C26.6874 37.8784 30.4091 41.3874 34.9999 41.3874ZM34.9999 44.1374C41.2016 44.1374 46.2291 39.3972 46.2291 33.5499C46.2291 27.7026 41.2016 22.9624 34.9999 22.9624C28.7982 22.9624 23.7708 27.7026 23.7708 33.5499C23.7708 39.3972 28.7982 44.1374 34.9999 44.1374Z" fill="#263667"/>
<path fill-rule="evenodd" clip-rule="evenodd" d="M34.9999 38.3625C37.8189 38.3625 40.1041 36.2079 40.1041 33.55C40.1041 32.3549 39.6421 31.2615 38.8772 30.42C39.0081 30.6328 39.0833 30.8801 39.0833 31.1439C39.0833 31.9413 38.3977 32.5877 37.552 32.5877C36.7063 32.5877 36.0208 31.9413 36.0208 31.1439C36.0208 30.3466 36.7063 29.7002 37.552 29.7002C37.8319 29.7002 38.0941 29.771 38.3198 29.8946C37.4273 29.1733 36.2676 28.7375 34.9999 28.7375C32.181 28.7375 29.8958 30.8922 29.8958 33.55C29.8958 36.2079 32.181 38.3625 34.9999 38.3625Z" fill="#263667"/>
</svg>
