<svg width="70" height="66" viewBox="0 0 70 66" fill="none" xmlns="http://www.w3.org/2000/svg">
<path fill-rule="evenodd" clip-rule="evenodd" d="M56.875 11H13.125C12.3196 11 11.6667 11.6156 11.6667 12.375V53.625C11.6667 54.3844 12.3196 55 13.125 55H56.875C57.6804 55 58.3333 54.3844 58.3333 53.625V12.375C58.3333 11.6156 57.6804 11 56.875 11ZM13.125 8.25C10.7088 8.25 8.75 10.0968 8.75 12.375V53.625C8.75 55.9032 10.7088 57.75 13.125 57.75H56.875C59.2913 57.75 61.25 55.9032 61.25 53.625V12.375C61.25 10.0968 59.2913 8.25 56.875 8.25H13.125Z" fill="#263667"/>
<path fill-rule="evenodd" clip-rule="evenodd" d="M26.858 15.0978C25.9792 14.9427 25.1563 15.5715 25.1563 16.4145C25.1563 17.1492 24.5245 17.7448 23.7453 17.7448H23.3333C22.5279 17.7448 21.875 18.3604 21.875 19.1198V20.3216C21.875 21.0809 22.5279 21.6966 23.3333 21.6966H23.6979C24.5034 21.6966 25.1563 22.3122 25.1563 23.0716V23.5913C25.1563 24.2201 25.6108 24.7709 26.2593 24.9177C33.07 26.4593 37.2441 26.4608 43.7564 24.9252C44.3975 24.7741 44.8438 24.2267 44.8438 23.6036V23.0716C44.8438 22.3122 45.4966 21.6966 46.3021 21.6966H46.6667C47.4721 21.6966 48.125 21.0809 48.125 20.3216V19.1198C48.125 18.3604 47.4721 17.7448 46.6667 17.7448H46.2528C45.4746 17.7448 44.8438 17.1501 44.8438 16.4164C44.8438 15.5732 44.0195 14.9451 43.1407 15.1014C37.0271 16.1889 32.9706 16.176 26.858 15.0978ZM29.8958 18.8892C29.8958 18.1298 29.2429 17.5142 28.4375 17.5142C27.6321 17.5142 26.9792 18.1298 26.9792 18.8892V21.9695C26.9792 22.7289 27.6321 23.3445 28.4375 23.3445C29.2429 23.3445 29.8958 22.7289 29.8958 21.9695V18.8892Z" fill="#263667"/>
<path fill-rule="evenodd" clip-rule="evenodd" d="M26.858 27.4728C25.9792 27.3177 25.1563 27.9465 25.1563 28.7895C25.1563 29.5242 24.5245 30.1198 23.7453 30.1198H23.3333C22.5279 30.1198 21.875 30.7354 21.875 31.4948V32.6966C21.875 33.4559 22.5279 34.0716 23.3333 34.0716H23.6979C24.5034 34.0716 25.1563 34.6872 25.1563 35.4466V35.9663C25.1563 36.5951 25.6108 37.1459 26.2593 37.2927C33.07 38.8343 37.2441 38.8358 43.7564 37.3002C44.3975 37.1491 44.8438 36.6017 44.8438 35.9786V35.4466C44.8438 34.6872 45.4966 34.0716 46.3021 34.0716H46.6667C47.4721 34.0716 48.125 33.4559 48.125 32.6966V31.4948C48.125 30.7354 47.4721 30.1198 46.6667 30.1198H46.2528C45.4746 30.1198 44.8438 29.5251 44.8438 28.7914C44.8438 27.9482 44.0195 27.3201 43.1407 27.4764C37.0271 28.5639 32.9706 28.551 26.858 27.4728ZM29.8958 31.2642C29.8958 30.5048 29.2429 29.8892 28.4375 29.8892C27.6321 29.8892 26.9792 30.5048 26.9792 31.2642V34.3445C26.9792 35.1039 27.6321 35.7195 28.4375 35.7195C29.2429 35.7195 29.8958 35.1039 29.8958 34.3445V31.2642Z" fill="#263667"/>
<path fill-rule="evenodd" clip-rule="evenodd" d="M26.858 39.8478C25.9792 39.6927 25.1563 40.3215 25.1563 41.1645C25.1563 41.8992 24.5245 42.4948 23.7453 42.4948H23.3333C22.5279 42.4948 21.875 43.1104 21.875 43.8698V45.0716C21.875 45.8309 22.5279 46.4466 23.3333 46.4466H23.6979C24.5034 46.4466 25.1563 47.0622 25.1563 47.8216V48.3413C25.1563 48.9701 25.6108 49.5209 26.2593 49.6677C33.07 51.2093 37.2441 51.2108 43.7564 49.6752C44.3975 49.5241 44.8438 48.9767 44.8438 48.3536V47.8216C44.8438 47.0622 45.4966 46.4466 46.3021 46.4466H46.6667C47.4721 46.4466 48.125 45.8309 48.125 45.0716V43.8698C48.125 43.1104 47.4721 42.4948 46.6667 42.4948H46.2528C45.4746 42.4948 44.8438 41.9001 44.8438 41.1664C44.8438 40.3232 44.0195 39.6951 43.1407 39.8514C37.0271 40.9389 32.9706 40.926 26.858 39.8478ZM29.8958 43.6392C29.8958 42.8798 29.2429 42.2642 28.4375 42.2642C27.6321 42.2642 26.9792 42.8798 26.9792 43.6392V46.7195C26.9792 47.4789 27.6321 48.0945 28.4375 48.0945C29.2429 48.0945 29.8958 47.4789 29.8958 46.7195V43.6392Z" fill="#263667"/>
</svg>
