<svg width="70" height="66" viewBox="0 0 70 66" fill="none" xmlns="http://www.w3.org/2000/svg">
<path fill-rule="evenodd" clip-rule="evenodd" d="M56.875 11H13.125C12.3196 11 11.6667 11.6156 11.6667 12.375V53.625C11.6667 54.3844 12.3196 55 13.125 55H56.875C57.6804 55 58.3333 54.3844 58.3333 53.625V12.375C58.3333 11.6156 57.6804 11 56.875 11ZM13.125 8.25C10.7088 8.25 8.75 10.0968 8.75 12.375V53.625C8.75 55.9032 10.7088 57.75 13.125 57.75H56.875C59.2913 57.75 61.25 55.9032 61.25 53.625V12.375C61.25 10.0968 59.2913 8.25 56.875 8.25H13.125Z" fill="#263667"/>
<path d="M30.7025 15.0451C30.635 15.0591 30.5647 15.0845 30.5 15.1126L25.3475 17.2501C24.816 17.4723 24.5432 18.1023 24.7625 18.6451L25.01 19.3426C25.1732 19.742 25.5697 19.9951 26 19.9951C26.1407 19.9951 26.2757 19.9585 26.405 19.9051L26.945 19.6801L27.35 20.6251L31.3775 18.9826L30.95 18.0151L31.5575 17.7676C31.8219 17.6579 32.0357 17.447 32.1425 17.1826C32.2494 16.921 32.2297 16.651 32.12 16.3951L31.895 15.6751C31.6982 15.2195 31.1722 14.9551 30.7025 15.0451ZM33.0425 19.9951C32.7444 19.9726 32.4547 20.0795 32.0525 20.2426L27.7775 21.9976C26.6047 22.4645 26.4219 22.8948 26.9 24.0901L29.9825 31.5151L37.205 28.6351L34.1 21.0976C33.9032 20.5998 33.7457 20.237 33.335 20.0626C33.2338 20.0176 33.141 20.0035 33.0425 19.9951ZM25.7525 25.0576C22.6757 26.8801 21.2891 30.736 22.67 34.1476L23.6825 36.5551C24.8807 35.2304 26.5963 34.3726 28.52 34.3726C28.5454 34.3726 28.5622 34.3951 28.5875 34.3951L27.6875 32.1001C27.4372 31.4785 27.5525 30.7923 27.9125 30.2776L25.7525 25.0576ZM37.745 29.9851L30.5225 32.8651L30.9725 33.9676C31.0457 34.142 31.1835 34.277 31.355 34.3501L33.4025 35.2276C33.4925 35.267 33.5994 35.2951 33.695 35.2951C33.785 35.2951 33.8807 35.2613 33.965 35.2276L36.9125 34.0576C37.0897 33.9873 37.2191 33.8495 37.295 33.6751L38.195 31.6051C38.271 31.4279 38.2682 31.2423 38.195 31.0651L37.745 29.9851ZM42.56 34.7326C42.5291 34.7382 42.4982 34.7466 42.47 34.7551C42.4082 34.7635 42.3491 34.7776 42.29 34.8001L33.0425 38.6026C32.196 36.9573 30.4944 35.8126 28.52 35.8126C25.7075 35.8126 23.4125 38.1076 23.4125 40.9201C23.4125 43.7326 25.7075 46.0276 28.52 46.0276C31.3325 46.0276 33.6275 43.7326 33.6275 40.9201C33.6275 40.591 33.5741 40.2648 33.515 39.9526L42.83 36.1501C43.221 36.0741 43.4797 35.6973 43.4038 35.3063C43.3279 34.9154 42.951 34.6566 42.56 34.7326ZM42.8075 41.4826C42.4729 41.4826 42.1522 41.5416 41.84 41.6626L34.73 44.4076C34.5304 44.4863 34.2913 44.4891 34.0325 44.4301C33.6641 45.0095 33.2113 45.5241 32.6825 45.9601H44.855C45.0238 45.7632 45.1729 45.5523 45.2825 45.3076C45.5779 44.6438 45.6116 43.9154 45.35 43.2376C44.9479 42.197 43.9241 41.4826 42.8075 41.4826ZM24.11 47.4001C22.9682 47.4001 22.04 48.3704 22.04 49.5601V50.2801C22.04 50.6795 22.3635 51.0001 22.76 51.0001H47.24C47.6394 51.0001 47.96 50.6795 47.96 50.2801V49.5601C47.96 48.3704 47.0319 47.4001 45.89 47.4001H24.11Z" fill="#263667"/>
</svg>
