<svg width="70" height="66" viewBox="0 0 70 66" fill="none" xmlns="http://www.w3.org/2000/svg">
<path fill-rule="evenodd" clip-rule="evenodd" d="M56.875 11H13.125C12.3196 11 11.6667 11.6156 11.6667 12.375V53.625C11.6667 54.3844 12.3196 55 13.125 55H56.875C57.6804 55 58.3333 54.3844 58.3333 53.625V12.375C58.3333 11.6156 57.6804 11 56.875 11ZM13.125 8.25C10.7088 8.25 8.75 10.0968 8.75 12.375V53.625C8.75 55.9032 10.7088 57.75 13.125 57.75H56.875C59.2913 57.75 61.25 55.9032 61.25 53.625V12.375C61.25 10.0968 59.2913 8.25 56.875 8.25H13.125Z" fill="#263667"/>
<path fill-rule="evenodd" clip-rule="evenodd" d="M34.6758 25.5138C38.1213 25.5138 40.9143 22.8804 40.9143 19.632C40.9143 16.3834 38.1213 13.75 34.6758 13.75C31.2305 13.75 28.4375 16.3834 28.4375 19.632C28.4375 22.8804 31.2305 25.5138 34.6758 25.5138Z" fill="#263667"/>
<path fill-rule="evenodd" clip-rule="evenodd" d="M34.6758 23.4513C36.913 23.4513 38.7268 21.7414 38.7268 19.632C38.7268 17.5224 36.913 15.8125 34.6758 15.8125C32.4386 15.8125 30.625 17.5224 30.625 19.632C30.625 21.7414 32.4386 23.4513 34.6758 23.4513ZM40.9143 19.632C40.9143 22.8804 38.1213 25.5138 34.6758 25.5138C31.2305 25.5138 28.4375 22.8804 28.4375 19.632C28.4375 16.3834 31.2305 13.75 34.6758 13.75C38.1213 13.75 40.9143 16.3834 40.9143 19.632Z" fill="#263667"/>
<path fill-rule="evenodd" clip-rule="evenodd" d="M29.0046 34.0693V30.8608H40.3473V34.0693H29.0046ZM29.0046 36.2082V38.2831C29.0046 38.9604 29.6517 40.6999 31.6368 41.5335C31.864 41.6287 32.1193 41.7484 32.3489 41.8558L32.4839 41.9189C32.7658 42.0503 33.0388 42.1746 33.3149 42.2849C33.8905 42.5148 34.3394 42.6247 34.6759 42.6247C35.0124 42.6247 35.4614 42.5148 36.037 42.2849C36.3131 42.1746 36.5859 42.0503 36.868 41.9189L37.003 41.8558C37.2326 41.7484 37.4879 41.6287 37.7151 41.5335C39.7002 40.6999 40.3473 38.9604 40.3473 38.2831V36.2082H29.0046Z" fill="#263667"/>
<path fill-rule="evenodd" clip-rule="evenodd" d="M32.5267 39.6493C32.7963 39.7625 33.0862 39.8982 33.304 40.0002L33.4533 40.07C33.4537 40.0702 33.4542 40.0705 33.4546 40.0706C33.7292 40.1986 33.9544 40.3004 34.1682 40.3857C34.3876 40.4735 34.5425 40.5217 34.6423 40.5465C34.6549 40.5496 34.6662 40.5523 34.6759 40.5545C34.6857 40.5523 34.6969 40.5496 34.7096 40.5465C34.8094 40.5217 34.9643 40.4735 35.1836 40.3857C35.3975 40.3004 35.6227 40.1986 35.8973 40.0706C35.8977 40.0703 35.897 40.0707 35.8973 40.0706L36.0479 40.0002C36.2655 39.8982 36.5556 39.7625 36.8252 39.6493C37.3641 39.423 37.7048 39.085 37.9161 38.7634C38.024 38.5991 38.0924 38.4471 38.1307 38.3334C38.1392 38.3085 38.1455 38.2875 38.1501 38.2707H31.2018C31.2063 38.2875 31.2127 38.3085 31.221 38.3334C31.2595 38.4471 31.3278 38.5991 31.4358 38.7634C31.6471 39.085 31.9878 39.423 32.5267 39.6493ZM29.0046 36.2082H40.3473V38.2831C40.3473 38.9604 39.7002 40.6999 37.7151 41.5335C37.4879 41.6287 37.2326 41.7484 37.003 41.8558L36.868 41.9189C36.5859 42.0503 36.3131 42.1746 36.037 42.2849C35.4614 42.5148 35.0124 42.6247 34.6759 42.6247C34.3394 42.6247 33.8905 42.5148 33.3149 42.2849C33.0388 42.1746 32.7658 42.0503 32.4839 41.9189L32.3489 41.8558C32.1193 41.7484 31.864 41.6287 31.6368 41.5335C29.6517 40.6999 29.0046 38.9604 29.0046 38.2831V36.2082ZM29.0046 34.0693V30.8608H40.3473V34.0693H29.0046Z" fill="#263667"/>
<path fill-rule="evenodd" clip-rule="evenodd" d="M27.8482 41.2341C26.0884 42.6784 25.1194 44.4945 25.1194 46.8913C25.1194 47.8472 25.3362 49.2816 25.8999 50.4442C26.4771 51.6346 27.2521 52.2497 28.2316 52.2497C29.2825 52.2497 30.1721 51.4914 30.1721 50.5154C30.1721 50.0812 29.9772 49.6706 29.6688 49.0604L29.6485 49.0199C29.3691 48.4677 29.0004 47.7387 29.0004 46.8913C29.0004 45.9643 29.488 44.9803 30.0554 44.1839C30.2376 43.9283 30.4302 43.7203 30.6314 43.5408C29.2907 42.9662 28.39 42.0976 27.8482 41.2341Z" fill="#263667"/>
<path fill-rule="evenodd" clip-rule="evenodd" d="M29.4095 45.2758C29.1629 45.8019 29.0004 46.356 29.0004 46.8913C29.0004 47.7387 29.3691 48.4677 29.6485 49.0199L29.6688 49.0604C29.9772 49.6706 30.1721 50.0812 30.1721 50.5154C30.1721 51.4914 29.2825 52.2497 28.2316 52.2497C27.2521 52.2497 26.4771 51.6346 25.8999 50.4442C25.3362 49.2816 25.1194 47.8472 25.1194 46.8913C25.1194 45.3032 25.5449 43.9698 26.3441 42.8308C26.7508 42.2509 27.2545 41.7213 27.8482 41.2341C28.0896 41.6189 28.4022 42.0047 28.7934 42.3649C28.929 42.4899 29.0741 42.6119 29.229 42.7296C29.6294 43.0343 30.0952 43.3111 30.6314 43.5408C30.4302 43.7203 30.2376 43.9283 30.0554 44.1839C29.8157 44.5205 29.5901 44.8907 29.4095 45.2758Z" fill="#263667"/>
<path fill-rule="evenodd" clip-rule="evenodd" d="M38.7202 43.5401C40.061 42.9655 40.9617 42.0969 41.5034 41.2334C43.2632 42.6777 44.2323 44.4938 44.2323 46.8904C44.2323 47.8465 44.0154 49.2809 43.4518 50.4434C42.8746 51.6339 42.0995 52.2489 41.12 52.2489C40.0692 52.2489 39.1794 51.4906 39.1794 50.5145C39.1794 50.0804 39.3744 49.6697 39.6827 49.0595L39.7031 49.0192C39.9824 48.4669 40.3512 47.7378 40.3512 46.8904C40.3512 45.9634 39.8635 44.9796 39.2963 44.183C39.1141 43.9274 38.9215 43.7195 38.7202 43.5401Z" fill="#263667"/>
<path fill-rule="evenodd" clip-rule="evenodd" d="M40.1228 42.7288C39.7222 43.0335 39.2564 43.3103 38.7202 43.5401C38.9215 43.7195 39.1141 43.9274 39.2963 44.183C39.536 44.5196 39.7616 44.8898 39.9422 45.2751C40.1886 45.8011 40.3512 46.3553 40.3512 46.8904C40.3512 47.7378 39.9824 48.4669 39.7031 49.0192L39.6827 49.0595C39.3744 49.6697 39.1794 50.0804 39.1794 50.5145C39.1794 51.4906 40.0692 52.2489 41.12 52.2489C42.0995 52.2489 42.8746 51.6339 43.4518 50.4434C44.0154 49.2809 44.2323 47.8465 44.2323 46.8904C44.2323 45.3023 43.8067 43.9691 43.0077 42.83C42.6008 42.2502 42.0971 41.7207 41.5034 41.2334C41.2621 41.6181 40.9494 42.0039 40.5583 42.3642C40.4227 42.4892 40.2776 42.6111 40.1228 42.7288Z" fill="#263667"/>
<path fill-rule="evenodd" clip-rule="evenodd" d="M48.8498 27.5134C49.2365 28.9877 48.2825 30.4786 46.7187 30.8432C42.1531 31.9082 38.4434 32.4499 34.6646 32.4363C30.8939 32.4228 27.1954 31.8566 22.6647 30.8505C21.0968 30.5024 20.125 29.0216 20.4944 27.5434C20.8636 26.065 22.434 25.1488 24.002 25.497C28.3304 26.4581 31.5445 26.925 34.6867 26.9363C37.8206 26.9476 41.0238 26.5058 45.318 25.5042C46.8818 25.1394 48.4629 26.039 48.8498 27.5134Z" fill="#263667"/>
</svg>
