<svg width="70" height="66" viewBox="0 0 70 66" fill="none" xmlns="http://www.w3.org/2000/svg">
<path fill-rule="evenodd" clip-rule="evenodd" d="M56.875 11H13.125C12.3196 11 11.6667 11.6156 11.6667 12.375V53.625C11.6667 54.3844 12.3196 55 13.125 55H56.875C57.6804 55 58.3333 54.3844 58.3333 53.625V12.375C58.3333 11.6156 57.6804 11 56.875 11ZM13.125 8.25C10.7088 8.25 8.75 10.0968 8.75 12.375V53.625C8.75 55.9032 10.7088 57.75 13.125 57.75H56.875C59.2913 57.75 61.25 55.9032 61.25 53.625V12.375C61.25 10.0968 59.2913 8.25 56.875 8.25H13.125Z" fill="#263667"/>
<path d="M53.0369 50.4063C52.7195 50.0889 52.2054 50.0889 51.888 50.4063L51.3135 50.9808L50.1645 49.8317L51.3135 48.6829C51.4659 48.5306 51.5516 48.3243 51.5516 48.1085C51.5516 47.8926 51.4659 47.6863 51.3135 47.534L46.717 42.9375C46.4123 42.6328 45.8728 42.6328 45.5681 42.9375L44.4193 44.0866L41.477 41.1443C41.1597 40.8269 40.6455 40.8269 40.3281 41.1443C40.0107 41.4617 40.0107 41.9758 40.3281 42.2932L43.2705 45.2356L42.1213 46.3851C41.804 46.7024 41.804 47.2166 42.1213 47.534L46.717 52.1297C46.8757 52.2884 47.0836 52.3677 47.2915 52.3677C47.4994 52.3677 47.7073 52.2884 47.866 52.1297L49.0154 50.9805L50.1646 52.1297L49.5901 52.7041C49.2728 53.0215 49.2728 53.5356 49.5901 53.853C49.8911 54.1541 50.4191 54.1731 50.7391 53.8531L53.0369 51.5552C53.3543 51.2378 53.3543 50.7237 53.0369 50.4063Z" fill="#263667"/>
<path d="M33.3339 18.2419C32.1905 18.9013 31.5073 20.0831 31.5073 21.4031V23.3339C31.5073 24.6499 32.2198 25.8686 33.3672 26.5141L41.5715 31.1285C42.8429 31.8435 44.5692 31.6196 45.6158 30.573C46.2537 29.9343 46.6052 29.0861 46.6052 28.1839C46.6052 25.489 45.1564 22.9761 42.8244 21.6264L36.9846 18.2455C35.8428 17.5838 34.4772 17.5826 33.3339 18.2419Z" fill="#263667"/>
<path d="M27.6163 32.6593L34.2951 28.8975L32.5726 27.9306C30.9151 26.9962 29.8832 25.2331 29.8832 23.3319V21.4387L24.3744 24.6318C23.3588 25.2087 22.7251 26.2975 22.7251 27.4675V29.6612C22.7251 30.3762 22.8875 31.0018 23.2125 31.5137C24.1144 32.9341 26.1379 33.4972 27.6163 32.6593Z" fill="#263667"/>
<path d="M29.8263 19.5944C29.9644 19.5131 30.1188 19.4481 30.2732 19.3994C30.7038 18.335 31.4838 17.4331 32.5238 16.8319C33.3282 16.3687 34.2382 16.125 35.1563 16.125C36.0745 16.125 36.9926 16.3688 37.797 16.84L40.4619 18.3837C40.0151 15.735 37.1876 13.6875 33.7751 13.6875C30.0538 13.6875 27.0232 16.125 27.0232 19.1231C27.0232 19.765 27.1613 20.3906 27.4294 20.9756L29.8263 19.5944Z" fill="#263667"/>
<path d="M31.313 46.9268C32.3206 47.5199 33.4499 47.8124 34.5874 47.8124C35.7168 47.8124 36.8543 47.5199 37.8699 46.9268C38.8392 46.3607 39.8148 45.7051 40.6568 44.9199L39.1781 43.4412C38.2274 42.4906 38.2274 40.9468 39.178 39.9962C40.1105 39.0638 41.6957 39.0522 42.623 39.9962L43.6224 40.9955C44.6137 39.078 45.1499 36.9168 45.1499 34.6987V32.8137C44.5487 33.0574 43.8987 33.1874 43.2243 33.1874C42.363 33.1874 41.518 32.9599 40.7705 32.5455L35.9524 29.8318L28.4124 34.073C27.6893 34.4874 26.8524 34.7068 26.0074 34.7068C25.3087 34.7068 24.6343 34.5605 24.0249 34.2924V34.6987C24.0249 39.8238 26.9474 44.38 31.313 46.9268ZM36.448 35.8605C36.7649 35.5437 37.2849 35.5437 37.6018 35.8605C38.1786 36.4456 39.1212 36.4456 39.698 35.8605C40.0149 35.5437 40.5349 35.5437 40.8518 35.8605C41.1686 36.1774 41.1686 36.6974 40.8518 37.0143C40.2424 37.6156 39.4461 37.9243 38.6499 37.9243C37.8537 37.9243 37.0574 37.6156 36.448 37.0143C36.1312 36.6974 36.1312 36.1774 36.448 35.8605ZM35.6355 42.4986C35.9524 42.1818 36.4724 42.1818 36.7893 42.4986C37.1061 42.8237 37.1061 43.3355 36.7893 43.6524C36.1799 44.2537 35.3836 44.5624 34.5874 44.5624C33.7912 44.5624 32.9949 44.2537 32.3855 43.6524C32.0687 43.3355 32.0687 42.8237 32.3855 42.4986C32.7024 42.1818 33.2224 42.1818 33.5393 42.4986C34.1161 43.0837 35.0587 43.0837 35.6355 42.4986ZM28.323 37.0143C28.0062 36.6974 28.0062 36.1774 28.323 35.8605C28.6399 35.5437 29.1599 35.5437 29.4768 35.8605C30.0536 36.4456 30.9962 36.4456 31.573 35.8605C31.8899 35.5437 32.4099 35.5437 32.7268 35.8605C33.0436 36.1774 33.0436 36.6974 32.7268 37.0143C32.1174 37.6156 31.3211 37.9243 30.5249 37.9243C29.7287 37.9243 28.9324 37.6156 28.323 37.0143Z" fill="#263667"/>
<path d="M38.2681 48.5599C37.1306 49.1368 35.8712 49.4374 34.5875 49.4374C33.3037 49.4374 32.0362 49.1368 30.915 48.5518C30.4437 50.193 29.5581 51.6961 28.3231 52.923C28.0956 53.1586 28.0225 53.508 28.1525 53.8087C28.2743 54.1174 28.575 54.3124 28.9 54.3124H40.275C40.6 54.3124 40.9006 54.1174 41.0225 53.8087C41.1525 53.508 41.0793 53.1586 40.8519 52.923C39.625 51.6961 38.7312 50.193 38.2681 48.5599Z" fill="#263667"/>
</svg>
