<svg width="70" height="66" viewBox="0 0 70 66" fill="none" xmlns="http://www.w3.org/2000/svg">
<path fill-rule="evenodd" clip-rule="evenodd" d="M56.875 11H13.125C12.3196 11 11.6667 11.6156 11.6667 12.375V53.625C11.6667 54.3844 12.3196 55 13.125 55H56.875C57.6804 55 58.3333 54.3844 58.3333 53.625V12.375C58.3333 11.6156 57.6804 11 56.875 11ZM13.125 8.25C10.7088 8.25 8.75 10.0968 8.75 12.375V53.625C8.75 55.9032 10.7088 57.75 13.125 57.75H56.875C59.2913 57.75 61.25 55.9032 61.25 53.625V12.375C61.25 10.0968 59.2913 8.25 56.875 8.25H13.125Z" fill="#263667"/>
<path fill-rule="evenodd" clip-rule="evenodd" d="M50.6773 29.2846C50.6502 31.0201 50.6261 32.5486 51.5513 34.3563C51.5513 34.3563 54.2862 36.6762 53.9256 38.5374C53.565 40.3986 50.0036 40.9112 50.0036 40.9112C50.0036 50.9322 36.479 46.7497 36.479 46.7497V55.6875H30.468C29.7755 55.7392 28.9411 55.9346 28.078 56.1367C25.9422 56.6369 23.6302 57.1784 22.8527 55.6875V41.0581C19.0058 38.3471 16.0417 34.695 16.0417 29.961C16.0417 26.0263 17.7833 22.2527 20.8833 19.4704C23.9832 16.6881 28.1878 15.125 32.5718 15.125C35.9196 15.1216 39.2278 15.7753 42.2645 17.0403C44.6576 17.9447 46.7528 19.3841 48.3505 21.2212C49.8095 23.1512 50.6181 25.4176 50.6798 27.7492C50.6931 28.2849 50.685 28.7932 50.6773 29.2846ZM38.6332 30.895C38.469 31.0683 38.3834 31.1586 37.8679 31.1586C37.0539 31.1586 36.2586 30.9332 35.5863 30.5121C35.1141 30.9712 34.5355 31.3266 33.8929 31.5523C33.3115 31.8153 33.0606 32.2006 32.7518 32.6751C32.6965 32.7601 32.6393 32.8479 32.5781 32.9383C32.1748 33.5341 31.9615 34.2216 31.9625 34.923V38.8728H27.6273C27.5182 38.0266 27.3132 37.2136 26.8166 36.4936C26.3199 35.7735 25.6536 35.1648 24.8669 34.7122C24.1839 34.4429 23.5943 34.0073 23.1618 33.4527C22.7292 32.898 22.4704 32.2454 22.4129 31.5655C21.7021 30.8751 21.3066 29.961 21.3079 29.0111C21.3025 28.1923 21.5955 27.3952 22.1404 26.7465C22.04 26.4256 21.9917 26.0928 21.9969 25.759C21.9954 24.9607 22.2736 24.183 22.7903 23.5406L24.8669 22.191C25.1854 21.5338 25.7045 20.9751 26.3615 20.5827C27.0183 20.1901 27.7851 19.9804 28.5691 19.979C28.8929 19.9808 29.2155 20.0162 29.5306 20.0844C30.1975 19.5142 31.0541 19.1666 31.9625 19.0973L36.3744 19.3791C37.3481 19.6001 38.1994 20.1416 38.7662 20.9007H39.0532L41.6024 21.7192C42.3254 22.2508 42.8286 22.9935 43.0282 23.8235C43.9031 24.1721 44.6209 24.7856 45.0616 25.5617C45.5021 26.3376 45.6391 27.229 45.449 28.0865C45.2592 28.9439 44.754 29.7156 44.0181 30.2722L41.4067 31.1442C40.5846 31.1528 39.779 30.9326 39.0964 30.5121C38.8496 30.6666 38.7283 30.7948 38.6332 30.895ZM45.5325 34.4897C45.5325 35.3124 44.825 35.9794 43.9525 35.9794C43.08 35.9794 42.3727 35.3124 42.3727 34.4897C42.3727 33.667 43.08 33.0001 43.9525 33.0001C44.825 33.0001 45.5325 33.667 45.5325 34.4897ZM27.6275 43.5617H31.8403V40.8117H27.6275V43.5617ZM31.8403 52.6445H27.6275V49.8945H31.8403V52.6445ZM27.6275 48.0686H31.8403V45.3186H27.6275V48.0686Z" fill="#263667"/>
<path fill-rule="evenodd" clip-rule="evenodd" d="M49.1739 36.0389L48.9244 35.5515C48.7385 35.1881 48.5815 34.8318 48.4491 34.4828C48.4491 34.4852 48.4491 34.4875 48.4491 34.4897C48.4491 36.8312 46.4359 38.7294 43.9525 38.7294C41.4692 38.7294 39.456 36.8312 39.456 34.4897C39.456 34.2095 39.4849 33.9354 39.5399 33.6703C39.512 33.6633 39.4842 33.6562 39.4563 33.6489C38.8145 33.8923 38.2096 33.9086 37.8679 33.9086C37.2251 33.9086 36.5876 33.826 35.9737 33.6648C35.7657 33.775 35.5521 33.8759 35.3335 33.9672C35.3056 34.0091 35.2761 34.0544 35.2375 34.1136C35.2356 34.1165 35.2336 34.1197 35.2317 34.1227C35.1789 34.2037 35.1111 34.3079 35.0367 34.4178C34.9308 34.5742 34.8789 34.7478 34.8792 34.9192V34.923V41.6228H34.757V43.323L37.3821 44.1349L37.3847 44.1356L37.3862 44.1361L37.3948 44.1386C37.4094 44.143 37.4359 44.1507 37.4736 44.1614C37.5488 44.1829 37.6682 44.2159 37.8252 44.2562C38.1403 44.3369 38.6007 44.4454 39.1559 44.5485C40.2914 44.7594 41.7089 44.9263 43.0523 44.8441C44.4275 44.7598 45.4031 44.4356 46.0003 43.9566C46.4878 43.5655 47.0869 42.7849 47.0869 40.9112V38.5491L49.5522 38.1944C49.5525 38.1942 49.5518 38.1944 49.5522 38.1944M49.5943 36.3956C49.5939 36.3952 49.5923 36.3937 49.5923 36.3938L49.1739 36.0389M36.479 46.7497C36.479 46.7497 37.6939 47.1254 39.3956 47.3818C43.3713 47.9809 50.0036 47.9287 50.0036 40.9112C50.0036 40.9112 53.565 40.3986 53.9256 38.5374C54.2862 36.6762 51.5513 34.3563 51.5513 34.3563C50.6261 32.5486 50.6502 31.0201 50.6773 29.2846C50.685 28.7932 50.6931 28.2849 50.6798 27.7492C50.6181 25.4176 49.8095 23.1512 48.3505 21.2212C46.7528 19.3841 44.6576 17.9447 42.2645 17.0403C39.2278 15.7753 35.9196 15.1216 32.5718 15.125C28.1878 15.125 23.9832 16.6881 20.8833 19.4704C17.7833 22.2527 16.0417 26.0263 16.0417 29.961C16.0417 34.695 19.0058 38.3471 22.8527 41.0581V55.6875C23.6302 57.1784 25.9422 56.6369 28.078 56.1367C28.9411 55.9346 29.7755 55.7392 30.468 55.6875H36.479V46.7497ZM27.6275 48.0686H31.8403V45.3186H27.6275V48.0686ZM27.6275 43.5617H31.8403V40.8117H27.6275V43.5617ZM27.4841 38.0617C27.3545 37.5088 27.1521 36.98 26.8166 36.4936C26.3199 35.7735 25.6536 35.1648 24.8669 34.7122C24.1839 34.4429 23.5943 34.0073 23.1618 33.4527C22.7292 32.898 22.4704 32.2454 22.4129 31.5655C21.7021 30.8751 21.3066 29.961 21.3079 29.0111C21.3025 28.1923 21.5955 27.3952 22.1404 26.7465C22.04 26.4256 21.9917 26.0928 21.9969 25.759C21.9954 24.9607 22.2736 24.183 22.7903 23.5406L24.8669 22.191C25.1854 21.5338 25.7045 20.9751 26.3615 20.5827C27.0183 20.1901 27.7851 19.9804 28.5691 19.979C28.8929 19.9808 29.2155 20.0162 29.5306 20.0844C30.1975 19.5142 31.0541 19.1666 31.9625 19.0973L36.3744 19.3791C37.3481 19.6001 38.1994 20.1416 38.7662 20.9007H39.0532L41.6024 21.7192C42.3254 22.2508 42.8286 22.9935 43.0282 23.8235C43.9031 24.1721 44.6209 24.7856 45.0616 25.5617C45.5021 26.3376 45.6391 27.229 45.449 28.0865C45.2615 28.9332 44.7667 29.6962 44.0458 30.251C44.0366 30.2581 44.0273 30.2651 44.0181 30.2722L41.4067 31.1442C41.3357 31.1449 41.2649 31.1439 41.1942 31.1413C40.4464 31.1134 39.72 30.8963 39.0964 30.5121C38.8496 30.6666 38.7283 30.7948 38.6332 30.895C38.469 31.0683 38.3834 31.1586 37.8679 31.1586C37.0539 31.1586 36.2586 30.9332 35.5863 30.5121C35.1141 30.9712 34.5355 31.3266 33.8929 31.5523C33.3115 31.8153 33.0606 32.2006 32.7518 32.6751C32.6965 32.7601 32.6393 32.8479 32.5781 32.9383C32.1748 33.5341 31.9615 34.2216 31.9625 34.923V38.8728H27.6273C27.5919 38.5982 27.5464 38.3272 27.4841 38.0617ZM44.4021 33.0613C45.0556 33.2439 45.5325 33.8143 45.5325 34.4897C45.5325 35.3124 44.825 35.9794 43.9525 35.9794C43.08 35.9794 42.3727 35.3124 42.3727 34.4897C42.3727 34.1766 42.4751 33.8861 42.6502 33.6463C42.935 33.256 43.412 33.0001 43.9525 33.0001C44.1087 33.0001 44.2596 33.0215 44.4021 33.0613ZM46.9691 31.3456C47.2727 30.9815 47.5349 30.588 47.7506 30.1714C47.7507 30.886 47.7796 31.6579 47.9142 32.4826C47.6695 32.054 47.3487 31.6697 46.9691 31.3456ZM19.2394 32.107C19.9311 34.6926 21.8612 36.9262 24.599 38.8553L24.6892 38.919C24.6055 38.4354 24.4941 38.1706 24.3716 37.9929C24.1431 37.6617 23.8414 37.371 23.4813 37.1408C22.4263 36.6768 21.5058 35.9715 20.812 35.0816C20.2646 34.38 19.8747 33.584 19.6644 32.7412C19.5095 32.5373 19.3676 32.3254 19.2394 32.107ZM27.6275 49.8945H31.8403V52.6445H27.6275V49.8945Z" fill="#263667"/>
</svg>
