<svg width="70" height="66" viewBox="0 0 70 66" fill="none" xmlns="http://www.w3.org/2000/svg">
<path fill-rule="evenodd" clip-rule="evenodd" d="M56.875 11H13.125C12.3196 11 11.6667 11.6156 11.6667 12.375V53.625C11.6667 54.3844 12.3196 55 13.125 55H56.875C57.6804 55 58.3333 54.3844 58.3333 53.625V12.375C58.3333 11.6156 57.6804 11 56.875 11ZM13.125 8.25C10.7088 8.25 8.75 10.0968 8.75 12.375V53.625C8.75 55.9032 10.7088 57.75 13.125 57.75H56.875C59.2913 57.75 61.25 55.9032 61.25 53.625V12.375C61.25 10.0968 59.2913 8.25 56.875 8.25H13.125Z" fill="#263667"/>
<path fill-rule="evenodd" clip-rule="evenodd" d="M20.4166 28.875C19.6111 28.875 18.9583 29.4906 18.9583 30.25V50.875C18.9583 51.6344 19.6111 52.25 20.4166 52.25H27.7083C27.7083 51.4346 28.093 50.7009 28.5256 50.1322C28.9736 49.5433 29.572 48.9996 30.2264 48.5352C31.1635 47.8699 32.3322 47.2862 33.5416 46.976V42.8264H30.9166C29.1804 42.8264 27.5118 43.3734 26.233 43.9615C25.6024 44.2515 25.0885 44.5415 24.7357 44.7564C24.5599 44.8636 24.4255 44.9514 24.3382 45.0101C24.2946 45.0395 24.2628 45.0614 24.2435 45.0748L24.2244 45.0884C24.2247 45.0882 24.2246 45.0882 23.3333 44C22.4419 42.9117 22.4422 42.9116 22.4425 42.9113L22.4451 42.9095L22.4495 42.9062L22.4625 42.897L22.5035 42.8678C22.5376 42.844 22.585 42.8112 22.6451 42.7709C22.7651 42.6902 22.936 42.5788 23.1521 42.4471C23.5832 42.1843 24.1995 41.837 24.9543 41.4899C26.4464 40.8037 28.5694 40.0764 30.9166 40.0764H33.5416V37.125H31.9374C30.6255 37.125 29.3741 37.422 28.4281 37.7349C27.9605 37.8896 27.5811 38.0436 27.323 38.1569C27.1942 38.2133 27.0965 38.2592 27.0342 38.2893C27.003 38.3045 26.9807 38.3156 26.9679 38.3221L26.9575 38.3273C26.9578 38.3272 26.9581 38.327 26.2499 37.125C25.5418 35.923 25.542 35.9228 25.5423 35.9227L25.5447 35.9215L25.5486 35.9194L25.5594 35.9139L25.5925 35.897C25.6195 35.8834 25.6567 35.8649 25.7032 35.8424C25.7964 35.7974 25.9278 35.7358 26.0929 35.6634C26.4227 35.5189 26.8909 35.3291 27.4624 35.1401C28.5945 34.7655 30.1868 34.375 31.9374 34.375H33.5416V31.625H36.4583V34.375H37.6249C39.1578 34.375 40.8557 34.7676 42.0947 35.1216C42.7304 35.3033 43.2783 35.4845 43.6685 35.6208C43.864 35.6891 44.021 35.7464 44.1307 35.7873C44.1857 35.8077 44.2288 35.8241 44.2592 35.8358L44.2949 35.8495L44.3054 35.8537L44.3104 35.8556C44.3106 35.8557 44.3108 35.8557 43.7499 37.125C43.189 38.3943 43.1892 38.3943 43.1893 38.3944L43.1847 38.3925L43.1608 38.3834C43.1386 38.3749 43.104 38.3617 43.0581 38.3445C42.9662 38.3102 42.8291 38.2602 42.6556 38.1996C42.3075 38.078 41.8163 37.9155 41.2489 37.7534C40.0816 37.4199 38.7171 37.125 37.6249 37.125H36.4583V40.0764H38.4999C40.5549 40.0764 42.8207 40.8067 44.4619 41.4586C45.3061 41.7938 46.0334 42.1284 46.5504 42.3793C46.8094 42.5051 47.017 42.6106 47.1618 42.6856C47.2342 42.7232 47.291 42.7532 47.3309 42.7743L47.3775 42.7994L47.3909 42.8065L47.395 42.8088L47.3965 42.8097C47.3968 42.8098 47.3975 42.8102 46.6666 44C45.9357 45.1898 45.9358 45.1899 45.936 45.1901L45.9287 45.1861L45.8959 45.1685C45.8655 45.1523 45.8187 45.1275 45.7566 45.0955C45.6326 45.0311 45.4483 44.9375 45.2151 44.8243C44.7477 44.5973 44.0896 44.2947 43.3296 43.9929C41.7625 43.3704 39.945 42.8264 38.4999 42.8264H36.4583V46.9315C37.6618 47.2193 38.8226 47.816 39.7392 48.4759C40.4013 48.9527 41.0068 49.5118 41.46 50.1102C41.8939 50.6829 42.2916 51.4287 42.2916 52.25H49.5833C50.3887 52.25 51.0416 51.6344 51.0416 50.875V30.25C51.0416 29.4906 50.3887 28.875 49.5833 28.875H20.4166ZM39.3748 52.25C39.374 52.2423 39.3685 52.1976 39.3318 52.1111C39.2879 52.0081 39.2104 51.8719 39.0866 51.7085C38.8368 51.3788 38.4527 51.0097 37.9689 50.6616C36.9824 49.9513 35.8565 49.5177 35.0492 49.5006C34.1098 49.5771 32.9405 50.0507 31.9806 50.732C31.5033 51.0709 31.1331 51.4229 30.8956 51.7351C30.7782 51.8895 30.706 52.0173 30.6655 52.1136C30.6277 52.2034 30.6251 52.2468 30.6249 52.25H39.3748Z" fill="#263667"/>
<path fill-rule="evenodd" clip-rule="evenodd" d="M41.5625 19.9375C41.5625 23.3548 38.6244 26.125 35 26.125C31.3756 26.125 28.4375 23.3548 28.4375 19.9375C28.4375 16.5202 31.3756 13.75 35 13.75C38.6244 13.75 41.5625 16.5202 41.5625 19.9375Z" fill="#263667"/>
</svg>
