<svg width="70" height="66" viewBox="0 0 70 66" fill="none" xmlns="http://www.w3.org/2000/svg">
<path fill-rule="evenodd" clip-rule="evenodd" d="M34.3572 15.298C34.6478 15.0826 46.7839 6.18083 54.8054 14.95C59.2089 19.7641 58.8356 24.7587 57.2015 29.6498L51.4524 45.1777C49.7713 50.5766 48.5727 52.2433 45.6275 54.5889C43.8792 55.9811 41.9076 53.5763 39.8326 51.0454C38.0351 48.8528 36.16 46.5655 34.2851 46.5708C32.3794 46.5763 30.4741 48.8672 28.6512 51.059C26.5487 53.587 24.5559 55.9831 22.7983 54.5889C19.2494 51.7731 17.6931 47.8826 16.0663 41.639C15.7532 40.437 15.2768 38.9953 14.7515 37.4054C12.5482 30.7373 9.48324 21.4614 13.9786 16.3153C19.5299 9.96076 26.425 8.93778 34.2837 15.247L34.3572 15.298ZM30.4793 15.9505C27.7604 14.189 25.4492 13.6288 23.5241 13.7716C21.1587 13.9469 18.7018 15.2342 16.23 18.0638C14.371 20.1917 14.1818 23.7867 15.184 28.4833C15.6613 30.72 16.3577 32.9851 17.059 35.1366C17.2102 35.6008 17.364 36.066 17.5164 36.5269C18.0476 38.1344 18.5621 39.6909 18.8989 40.983C20.3881 46.699 21.6835 49.771 24.0333 51.9354C24.5184 51.5101 25.1319 50.8269 25.9436 49.8571C26.0701 49.7058 26.2013 49.5478 26.3365 49.385C27.168 48.3842 28.1529 47.1985 29.1575 46.2507C30.2247 45.244 31.9888 43.8274 34.2764 43.8208C36.5744 43.8142 38.3339 45.2537 39.3794 46.2535C40.3695 47.2004 41.3406 48.3864 42.1601 49.3872C42.2942 49.5509 42.4241 49.7095 42.5494 49.8615C43.3445 50.8252 43.9467 51.5056 44.423 51.9311C45.3677 51.1258 45.9804 50.4534 46.5105 49.6173C47.1949 48.5379 47.8323 47.0412 48.6538 44.403C48.6675 44.3587 48.6825 44.3149 48.6987 44.2713L54.4327 28.7842C55.1825 26.5297 55.5632 24.4709 55.3645 22.5361C55.171 20.6515 54.4128 18.7315 52.5966 16.746C49.5858 13.4545 45.8869 13.4047 42.3973 14.4243C40.6398 14.9377 39.0625 15.7025 37.9074 16.3564C37.4739 16.6017 37.1086 16.8266 36.8251 17.0089L42.4266 20.8922C43.0754 21.3421 43.2147 22.2027 42.7375 22.8144C42.2605 23.4263 41.3476 23.5576 40.6987 23.1077L32.7876 17.6231C32.6781 17.5574 32.5722 17.4842 32.4708 17.4035L30.7819 16.2327C30.664 16.1509 30.5629 16.0556 30.4793 15.9505ZM23.5219 52.3117L23.5276 52.3091C23.5237 52.3109 23.5218 52.3117 23.5219 52.3117Z" fill="#263667"/>
</svg>
