<svg width="70" height="66" viewBox="0 0 70 66" fill="none" xmlns="http://www.w3.org/2000/svg">
<path fill-rule="evenodd" clip-rule="evenodd" d="M56.875 11H13.125C12.3196 11 11.6667 11.6156 11.6667 12.375V53.625C11.6667 54.3844 12.3196 55 13.125 55H56.875C57.6804 55 58.3333 54.3844 58.3333 53.625V12.375C58.3333 11.6156 57.6804 11 56.875 11ZM13.125 8.25C10.7088 8.25 8.75 10.0968 8.75 12.375V53.625C8.75 55.9032 10.7088 57.75 13.125 57.75H56.875C59.2913 57.75 61.25 55.9032 61.25 53.625V12.375C61.25 10.0968 59.2913 8.25 56.875 8.25H13.125Z" fill="#263667"/>
<path fill-rule="evenodd" clip-rule="evenodd" d="M44.5986 18.6789C45.7375 17.6049 47.5842 17.6049 48.7233 18.6789C50.159 20.0324 51.0463 21.7673 51.0418 23.3749C51.0463 24.9824 50.1587 26.6995 48.7232 28.0532C47.5841 29.1271 45.7374 29.1271 44.5983 28.0532C43.4593 26.9792 43.4593 25.238 44.5983 24.164L43.752 23.3661L44.5986 22.5679C43.4595 21.4939 43.4595 19.7527 44.5986 18.6789ZM41.6029 23.3658C40.3185 25.4682 40.6296 28.2002 42.5359 29.9977C44.814 32.1456 48.5075 32.1456 50.7855 29.9977C52.6204 28.2676 53.9654 25.8923 53.9583 23.3749C53.9654 20.8574 52.6206 18.4644 50.7857 16.7342C48.5076 14.5863 44.8141 14.5863 42.536 16.7342C40.6299 18.5316 40.3188 21.2635 41.6029 23.3658Z" fill="#263667"/>
<path fill-rule="evenodd" clip-rule="evenodd" d="M25.4017 18.6789C24.2625 17.6049 22.4159 17.6049 21.2768 18.6789C19.8412 20.0324 18.9538 21.7673 18.9583 23.3749C18.9538 24.9824 19.8413 26.6995 21.277 28.0532C22.416 29.1271 24.2627 29.1271 25.4018 28.0532C26.5408 26.9792 26.5408 25.238 25.4018 24.164L26.2481 23.3661L25.4017 22.5679C26.5406 21.4939 26.5406 19.7527 25.4017 18.6789ZM28.3974 23.3658C29.6816 25.4682 29.3705 28.2002 27.4642 29.9977C25.1861 32.1456 21.4926 32.1456 19.2145 29.9977C17.3797 28.2676 16.0346 25.8923 16.0418 23.3749C16.0346 20.8574 17.3795 18.4644 19.2144 16.7342C21.4924 14.5863 25.186 14.5863 27.464 16.7342C29.3702 18.5316 29.6814 21.2635 28.3974 23.3658Z" fill="#263667"/>
<path fill-rule="evenodd" clip-rule="evenodd" d="M31.7984 39.3003C31.0408 39.7766 30.6249 40.4084 30.6249 41.25C30.6249 43.5282 32.5836 45.375 34.9999 45.375C37.4162 45.375 39.3749 43.5282 39.3749 41.25C39.3749 40.4084 38.959 39.7765 38.2014 39.3004C37.4005 38.7969 36.242 38.5 34.9999 38.5C33.7579 38.5 32.5994 38.7969 31.7984 39.3003ZM39.8193 37.0122C41.2492 37.9109 42.2916 39.3416 42.2916 41.25C42.2916 45.0471 39.027 48.125 34.9999 48.125C30.9729 48.125 27.7083 45.0471 27.7083 41.25C27.7083 39.3416 28.7507 37.911 30.1806 37.0121C31.5671 36.1405 33.3253 35.75 34.9999 35.75C36.6745 35.75 38.4327 36.1406 39.8193 37.0122Z" fill="#263667"/>
<path fill-rule="evenodd" clip-rule="evenodd" d="M35.0001 45.375C35.8055 45.375 36.4584 45.9906 36.4584 46.75V50.875C36.4584 51.6344 35.8055 52.25 35.0001 52.25C34.1946 52.25 33.5417 51.6344 33.5417 50.875V46.75C33.5417 45.9906 34.1946 45.375 35.0001 45.375Z" fill="#263667"/>
<path fill-rule="evenodd" clip-rule="evenodd" d="M23.3333 23.375C23.3333 22.6156 23.9861 22 24.7916 22H29.1666C31.5813 22 33.5416 23.8431 33.5416 26.1227V37.1249C33.5416 37.8843 32.8887 38.4999 32.0833 38.4999C31.2778 38.4999 30.6249 37.8843 30.6249 37.1249V26.1227C30.6249 25.3648 29.9736 24.75 29.1666 24.75H24.7916C23.9861 24.75 23.3333 24.1344 23.3333 23.375Z" fill="#263667"/>
<path fill-rule="evenodd" clip-rule="evenodd" d="M46.6666 23.375C46.6666 22.6156 46.0137 22 45.2083 22H40.8333C38.4185 22 36.4583 23.8431 36.4583 26.1227V37.1249C36.4583 37.8843 37.1111 38.4999 37.9166 38.4999C38.722 38.4999 39.3749 37.8843 39.3749 37.1249V26.1227C39.3749 25.3648 40.0262 24.75 40.8333 24.75H45.2083C46.0137 24.75 46.6666 24.1344 46.6666 23.375Z" fill="#263667"/>
<path fill-rule="evenodd" clip-rule="evenodd" d="M26.2501 24.7278C25.4404 24.7278 24.7839 25.3467 24.7839 26.1102C24.7839 26.8696 24.131 27.4852 23.3255 27.4852C22.5201 27.4852 21.8672 26.8696 21.8672 26.1102C21.8672 23.828 23.8295 21.9778 26.2501 21.9778C27.0555 21.9778 27.7084 22.5934 27.7084 23.3528C27.7084 24.1122 27.0555 24.7278 26.2501 24.7278Z" fill="#263667"/>
<path fill-rule="evenodd" clip-rule="evenodd" d="M43.7501 24.7278C44.5597 24.7278 45.2163 25.3467 45.2163 26.1102C45.2163 26.8696 45.8692 27.4852 46.6746 27.4852C47.4801 27.4852 48.133 26.8696 48.133 26.1102C48.133 23.828 46.1706 21.9778 43.7501 21.9778C42.9446 21.9778 42.2917 22.5934 42.2917 23.3528C42.2917 24.1122 42.9446 24.7278 43.7501 24.7278Z" fill="#263667"/>
<path fill-rule="evenodd" clip-rule="evenodd" d="M26.2501 21.9779C25.4404 21.9779 24.7839 21.3589 24.7839 20.5955C24.7839 19.836 24.131 19.2205 23.3255 19.2205C22.5201 19.2205 21.8672 19.836 21.8672 20.5955C21.8672 22.8777 23.8295 24.7279 26.2501 24.7279C27.0555 24.7279 27.7084 24.1123 27.7084 23.3529C27.7084 22.5935 27.0555 21.9779 26.2501 21.9779Z" fill="#263667"/>
<path fill-rule="evenodd" clip-rule="evenodd" d="M43.7501 21.9779C44.5597 21.9779 45.2163 21.3589 45.2163 20.5955C45.2163 19.836 45.8692 19.2205 46.6746 19.2205C47.4801 19.2205 48.133 19.836 48.133 20.5955C48.133 22.8777 46.1706 24.7279 43.7501 24.7279C42.9446 24.7279 42.2917 24.1123 42.2917 23.3529C42.2917 22.5935 42.9446 21.9779 43.7501 21.9779Z" fill="#263667"/>
<path fill-rule="evenodd" clip-rule="evenodd" d="M27.7083 41.25C27.7083 40.4906 28.3611 39.875 29.1666 39.875H40.8333C41.6387 39.875 42.2916 40.4906 42.2916 41.25C42.2916 42.0094 41.6387 42.625 40.8333 42.625H29.1666C28.3611 42.625 27.7083 42.0094 27.7083 41.25Z" fill="#263667"/>
</svg>
